<svg version="1.1" xmlns="http://www.w3.org/2000/svg" viewBox="0 0 497 303" width="497" height="303" class="excalidraw-svg"><!-- svg-source:excalidraw --><metadata></metadata><defs><style class="style-fonts">
      </style></defs><rect x="0" y="0" width="497" height="303" fill="#121212"></rect><g stroke-linecap="round" transform="translate(10 10) rotate(0 238 31)"><path d="M15.5 0 C108.87 1.6, 199.75 1.72, 460.5 0 C472.68 0.45, 478.02 3.68, 476 15.5 C476.1 28.81, 476.59 38.06, 476 46.5 C475.64 58.43, 472.48 64.93, 460.5 62 C310.46 62.22, 161.99 61.48, 15.5 62 C6.26 62.07, -2.59 57.3, 0 46.5 C-3.61 36.88, -2.58 35.01, 0 15.5 C-3.34 1.94, 8.3 2.13, 15.5 0" stroke="none" stroke-width="0" fill="#122700"></path><path d="M15.5 0 C141.58 -1.14, 267.27 -0.09, 460.5 0 M15.5 0 C167.28 1.13, 320.39 0.78, 460.5 0 M460.5 0 C469.47 -1.45, 476.88 6.08, 476 15.5 M460.5 0 C471.02 0.14, 477.59 6.13, 476 15.5 M476 15.5 C475.29 26.01, 477.38 40.93, 476 46.5 M476 15.5 C475.31 23.85, 477.09 31.63, 476 46.5 M476 46.5 C477.16 57.75, 471.43 60.12, 460.5 62 M476 46.5 C476.76 56.72, 472.52 61.7, 460.5 62 M460.5 62 C326.18 64.21, 191.42 64.52, 15.5 62 M460.5 62 C343.74 63.74, 227.7 63.85, 15.5 62 M15.5 62 C5.02 62.87, 2 57.39, 0 46.5 M15.5 62 C2.87 62.28, -2.26 57.28, 0 46.5 M0 46.5 C1.26 37.74, 1.48 29.3, 0 15.5 M0 46.5 C-1.23 39.69, 0.03 32.96, 0 15.5 M0 15.5 C-1.24 7.05, 5.26 -1.5, 15.5 0 M0 15.5 C-1.02 5.5, 6.16 -1.32, 15.5 0" stroke="#ededed" stroke-width="1" fill="none"></path></g><g transform="translate(191.8525390625 29) rotate(0 56.1474609375 12)"><text x="56.1474609375" y="17.400390625" font-family="Helvetica, sans-serif, Segoe UI Emoji" font-size="20px" fill="#ededed" text-anchor="middle" style="white-space: pre;" direction="ltr" dominant-baseline="alphabetic">Presentation</text></g><g stroke-linecap="round" transform="translate(11 123) rotate(0 236 31)"><path d="M15.5 0 C132.85 1.4, 249.38 0.43, 456.5 0 C467.82 -1.5, 474.9 5.5, 472 15.5 C471.76 29.12, 473.77 42.47, 472 46.5 C473.3 53.84, 466.22 61.01, 456.5 62 C302.6 62.37, 146.33 62.57, 15.5 62 C1.8 63.01, 1.64 53.38, 0 46.5 C-2.96 36.74, 3.51 35.57, 0 15.5 C2.33 6.28, 2.63 2.91, 15.5 0" stroke="none" stroke-width="0" fill="#302200"></path><path d="M15.5 0 C121.39 -0.71, 225.9 -1.94, 456.5 0 M15.5 0 C141.42 1.5, 268.25 2.08, 456.5 0 M456.5 0 C467 0.12, 473.38 6.01, 472 15.5 M456.5 0 C469 -0.7, 472.9 4.46, 472 15.5 M472 15.5 C471.22 23.35, 471.87 27.04, 472 46.5 M472 15.5 C472.86 27.18, 472.58 37.02, 472 46.5 M472 46.5 C472.66 56.74, 468.3 61.74, 456.5 62 M472 46.5 C472.04 58.32, 468.68 62.11, 456.5 62 M456.5 62 C303.58 64.35, 152.05 63.33, 15.5 62 M456.5 62 C293.82 64.2, 131.72 64.13, 15.5 62 M15.5 62 C3.17 62.25, -1.96 57.22, 0 46.5 M15.5 62 C4.72 62.21, 1 58.32, 0 46.5 M0 46.5 C-1.8 38.9, -1.02 26.13, 0 15.5 M0 46.5 C-0.7 37.92, -0.04 26.71, 0 15.5 M0 15.5 C-0.88 5.45, 6.03 -1.15, 15.5 0 M0 15.5 C-2.12 4.18, 3.86 1.27, 15.5 0" stroke="#ededed" stroke-width="1" fill="none"></path></g><g transform="translate(183.0791015625 142) rotate(0 63.9208984375 12)"><text x="63.9208984375" y="17.400390625" font-family="Helvetica, sans-serif, Segoe UI Emoji" font-size="20px" fill="#ededed" text-anchor="middle" style="white-space: pre;" direction="ltr" dominant-baseline="alphabetic">Business logic</text></g><g stroke-linecap="round" transform="translate(11 231) rotate(0 238 31)"><path d="M15.5 0 C155.1 0.89, 295.15 1.79, 460.5 0 C473.99 0.82, 478.26 4.8, 476 15.5 C477.55 23.18, 475.64 35.86, 476 46.5 C477.81 58.02, 471.14 63.09, 460.5 62 C324.47 63.01, 192.57 60.81, 15.5 62 C1.95 59.58, 1.3 53.49, 0 46.5 C1.84 41.09, -3.02 36.37, 0 15.5 C-2.32 3.55, 7.53 -0.87, 15.5 0" stroke="none" stroke-width="0" fill="#5b3327"></path><path d="M15.5 0 C162.76 2.85, 309.46 1.35, 460.5 0 M15.5 0 C116.8 -0.97, 218.36 -0.79, 460.5 0 M460.5 0 C472.72 -0.61, 476.79 4.55, 476 15.5 M460.5 0 C468.86 1.69, 477.14 4, 476 15.5 M476 15.5 C477.19 28.46, 477.28 38.98, 476 46.5 M476 15.5 C476.42 26.17, 476.83 36.8, 476 46.5 M476 46.5 C476.04 58.12, 472.44 62.1, 460.5 62 M476 46.5 C477.06 56.01, 472.63 61.13, 460.5 62 M460.5 62 C299.41 61.85, 137.85 61.09, 15.5 62 M460.5 62 C307.11 62.67, 154.22 62.71, 15.5 62 M15.5 62 C4.78 62.18, 0.87 58.12, 0 46.5 M15.5 62 C5.09 63.73, 0.22 55.04, 0 46.5 M0 46.5 C0.27 35.27, 0.56 21.71, 0 15.5 M0 46.5 C-0.46 34.42, 0.42 21.49, 0 15.5 M0 15.5 C-1.85 4.31, 4.03 1.1, 15.5 0 M0 15.5 C-0.83 4.46, 4.48 1.18, 15.5 0" stroke="#ededed" stroke-width="1" fill="none"></path></g><g transform="translate(193.9755859375 250) rotate(0 55.0244140625 12)"><text x="55.0244140625" y="17.400390625" font-family="Helvetica, sans-serif, Segoe UI Emoji" font-size="20px" fill="#ededed" text-anchor="middle" style="white-space: pre;" direction="ltr" dominant-baseline="alphabetic">Data access</text></g><g stroke-linecap="round"><g transform="translate(242.74078740528603 77) rotate(0 -0.10792095184825712 21.5)"><path d="M0 0 C-0.04 7.17, -0.18 35.83, -0.22 43 M0 0 C-0.04 7.17, -0.18 35.83, -0.22 43" stroke="#ededed" stroke-width="1" fill="none"></path></g><g transform="translate(242.74078740528603 77) rotate(0 -0.10792095184825712 21.5)"><path d="M-7.47 22.76 C-4.68 30.55, -1.89 38.34, -0.22 43 M-7.47 22.76 C-5.25 28.95, -3.03 35.14, -0.22 43" stroke="#ededed" stroke-width="1" fill="none"></path></g><g transform="translate(242.74078740528603 77) rotate(0 -0.10792095184825712 21.5)"><path d="M7.24 22.83 C4.37 30.59, 1.5 38.35, -0.22 43 M7.24 22.83 C4.96 29, 2.68 35.17, -0.22 43" stroke="#ededed" stroke-width="1" fill="none"></path></g></g><mask></mask><g stroke-linecap="round"><g transform="translate(239.42180534129966 190) rotate(0 0.3012105889858674 17.5)"><path d="M0 0 C0.1 5.83, 0.5 29.17, 0.6 35 M0 0 C0.1 5.83, 0.5 29.17, 0.6 35" stroke="#ededed" stroke-width="1" fill="none"></path></g><g transform="translate(239.42180534129966 190) rotate(0 0.3012105889858674 17.5)"><path d="M-5.67 18.66 C-4.21 22.44, -2.76 26.23, 0.6 35 M-5.67 18.66 C-3.52 24.25, -1.38 29.84, 0.6 35" stroke="#ededed" stroke-width="1" fill="none"></path></g><g transform="translate(239.42180534129966 190) rotate(0 0.3012105889858674 17.5)"><path d="M6.3 18.45 C4.98 22.29, 3.66 26.12, 0.6 35 M6.3 18.45 C4.35 24.11, 2.4 29.77, 0.6 35" stroke="#ededed" stroke-width="1" fill="none"></path></g></g><mask></mask></svg>