<svg version="1.1" xmlns="http://www.w3.org/2000/svg" viewBox="0 0 935.076199033927 695.242144092332" width="935.076199033927" height="695.242144092332" class="excalidraw-svg"><!-- svg-source:excalidraw --><metadata></metadata><defs><style class="style-fonts">
      </style></defs><rect x="0" y="0" width="935.076199033927" height="695.242144092332" fill="#121212"></rect><g stroke-linecap="round"><g transform="translate(246.64140908152513 10) rotate(0 204.48008641704735 337.621072046166)" fill-rule="evenodd"><path d="M0 0 C0 0, 0 0, 0 0 M0 0 C0 0, 0 0, 0 0 M-35.29 52.8 C-18.64 32.95, 0.62 11.37, 10.63 -0.03 M-35.29 52.8 C-19.52 33.44, -4.84 15.3, 10.63 -0.03 M-70.59 105.59 C-44.62 74.74, -18.02 44.96, 21.26 -0.07 M-70.59 105.59 C-38.87 70.62, -7.19 34, 21.26 -0.07 M-105.23 157.63 C-68.97 117.72, -35.19 77.42, 31.89 -0.1 M-105.23 157.63 C-63.37 109.73, -19.77 61.29, 31.89 -0.1 M-140.52 210.43 C-70.5 128.2, -0.12 46.61, 42.52 -0.14 M-140.52 210.43 C-97.87 162.68, -55.13 113.12, 42.52 -0.14 M-175.81 263.22 C-98.86 175.25, -23.39 87.58, 52.49 0.58 M-175.81 263.22 C-116.92 192.5, -56.41 122.85, 52.49 0.58 M-211.11 316.02 C-127.86 221, -43.7 124.77, 63.12 0.55 M-211.11 316.02 C-147.38 243.07, -83.36 168.74, 63.12 0.55 M-223.44 342.4 C-133.67 239.95, -44.42 139.17, 73.75 0.51 M-223.44 342.4 C-157.08 264.96, -89.95 187.79, 73.75 0.51 M-219.37 349.91 C-136.04 255.7, -54.68 160.49, 84.38 0.48 M-219.37 349.91 C-135.47 252.52, -51.26 155.88, 84.38 0.48 M-215.3 357.42 C-93.87 216.71, 28.84 75.72, 95.01 0.44 M-215.3 357.42 C-100.72 226.28, 12.21 96.78, 95.01 0.44 M-210.58 364.18 C-142.22 285.71, -72.54 206.31, 105.64 0.41 M-210.58 364.18 C-116.1 255.84, -22.75 147.99, 105.64 0.41 M-206.51 371.69 C-101.41 251.02, 5.17 128.11, 116.27 0.38 M-206.51 371.69 C-108.07 257.26, -8.88 143.59, 116.27 0.38 M-201.78 378.45 C-101.49 265.16, -2.36 150.28, 126.91 0.34 M-201.78 378.45 C-89.3 248.76, 22.36 120.06, 126.91 0.34 M-197.71 385.96 C-70.92 240.74, 53.93 96.52, 137.54 0.31 M-197.71 385.96 C-116.08 291.99, -34.61 197.93, 137.54 0.31 M-193.64 393.48 C-59.59 239.97, 74.57 86.01, 147.51 1.03 M-193.64 393.48 C-104.41 291.31, -16.44 190.02, 147.51 1.03 M-188.92 400.23 C-91.59 291.07, 4.06 181.97, 158.14 0.99 M-188.92 400.23 C-113.2 315.64, -38.89 230.01, 158.14 0.99 M-184.85 407.75 C-50.42 253.5, 82.93 100.39, 168.77 0.96 M-184.85 407.75 C-109.99 320.95, -34.61 234.69, 168.77 0.96 M-180.12 414.5 C-57.47 272.57, 64.69 132.16, 179.4 0.92 M-180.12 414.5 C-98.4 322.7, -17.69 229.62, 179.4 0.92 M-176.05 422.02 C-78.98 312.46, 16.51 202.83, 190.03 0.89 M-176.05 422.02 C-40.42 266.15, 96.84 109.12, 190.03 0.89 M-171.98 429.53 C-45.55 282.41, 83.14 135.89, 200.66 0.85 M-171.98 429.53 C-49 287.34, 74.66 144.58, 200.66 0.85 M-167.26 436.29 C-66.61 320.27, 33.18 203.32, 211.29 0.82 M-167.26 436.29 C-85.25 343.46, -4.12 249.63, 211.29 0.82 M-163.19 443.8 C-74.13 339.61, 14.38 237.27, 221.92 0.79 M-163.19 443.8 C-24.17 284.46, 113.19 125.87, 221.92 0.79 M-159.12 451.31 C-29.45 300.63, 100.92 150.18, 231.89 1.51 M-159.12 451.31 C-70.61 349.94, 16.08 250.34, 231.89 1.51 M-154.39 458.07 C-70.13 361.55, 14.76 264.36, 242.52 1.47 M-154.39 458.07 C-6.76 288, 142.26 116.44, 242.52 1.47 M-150.32 465.58 C-63.49 363.27, 24.31 261.72, 253.15 1.44 M-150.32 465.58 C4.54 285.13, 161.55 105.12, 253.15 1.44 M-145.6 472.34 C-36.01 347.35, 71.9 221.71, 263.78 1.4 M-145.6 472.34 C-54.63 370.17, 34.99 267.19, 263.78 1.4 M-141.53 479.85 C22.3 291.7, 185.5 102.81, 274.41 1.37 M-141.53 479.85 C-13.87 330.6, 115.56 182.59, 274.41 1.37 M-137.46 487.37 C-39.69 375.04, 59.8 260.77, 285.04 1.33 M-137.46 487.37 C22.6 303.04, 182.48 118.73, 285.04 1.33 M-132.73 494.12 C18.72 319.09, 171.82 143.91, 295.67 1.3 M-132.73 494.12 C-4.74 345.86, 124.04 198.42, 295.67 1.3 M-128.66 501.64 C17.51 334.71, 162.14 167.97, 306.3 1.26 M-128.66 501.64 C3.28 349.95, 135.27 197.52, 306.3 1.26 M-124.59 509.15 C12.38 353.49, 149.01 196.06, 316.93 1.23 M-124.59 509.15 C-3.66 371.81, 115.83 235.3, 316.93 1.23 M-119.87 515.91 C-12 393.35, 94.92 270.24, 326.91 1.95 M-119.87 515.91 C15.9 359.32, 151.56 202.41, 326.91 1.95 M-115.8 523.42 C7.66 378.32, 133.26 235.13, 337.54 1.92 M-115.8 523.42 C-3.77 396.31, 107.2 268.16, 337.54 1.92 M-111.07 530.18 C-17.56 423.53, 73.99 316.85, 348.17 1.88 M-111.07 530.18 C-1.33 403.39, 110.27 275.66, 348.17 1.88 M-107 537.69 C-12.64 429.96, 82.74 322.27, 358.8 1.85 M-107 537.69 C10.36 401.54, 129.84 264.07, 358.8 1.85 M-102.93 545.2 C51.53 364.94, 208.76 184.71, 369.43 1.81 M-102.93 545.2 C11.79 413.95, 124.6 283.13, 369.43 1.81 M-98.21 551.96 C23.41 412.44, 142.92 274.66, 380.06 1.78 M-98.21 551.96 C15.98 419.23, 131.83 286.8, 380.06 1.78 M-94.14 559.47 C58.57 387.23, 208.53 214.52, 390.69 1.74 M-94.14 559.47 C87.61 347.71, 271.22 136.16, 390.69 1.74 M-90.07 566.99 C54.89 398.41, 198.8 233.29, 401.32 1.71 M-90.07 566.99 C78.6 368.74, 249.04 172.46, 401.32 1.71 M-85.34 573.74 C56.44 408.94, 197.4 246.17, 409.33 4.69 M-85.34 573.74 C113.1 349.53, 310.01 123.41, 409.33 4.69 M-81.27 581.26 C31.88 451.91, 144.18 321.57, 413.39 12.2 M-81.27 581.26 C34.03 449.1, 147.81 318.05, 413.39 12.2 M-76.55 588.01 C109.94 372.15, 295.64 159.02, 418.12 18.96 M-76.55 588.01 C116.55 367.13, 309.89 145.19, 418.12 18.96 M-72.48 595.53 C57.25 445.5, 188.73 295.24, 422.85 25.72 M-72.48 595.53 C101.93 396.35, 276.75 195.59, 422.85 25.72 M-68.41 603.04 C108.32 395.73, 288.28 188.16, 427.57 32.48 M-68.41 603.04 C85.15 424.48, 240.89 245.68, 427.57 32.48 M-63.68 609.8 C50.74 477.18, 165.35 344.9, 432.3 39.24 M-63.68 609.8 C74.84 449.09, 215.49 287.93, 432.3 39.24 M-59.61 617.31 C135.11 393.89, 330.03 169.85, 437.02 45.99 M-59.61 617.31 C79.2 458.68, 216.38 300.95, 437.02 45.99 M-55.54 624.82 C80.63 466.45, 216.38 309.35, 441.75 52.75 M-55.54 624.82 C41.84 510.02, 141.9 395.11, 441.75 52.75 M-50.82 631.58 C88.73 467.77, 230.82 306.88, 446.47 59.51 M-50.82 631.58 C71.27 489.42, 195.22 346.9, 446.47 59.51 M-46.75 639.09 C132.41 434.08, 309.97 230.62, 451.2 66.27 M-46.75 639.09 C147.64 415.77, 341.95 192.25, 451.2 66.27 M-42.02 645.85 C69.86 517.16, 181.31 391.61, 455.92 73.03 M-42.02 645.85 C136.5 440.55, 315.69 234.95, 455.92 73.03 M-37.95 653.36 C142.95 447, 321.05 241.23, 460.65 79.78 M-37.95 653.36 C133.09 456.27, 306.59 257.25, 460.65 79.78 M-33.89 660.88 C94.12 511.47, 221.15 365.04, 465.38 86.54 M-33.89 660.88 C160.78 434.28, 356.2 209.48, 465.38 86.54 M-29.16 667.63 C159.42 451.58, 347.28 234.08, 470.1 93.3 M-29.16 667.63 C105.97 509.98, 241.77 354.8, 470.1 93.3 M-25.09 675.15 C78.56 557.83, 182.4 437.26, 474.83 100.06 M-25.09 675.15 C121.55 509.23, 266.66 342.07, 474.83 100.06 M-15.12 675.87 C96.63 546.45, 207.85 417.05, 478.9 107.57 M-15.12 675.87 C168.75 464.8, 352.97 253.05, 478.9 107.57 M-4.49 675.83 C173.07 472.87, 347.62 270.89, 483.62 114.33 M-4.49 675.83 C119.33 533.23, 243.62 390.96, 483.62 114.33 M6.14 675.8 C169.42 486.18, 332.38 297.33, 488.35 121.09 M6.14 675.8 C185.8 470.24, 363.98 265.2, 488.35 121.09 M16.77 675.76 C192.12 473.9, 367 272.48, 493.07 127.84 M16.77 675.76 C131.69 543.13, 247.18 410.11, 493.07 127.84 M27.4 675.73 C151.09 534.1, 275.92 390.51, 497.8 134.6 M27.4 675.73 C207.15 466.84, 387.76 258.66, 497.8 134.6 M38.03 675.69 C196.94 492.85, 357.71 306.78, 502.52 141.36 M38.03 675.69 C164.08 530.3, 290.23 385.07, 502.52 141.36 M48.66 675.66 C218.83 480.84, 387.45 287.12, 507.25 148.12 M48.66 675.66 C165.11 544.54, 280.47 411.4, 507.25 148.12 M59.29 675.63 C235.03 475.77, 410.24 273.45, 511.98 154.88 M59.29 675.63 C203.49 511.78, 346.76 346.52, 511.98 154.88 M69.92 675.59 C219.11 505.81, 367.24 334.47, 516.7 161.63 M69.92 675.59 C166.25 568.5, 260.44 460.11, 516.7 161.63 M80.55 675.56 C188.6 552.74, 295.37 428.54, 521.43 168.39 M80.55 675.56 C171.24 568.98, 263.03 463.23, 521.43 168.39 M91.18 675.52 C205.45 545.71, 317.04 416.44, 526.15 175.15 M91.18 675.52 C183.21 569.69, 275.41 463.18, 526.15 175.15 M101.81 675.49 C206.64 557.09, 308.41 438.43, 530.88 181.91 M101.81 675.49 C246.64 506.84, 391.51 340.41, 530.88 181.91 M112.44 675.45 C267.37 500.33, 420.63 323.97, 535.6 188.66 M112.44 675.45 C199.14 571.92, 287.97 469.85, 535.6 188.66 M123.08 675.42 C273.04 502.4, 423.49 328.96, 540.33 195.42 M123.08 675.42 C269.31 506.33, 415.55 338.16, 540.33 195.42 M133.71 675.38 C250.22 541.9, 365.46 408.69, 544.4 202.94 M133.71 675.38 C245.37 549.61, 355.35 422.54, 544.4 202.94 M144.34 675.35 C291.11 507.12, 436.5 339.52, 549.12 209.69 M144.34 675.35 C245.45 556.81, 347.61 438.91, 549.12 209.69 M154.97 675.31 C301.43 506.72, 448.11 338.28, 553.85 216.45 M154.97 675.31 C260.72 555.47, 363.98 435.35, 553.85 216.45 M165.6 675.28 C269.16 554.08, 374.99 432.71, 558.57 223.21 M165.6 675.28 C286.34 534.64, 407.9 394.91, 558.57 223.21 M176.23 675.25 C328.16 503.75, 478.29 329.78, 563.3 229.97 M176.23 675.25 C317.47 512.64, 458.75 349.91, 563.3 229.97 M186.86 675.21 C289.09 556.96, 391.95 437.63, 568.03 236.72 M186.86 675.21 C314.27 526.82, 443.01 377.84, 568.03 236.72 M197.49 675.18 C285.85 576.2, 371.92 476.28, 572.75 243.48 M197.49 675.18 C335.97 515.28, 474.08 355.92, 572.75 243.48 M208.12 675.14 C290.92 578.81, 374.41 483.07, 577.48 250.24 M208.12 675.14 C290.11 580.73, 371.5 487.42, 577.48 250.24 M218.75 675.11 C289.4 592.75, 362.57 508.17, 582.2 257 M218.75 675.11 C350.86 520.41, 484.83 366.31, 582.2 257 M229.38 675.07 C359.26 525.59, 486.81 379.12, 586.93 263.76 M229.38 675.07 C368.5 514.78, 508.68 353.36, 586.93 263.76 M240.01 675.04 C353.08 546.05, 462.59 419.08, 591.65 270.51 M240.01 675.04 C333.35 567.44, 426.51 459.93, 591.65 270.51 M250.64 675 C375.58 530.11, 499.99 387.26, 596.38 277.27 M250.64 675 C372.09 536.08, 492.51 397.17, 596.38 277.27 M261.27 674.97 C334.51 591.33, 407.41 506.81, 601.1 284.03 M261.27 674.97 C352.36 569.3, 445.77 462.52, 601.1 284.03 M271.9 674.94 C370.17 562.87, 467.24 450.85, 605.83 290.79 M271.9 674.94 C387.06 543.72, 500.8 413.53, 605.83 290.79 M282.53 674.9 C363.25 579.36, 446.58 484.59, 609.9 298.3 M282.53 674.9 C350.55 596.93, 418.81 518.88, 609.9 298.3 M293.16 674.87 C381.96 573.76, 470.32 473.24, 614.63 305.06 M293.16 674.87 C382.62 573.5, 472.29 470.31, 614.63 305.06 M303.79 674.83 C368.46 602.08, 433.16 528.32, 619.35 311.82 M303.79 674.83 C427.41 530.18, 552.32 386.78, 619.35 311.82 M314.42 674.8 C380.34 600.27, 445.07 525.14, 624.08 318.57 M314.42 674.8 C386.01 592.61, 456.84 510.4, 624.08 318.57 M325.05 674.76 C433.11 551.72, 539.12 426.53, 628.8 325.33 M325.05 674.76 C438.02 545.97, 551.38 415.13, 628.8 325.33 M336.33 673.97 C411.06 589.12, 485.53 503.89, 633.53 332.09 M336.33 673.97 C433.08 564.24, 528.94 454.08, 633.53 332.09 M346.96 673.94 C405.03 606.21, 462.8 538.42, 623.82 355.45 M346.96 673.94 C452.31 554.05, 557.52 432.33, 623.82 355.45 M357.59 673.9 C438.37 580.19, 519.4 487.45, 604.93 389.38 M357.59 673.9 C417.46 604.26, 477.17 536.68, 604.93 389.38 M368.22 673.87 C414.43 620.91, 457.99 568.65, 586.69 422.55 M368.22 673.87 C428.23 606.76, 486.32 538.78, 586.69 422.55 M378.85 673.84 C423.12 624, 466.75 571.35, 567.8 456.48 M378.85 673.84 C440.14 604.39, 500.94 535.51, 567.8 456.48 M389.48 673.8 C448.48 604.48, 507.62 538.07, 549.56 489.65 M389.48 673.8 C453.68 599.41, 518.11 527.7, 549.56 489.65 M400.11 673.77 C443.62 622.24, 490.59 572.8, 530.67 523.58 M400.11 673.77 C432.65 634.15, 467.76 595.72, 530.67 523.58 M410.74 673.73 C436.17 641.31, 466.06 610.6, 512.43 556.75 M410.74 673.73 C442.65 635.35, 476.06 597.16, 512.43 556.75 M421.37 673.7 C440.03 650.52, 461.13 631.73, 493.54 590.68 M421.37 673.7 C437.74 653.69, 454.35 634.53, 493.54 590.68 M432 673.66 C442.52 661.33, 456.06 645.65, 475.3 623.85 M432 673.66 C446.12 656.34, 460.47 641.36, 475.3 623.85 M442.63 673.63 C445.21 670.18, 449.04 668.61, 456.41 657.78 M442.63 673.63 C447.79 668.22, 452.55 662.92, 456.41 657.78" stroke="#33383d" stroke-width="1" fill="none"></path><path d="M0 0 C-65.16 97.28, -129.18 193.51, -226.18 338.63 M-226.18 338.63 C-177.8 421.63, -126.43 505.68, -25.13 675.24 M-25.13 675.24 C94.6 675.15, 215.64 675.23, 447.8 673.23 M447.8 673.23 C517.15 546.84, 587.72 419.27, 635.14 334.6 M635.14 334.6 C589.36 265.67, 543.09 196.83, 406.68 2.02 M406.68 2.02 C294.99 2.73, 183.17 2.54, 0 0 M0 0 C0 0, 0 0, 0 0" stroke="#ededed" stroke-width="2.5" fill="none" stroke-dasharray="8 10"></path></g></g><mask></mask><g stroke-linecap="round"><g transform="translate(450.6392317043965 11.46890650273599) rotate(0 3.392012244835499 336.023070454225)"><path d="M0.45 0.69 C1.43 112.53, 5.45 559.57, 6.33 671.36" stroke="#ededed" stroke-width="2.5" fill="none" stroke-dasharray="8 10"></path></g></g><mask></mask><g stroke-linecap="round"><g transform="translate(366.18994249455864 191.95292570570018) rotate(0 89.5 167.1958095860125)" fill-rule="evenodd"><path d="M-1.91 -0.39 L-97.55 167.63 L-9.3 336.51 L197.2 335.07 L277.52 167.01 L176.78 -0.39 L-1.12 -0.6" stroke="none" stroke-width="0" fill="#302200" fill-rule="evenodd"></path><path d="M0 0 C-33.55 56.59, -66.89 112.52, -99 168 M0 0 C-24.21 43.78, -49.16 85.96, -99 168 M-99 168 C-67.7 222.54, -38.54 277.28, -11 335 M-99 168 C-69.81 224.34, -39.42 281.69, -11 335 M-11 335 C59.75 334.55, 132.34 332.88, 196 334 M-11 335 C53.15 333.14, 117.03 333.14, 196 334 M196 334 C222.73 281.33, 246.58 232.9, 278 166 M196 334 C215.82 290.76, 237.46 247.57, 278 166 M278 166 C254.06 125.32, 227.72 81.57, 178 1 M278 166 C255.17 129.56, 232.74 93.34, 178 1 M178 1 C119.98 -1.1, 66.05 -0.81, 0 0 M178 1 C130.52 0.45, 81.49 -0.54, 0 0 M0 0 C0 0, 0 0, 0 0 M0 0 C0 0, 0 0, 0 0" stroke="#ededed" stroke-width="1" fill="none"></path></g></g><mask></mask><g transform="translate(409.18994249455864 347.4529257056993) rotate(0 48.9208984375 12)"><text x="0" y="17.400390625" font-family="Helvetica, sans-serif, Segoe UI Emoji" font-size="20px" fill="#ededed" text-anchor="start" style="white-space: pre;" direction="ltr" dominant-baseline="alphabetic">Application</text></g><g stroke-linecap="round" transform="translate(269.302915237884 265.51733202789273) rotate(300.2756897768884 67 23)"><path d="M11.5 0 C46.7 -2.28, 79.24 -4.2, 122.5 0 C129.46 2.61, 133.34 6.88, 134 11.5 C133.39 21.96, 132.04 26.28, 134 34.5 C131.98 41.08, 128.21 47.56, 122.5 46 C86.31 46.82, 52.92 45.68, 11.5 46 C3.6 44.66, -1.3 44, 0 34.5 C-0.68 22.55, 0.47 15.49, 0 11.5 C-1.4 0.35, 5.91 -1.7, 11.5 0" stroke="none" stroke-width="0" fill="#121212"></path><path d="M11.5 0 C41.49 2.6, 74.29 -0.21, 122.5 0 M11.5 0 C48.02 0.96, 84.87 1.34, 122.5 0 M122.5 0 C130 1.32, 133.01 4.61, 134 11.5 M122.5 0 C130.59 -1.97, 131.87 1.59, 134 11.5 M134 11.5 C135.59 18.76, 133.44 24.81, 134 34.5 M134 11.5 C133.38 20, 133.82 26.78, 134 34.5 M134 34.5 C132.85 41.17, 130.26 44.39, 122.5 46 M134 34.5 C133.85 42.63, 128.36 45.17, 122.5 46 M122.5 46 C82.69 47.34, 43.66 48.05, 11.5 46 M122.5 46 C80.77 46.16, 40.51 45.85, 11.5 46 M11.5 46 C4.53 44.43, 1.44 41.49, 0 34.5 M11.5 46 C4.98 46.98, 0.48 43.87, 0 34.5 M0 34.5 C-1.69 27.07, 0.51 20.42, 0 11.5 M0 34.5 C0.52 28.67, -0.5 21.74, 0 11.5 M0 11.5 C0.42 4.53, 5.65 -1.26, 11.5 0 M0 11.5 C-0.96 2.6, 2.79 0.15, 11.5 0" stroke="#ededed" stroke-width="1" fill="none"></path></g><g transform="translate(286.052915237884 278.9173320278927) rotate(300.2756897768884 50.25 9.599999999999994)"><text x="50.25" y="13.9203125" font-family="Helvetica, sans-serif, Segoe UI Emoji" font-size="16px" fill="#ededed" text-anchor="middle" style="white-space: pre;" direction="ltr" dominant-baseline="alphabetic">placing orders</text></g><g stroke-linecap="round" transform="translate(520.079963332646 401.9038700137153) rotate(294.9439052634246 64 24.200000000000003)"><path d="M12.1 0 C38.18 4.39, 65.01 4.83, 115.9 0 C126.69 2.15, 129.93 3.18, 128 12.1 C125.72 19.5, 125.77 30.63, 128 36.3 C128.73 41.01, 125.17 47.76, 115.9 48.4 C84.08 46.55, 51.42 49.72, 12.1 48.4 C7.01 45.86, -1.12 43.4, 0 36.3 C-1.42 27.68, 2.05 24.32, 0 12.1 C1.96 1.64, 4.85 -1.31, 12.1 0" stroke="none" stroke-width="0" fill="#121212"></path><path d="M12.1 0 C53.58 0.35, 92.91 1.13, 115.9 0 M12.1 0 C46.72 -0.09, 81 -0.36, 115.9 0 M115.9 0 C124.33 -1.71, 126.15 2.08, 128 12.1 M115.9 0 C123.19 -0.44, 129.01 5.91, 128 12.1 M128 12.1 C128.95 20.31, 128.15 28.24, 128 36.3 M128 12.1 C127.39 19.91, 128.01 27.91, 128 36.3 M128 36.3 C127.87 44.77, 122.4 47.68, 115.9 48.4 M128 36.3 C129.34 43.44, 126.16 48.33, 115.9 48.4 M115.9 48.4 C84.76 48.06, 49.92 48.45, 12.1 48.4 M115.9 48.4 C79.07 47.9, 42.26 48.34, 12.1 48.4 M12.1 48.4 C5.03 49.25, 0.41 45.85, 0 36.3 M12.1 48.4 C4.39 46.3, -2.07 42.18, 0 36.3 M0 36.3 C-0.64 29.35, -0.77 23.27, 0 12.1 M0 36.3 C0.33 28.48, 1.03 19.34, 0 12.1 M0 12.1 C-0.84 2.96, 3.13 0.13, 12.1 0 M0 12.1 C0.34 2.08, 4.91 0.16, 12.1 0" stroke="#ededed" stroke-width="1" fill="none"></path></g><g transform="translate(541.833869582646 406.9038700137153) rotate(294.9439052634246 42.24609375 19.200000000000003)"><text x="42.24609375" y="13.9203125" font-family="Helvetica, sans-serif, Segoe UI Emoji" font-size="16px" fill="#ededed" text-anchor="middle" style="white-space: pre;" direction="ltr" dominant-baseline="alphabetic">notifications</text><text x="42.24609375" y="33.1203125" font-family="Helvetica, sans-serif, Segoe UI Emoji" font-size="16px" fill="#ededed" text-anchor="middle" style="white-space: pre;" direction="ltr" dominant-baseline="alphabetic">(recipient)</text></g><g stroke-linecap="round" transform="translate(519.079963332646 262.9038700137153) rotate(58.815025341261666 55 24.200000000000003)"><path d="M12.1 0 C46.78 0.84, 77.95 -2.17, 97.9 0 C107.79 -2.2, 107.49 2.02, 110 12.1 C110.49 15.28, 110.96 24.52, 110 36.3 C110.16 45.88, 104.98 48.17, 97.9 48.4 C78.33 46.64, 51.68 48.22, 12.1 48.4 C0.88 48.58, -1.4 42.97, 0 36.3 C1.71 28.99, 0.56 25.15, 0 12.1 C0.32 5.46, 4.12 -2.84, 12.1 0" stroke="none" stroke-width="0" fill="#121212"></path><path d="M12.1 0 C37.98 1.69, 63.94 -0.44, 97.9 0 M12.1 0 C43.69 -1.19, 73.98 -1.31, 97.9 0 M97.9 0 C105.29 -0.38, 110.88 5.66, 110 12.1 M97.9 0 C107.27 -0.6, 111.22 5.2, 110 12.1 M110 12.1 C110.89 18.58, 108.32 24.43, 110 36.3 M110 12.1 C109.95 18.36, 109.23 23.85, 110 36.3 M110 36.3 C111.16 43.56, 107.87 48.34, 97.9 48.4 M110 36.3 C110.33 45.12, 107.11 50.1, 97.9 48.4 M97.9 48.4 C76.99 50.2, 54.3 48.9, 12.1 48.4 M97.9 48.4 C79.41 48.53, 60.12 48.85, 12.1 48.4 M12.1 48.4 C4.34 46.58, -1.8 42.47, 0 36.3 M12.1 48.4 C3.83 48.74, 0.49 43.67, 0 36.3 M0 36.3 C0.84 27.94, -0.62 21.98, 0 12.1 M0 36.3 C-0.64 27.66, -0.67 20.17, 0 12.1 M0 12.1 C0.3 2.33, 4.8 0.14, 12.1 0 M0 12.1 C-0.96 2.67, 1.84 -0.45, 12.1 0" stroke="#ededed" stroke-width="1" fill="none"></path></g><g transform="translate(533.626838332646 267.9038700137153) rotate(58.815025341261666 40.453125 19.200000000000003)"><text x="40.453125" y="13.9203125" font-family="Helvetica, sans-serif, Segoe UI Emoji" font-size="16px" fill="#ededed" text-anchor="middle" style="white-space: pre;" direction="ltr" dominant-baseline="alphabetic">orders</text><text x="40.453125" y="33.1203125" font-family="Helvetica, sans-serif, Segoe UI Emoji" font-size="16px" fill="#ededed" text-anchor="middle" style="white-space: pre;" direction="ltr" dominant-baseline="alphabetic">(repository)</text></g><g stroke-linecap="round" transform="translate(267.079963332646 409.9038700137153) rotate(62.300527191945065 64 24.200000000000003)"><path d="M12.1 0 C51.26 -1.76, 84.28 -1.57, 115.9 0 C122.88 -1.96, 129.56 4.76, 128 12.1 C128.3 18.61, 127.16 21.88, 128 36.3 C126.66 43.06, 125.8 51.38, 115.9 48.4 C88.94 48.08, 66.88 46.5, 12.1 48.4 C0.55 50.47, -1.7 46.33, 0 36.3 C0.23 32.07, -0.01 22.15, 0 12.1 C-0.05 0.98, 2.83 -1.41, 12.1 0" stroke="none" stroke-width="0" fill="#121212"></path><path d="M12.1 0 C54.81 -0.9, 95.66 0.45, 115.9 0 M12.1 0 C34.03 0.82, 57.08 1.83, 115.9 0 M115.9 0 C125.1 -0.52, 129.06 5.05, 128 12.1 M115.9 0 C123.47 0.24, 126.7 5.03, 128 12.1 M128 12.1 C126.8 19.13, 126.18 25.85, 128 36.3 M128 12.1 C128.39 19.44, 128.76 27.56, 128 36.3 M128 36.3 C128.28 45.02, 124.96 49.88, 115.9 48.4 M128 36.3 C127.02 43.49, 123.43 49.74, 115.9 48.4 M115.9 48.4 C72.81 50.21, 32.18 49.76, 12.1 48.4 M115.9 48.4 C80.49 48.26, 43.87 48.22, 12.1 48.4 M12.1 48.4 C3.85 48.7, 0.42 43.76, 0 36.3 M12.1 48.4 C4.14 47.56, 1.22 45.23, 0 36.3 M0 36.3 C0.78 32.06, -1.17 23.33, 0 12.1 M0 36.3 C0.26 29.49, 0.49 24.44, 0 12.1 M0 12.1 C-0.84 2.85, 2.13 -0.39, 12.1 0 M0 12.1 C1.67 3.61, 5.98 1.74, 12.1 0" stroke="#ededed" stroke-width="1" fill="none"></path></g><g transform="translate(295.943244582646 414.9038700137153) rotate(62.300527191945065 35.13671875 19.200000000000003)"><text x="35.13671875" y="13.9203125" font-family="Helvetica, sans-serif, Segoe UI Emoji" font-size="16px" fill="#ededed" text-anchor="middle" style="white-space: pre;" direction="ltr" dominant-baseline="alphabetic">managing</text><text x="35.13671875" y="33.1203125" font-family="Helvetica, sans-serif, Segoe UI Emoji" font-size="16px" fill="#ededed" text-anchor="middle" style="white-space: pre;" direction="ltr" dominant-baseline="alphabetic">products</text></g><g stroke-linecap="round" transform="translate(173.90221998130255 163.62610102432154) rotate(30.68038445778768 65.5 28)"><path d="M14 0 C37.51 -0.92, 64.75 1.77, 117 0 C122.98 1.2, 130.36 4.82, 131 14 C129.52 22.27, 132.69 36.13, 131 42 C128.46 50.21, 125.37 52.85, 117 56 C82.11 57.35, 52.48 57.24, 14 56 C2.28 56.81, -1.31 51.66, 0 42 C-0.06 29.44, -1.21 21.57, 0 14 C-3.1 5.11, 6.55 -2.67, 14 0" stroke="none" stroke-width="0" fill="#122700"></path><path d="M14 0 C38.11 -2.04, 63.7 -0.86, 117 0 M14 0 C43.51 -1.1, 72.4 -0.33, 117 0 M117 0 C125.9 0.21, 129.87 5.53, 131 14 M117 0 C126.03 -1.96, 129.67 3.52, 131 14 M131 14 C131.18 20.96, 130.05 32.21, 131 42 M131 14 C131.41 21.59, 131.77 29.27, 131 42 M131 42 C130.15 50.57, 125.87 57.16, 117 56 M131 42 C133.3 51.96, 127.14 54.19, 117 56 M117 56 C79.52 56.93, 41.82 56.82, 14 56 M117 56 C95.4 55.17, 74.19 54.72, 14 56 M14 56 C4.76 55.27, 1.06 52.08, 0 42 M14 56 C3.53 55.19, 0.48 52.13, 0 42 M0 42 C-0.89 30.15, 0.31 20.4, 0 14 M0 42 C-0.53 35.39, -1.06 29.76, 0 14 M0 14 C1.45 4.3, 6.36 1.51, 14 0 M0 14 C1.37 5.9, 4.12 1.16, 14 0" stroke="#ededed" stroke-width="1" fill="none"></path></g><g transform="translate(182.94128248130255 182.02610102432152) rotate(30.68038445778768 56.4609375 9.599999999999994)"><text x="56.4609375" y="13.9203125" font-family="Helvetica, sans-serif, Segoe UI Emoji" font-size="16px" fill="#ededed" text-anchor="middle" style="white-space: pre;" direction="ltr" dominant-baseline="alphabetic">REST controller</text></g><g stroke-linecap="round" transform="translate(117.0219487539971 411.0733675620386) rotate(351.2091614899079 66 28)"><path d="M14 0 C36.18 0.82, 64.43 -0.22, 118 0 C128.84 -0.99, 131.77 3.33, 132 14 C129.71 20.26, 131.29 25.62, 132 42 C132.18 49.94, 125.94 52.52, 118 56 C78.42 57.83, 42.31 57.34, 14 56 C6.09 56.09, -2.84 51.28, 0 42 C-2.93 36.42, 2.05 27.27, 0 14 C2.27 6.14, 6.94 2.42, 14 0" stroke="none" stroke-width="0" fill="#122700"></path><path d="M14 0 C35.19 1.23, 58.78 1.49, 118 0 M14 0 C42.28 -0.42, 70.43 -0.09, 118 0 M118 0 C127.07 -1.7, 130.85 3.67, 132 14 M118 0 C127.44 -1.86, 131.85 5.13, 132 14 M132 14 C131.09 22.11, 131.84 26.69, 132 42 M132 14 C131.71 22.94, 131.91 33.22, 132 42 M132 42 C134 51.88, 128.03 54.43, 118 56 M132 42 C133.66 50.55, 128.48 56.98, 118 56 M118 56 C82.82 54.36, 49.39 55.98, 14 56 M118 56 C85.29 55.32, 53.03 56.06, 14 56 M14 56 C3.68 55.29, 0.42 52.03, 0 42 M14 56 C6.76 54.55, -0.96 50.1, 0 42 M0 42 C-1.72 35.63, 0.12 26.89, 0 14 M0 42 C0.99 35.08, 1.11 29.28, 0 14 M0 14 C1.2 5.74, 4.19 1.01, 14 0 M0 14 C-1.41 3.06, 3.38 -0.69, 14 0" stroke="#ededed" stroke-width="1" fill="none"></path></g><g transform="translate(133.6742925039971 429.47336756203856) rotate(351.2091614899079 49.34765625 9.600000000000001)"><text x="49.34765625" y="13.9203125" font-family="Helvetica, sans-serif, Segoe UI Emoji" font-size="16px" fill="#ededed" text-anchor="middle" style="white-space: pre;" direction="ltr" dominant-baseline="alphabetic">GUI controller</text></g><g stroke-linecap="round" transform="translate(616.9108248533039 166.96806126898355) rotate(327.3287856669776 65.5 28)"><path d="M14 0 C49.84 -1.07, 82.43 -1.42, 117 0 C125.03 1.83, 133.98 2.12, 131 14 C131.04 20.13, 129.47 25.57, 131 42 C133.07 49.64, 128.29 53.61, 117 56 C85.2 56.25, 47.71 56.12, 14 56 C1.62 54.8, -1.41 48.24, 0 42 C2.01 34.72, 2.01 26.92, 0 14 C2.55 7.11, 3.61 -2.02, 14 0" stroke="none" stroke-width="0" fill="#122700"></path><path d="M14 0 C48.92 0.47, 85.89 -1.02, 117 0 M14 0 C45.85 -1.3, 77.38 -0.94, 117 0 M117 0 C126.42 -1.61, 130.87 5.07, 131 14 M117 0 C124.53 -0.83, 132.34 3.74, 131 14 M131 14 C131.65 26.07, 132.47 35.28, 131 42 M131 14 C131.93 21.61, 131.28 27.88, 131 42 M131 42 C132.44 50.65, 127.33 56.85, 117 56 M131 42 C131.48 53.04, 126.69 53.9, 117 56 M117 56 C95.68 56.33, 73.15 56, 14 56 M117 56 C89.38 56.03, 62.95 56.73, 14 56 M14 56 C6.49 54.74, -0.84 50.26, 0 42 M14 56 C3.63 56.15, 0.34 49.38, 0 42 M0 42 C-1.21 30.62, -0.41 24.51, 0 14 M0 42 C0.36 34.65, -0.48 26.73, 0 14 M0 14 C-1.22 3.27, 3.55 -0.6, 14 0 M0 14 C-1.25 5.67, 5.13 -2.14, 14 0" stroke="#ededed" stroke-width="1" fill="none"></path></g><g transform="translate(650.8405123533039 175.76806126898356) rotate(327.3287856669776 31.5703125 19.19999999999999)"><text x="31.5703125" y="13.9203125" font-family="Helvetica, sans-serif, Segoe UI Emoji" font-size="16px" fill="#ededed" text-anchor="middle" style="white-space: pre;" direction="ltr" dominant-baseline="alphabetic">Postgres</text><text x="31.5703125" y="33.1203125" font-family="Helvetica, sans-serif, Segoe UI Emoji" font-size="16px" fill="#ededed" text-anchor="middle" style="white-space: pre;" direction="ltr" dominant-baseline="alphabetic">adapter</text></g><g stroke-linecap="round"><g transform="translate(300.0221578053479 224.5921252045673) rotate(4.134611657818539 16.96695223722122 7.463773434546596)"><path d="M0 0 C11.98 5.27, 23.95 10.54, 33.93 14.93" stroke="#ededed" stroke-width="1.5" fill="none" stroke-dasharray="8 9"></path></g><g transform="translate(300.0221578053479 224.5921252045673) rotate(4.134611657818539 16.96695223722122 7.463773434546596)"><path d="M15.44 13.72 C21.96 14.14, 28.49 14.57, 33.93 14.93" stroke="#ededed" stroke-width="1.5" fill="none"></path></g><g transform="translate(300.0221578053479 224.5921252045673) rotate(4.134611657818539 16.96695223722122 7.463773434546596)"><path d="M20.54 2.11 C25.27 6.63, 29.99 11.16, 33.93 14.93" stroke="#ededed" stroke-width="1.5" fill="none"></path></g></g><mask></mask><g stroke-linecap="round"><g transform="translate(253.1876495724341 430.81384885786247) rotate(4.39687667608063 19.886900191043424 -5.524753461699248)"><path d="M0 0 C11.08 -3.08, 22.15 -6.15, 39.77 -11.05" stroke="#ededed" stroke-width="1.5" fill="none" stroke-dasharray="8 9"></path></g><g transform="translate(253.1876495724341 430.81384885786247) rotate(4.39687667608063 19.886900191043424 -5.524753461699248)"><path d="M22.98 0.94 C27.65 -2.4, 32.33 -5.74, 39.77 -11.05" stroke="#ededed" stroke-width="1.5" fill="none"></path></g><g transform="translate(253.1876495724341 430.81384885786247) rotate(4.39687667608063 19.886900191043424 -5.524753461699248)"><path d="M19.2 -12.66 C24.93 -12.21, 30.66 -11.76, 39.77 -11.05" stroke="#ededed" stroke-width="1.5" fill="none"></path></g></g><mask></mask><g stroke-linecap="round" transform="translate(658.0290613189909 249.2399261895489) rotate(349.27028931707304 65.5 28)"><path d="M14 0 C49.07 1.67, 87.94 4.19, 117 0 C124.07 -1.51, 129.07 3.04, 131 14 C132.45 22.84, 129.56 29.04, 131 42 C127.57 50.63, 128.94 55.34, 117 56 C79.3 56.25, 39.56 54.9, 14 56 C2.16 53.98, -1.08 49.37, 0 42 C1.1 31.74, 0.05 24.28, 0 14 C-0.99 4.44, 3.33 -1.3, 14 0" stroke="none" stroke-width="0" fill="#122700"></path><path d="M14 0 C37.37 -1.02, 63.15 0.23, 117 0 M117 0 C124.72 -0.13, 131.4 3.1, 131 14 M131 14 C133.07 21.33, 131.45 29.44, 131 42 M131 42 C132 52.81, 125.48 55.24, 117 56 M117 56 C89.03 57.73, 58.4 58.47, 14 56 M14 56 C3.99 57, 0.85 51.75, 0 42 M0 42 C-1.84 29.62, -0.22 21.35, 0 14 M0 14 C0.42 4.06, 4.76 -0.73, 14 0" stroke="#ededed" stroke-width="1.5" fill="none" stroke-dasharray="8 9"></path></g><g transform="translate(669.2751550689909 267.6399261895489) rotate(349.27028931707304 54.25390625 9.599999999999994)"><text x="54.25390625" y="13.9203125" font-family="Helvetica, sans-serif, Segoe UI Emoji" font-size="16px" fill="#ededed" text-anchor="middle" style="white-space: pre;" direction="ltr" dominant-baseline="alphabetic">Mock database</text></g><g stroke-linecap="round"><g transform="translate(650.5785249477967 295.0085010054445) rotate(345.90382865364427 -17.843607338105357 -0.36978498654991654)"><path d="M0 0 C-8.65 -0.18, -17.3 -0.36, -35.69 -0.74" stroke="#ededed" stroke-width="1.5" fill="none" stroke-dasharray="8 9"></path></g><g transform="translate(650.5785249477967 295.0085010054445) rotate(345.90382865364427 -17.843607338105357 -0.36978498654991654)"><path d="M-35.69 -0.74 L-21.96 -6.8 L-22.23 5.88 L-35.69 -0.74" stroke="none" stroke-width="0" fill="#ededed" fill-rule="evenodd"></path><path d="M-35.69 -0.74 C-32.36 -2.21, -29.03 -3.68, -21.96 -6.8 M-21.96 -6.8 C-22.03 -3.45, -22.1 -0.1, -22.23 5.88 M-22.23 5.88 C-26.94 3.56, -31.65 1.25, -35.69 -0.74 M-35.69 -0.74 C-35.69 -0.74, -35.69 -0.74, -35.69 -0.74" stroke="#ededed" stroke-width="1.5" fill="none"></path></g></g><mask></mask><g stroke-linecap="round"><g transform="translate(623.839522391314 232.72313521963315) rotate(0 -16.521109759385126 12.392053114557172)"><path d="M0 0 C-10.06 7.55, -20.12 15.09, -33.04 24.78" stroke="#ededed" stroke-width="1.5" fill="none" stroke-dasharray="8 9"></path></g><g transform="translate(623.839522391314 232.72313521963315) rotate(0 -16.521109759385126 12.392053114557172)"><path d="M-33.04 24.78 L-25.97 11.56 L-18.36 21.7 L-33.04 24.78" stroke="none" stroke-width="0" fill="#ededed" fill-rule="evenodd"></path><path d="M-33.04 24.78 C-30.89 20.76, -28.74 16.73, -25.97 11.56 M-25.97 11.56 C-24 14.19, -22.02 16.82, -18.36 21.7 M-18.36 21.7 C-22.14 22.49, -25.92 23.29, -33.04 24.78 M-33.04 24.78 C-33.04 24.78, -33.04 24.78, -33.04 24.78" stroke="#ededed" stroke-width="1.5" fill="none"></path></g></g><mask></mask><g stroke-linecap="round" transform="translate(129.64594630472948 237.70871052395887) rotate(14.784092831421008 65.5 28)"><path d="M14 0 C40.83 1.37, 64.12 2.21, 117 0 C126.59 -1.51, 128.87 1.24, 131 14 C134.42 24.58, 133.52 31.63, 131 42 C130.14 53.15, 124.13 53.49, 117 56 C93.44 55.72, 63.39 56.19, 14 56 C4.02 56.16, 1.51 50.35, 0 42 C2.02 36.76, -2.35 24.44, 0 14 C-0.97 1.52, 4.84 -1.4, 14 0" stroke="none" stroke-width="0" fill="#122700"></path><path d="M14 0 C43.52 1.97, 73.67 2.71, 117 0 M117 0 C126.27 0.28, 131.65 5.66, 131 14 M131 14 C130.42 25.63, 132.88 35.48, 131 42 M131 42 C131.7 49.76, 127.78 55.32, 117 56 M117 56 C82.43 56.52, 43.06 54.41, 14 56 M14 56 C2.77 55.82, 0.3 51.76, 0 42 M0 42 C1.04 35.2, -1 26.19, 0 14 M0 14 C0.42 5.36, 6.49 -1.26, 14 0" stroke="#ededed" stroke-width="1.5" fill="none" stroke-dasharray="8 9"></path></g><g transform="translate(140.91157130472948 256.10871052395885) rotate(14.784092831421008 54.234375 9.599999999999994)"><text x="54.234375" y="13.9203125" font-family="Helvetica, sans-serif, Segoe UI Emoji" font-size="16px" fill="#ededed" text-anchor="middle" style="white-space: pre;" direction="ltr" dominant-baseline="alphabetic">Test framework</text></g><g stroke-linecap="round"><g transform="translate(266.84246926630703 283.1587256317425) rotate(351.8754818300091 15.781481330478073 7.251082644189978)"><path d="M0 0 C11.3 5.19, 22.6 10.39, 31.56 14.5" stroke="#ededed" stroke-width="1.5" fill="none" stroke-dasharray="8 9"></path></g><g transform="translate(266.84246926630703 283.1587256317425) rotate(351.8754818300091 15.781481330478073 7.251082644189978)"><path d="M14.25 13.09 C20.45 13.59, 26.65 14.1, 31.56 14.5" stroke="#ededed" stroke-width="1.5" fill="none"></path></g><g transform="translate(266.84246926630703 283.1587256317425) rotate(351.8754818300091 15.781481330478073 7.251082644189978)"><path d="M19.21 2.29 C23.64 6.66, 28.06 11.04, 31.56 14.5" stroke="#ededed" stroke-width="1.5" fill="none"></path></g></g><mask></mask><g stroke-linecap="round" transform="translate(674.2456246744159 393.57381579323646) rotate(3.7017290695415466 63.5 31)"><path d="M15.5 0 C47.89 -0.07, 74.59 -0.2, 111.5 0 C118.78 -1.2, 125.59 2.07, 127 15.5 C129.56 26.66, 129.57 37.29, 127 46.5 C129.55 59.28, 120.78 59.98, 111.5 62 C81.84 60.41, 56.92 62.1, 15.5 62 C7.97 60.43, 2.97 56.57, 0 46.5 C1 32.72, 2.16 21.87, 0 15.5 C1.89 7.47, 2.48 2.28, 15.5 0" stroke="none" stroke-width="0" fill="#122700"></path><path d="M15.5 0 C54.1 0.86, 92.87 -0.99, 111.5 0 M15.5 0 C41.65 -0.29, 66.14 -1.34, 111.5 0 M111.5 0 C123.28 -0.68, 128 6.02, 127 15.5 M111.5 0 C122.31 1.71, 127.35 3.07, 127 15.5 M127 15.5 C127 22.43, 126.1 28.61, 127 46.5 M127 15.5 C126.67 23.31, 127.37 32.18, 127 46.5 M127 46.5 C128.82 55.58, 121 60.93, 111.5 62 M127 46.5 C125.96 56.99, 122.17 60.05, 111.5 62 M111.5 62 C77.84 59.69, 46.16 63.05, 15.5 62 M111.5 62 C85.06 63.26, 57.19 63.23, 15.5 62 M15.5 62 C3.94 60.61, -1.12 56.23, 0 46.5 M15.5 62 C3.91 63, 0.47 54.69, 0 46.5 M0 46.5 C0.89 35.62, -0.07 25.09, 0 15.5 M0 46.5 C-0.86 38.01, -0.43 29.27, 0 15.5 M0 15.5 C0.1 4.39, 4.39 -1.93, 15.5 0 M0 15.5 C1.32 4.08, 6.42 -1.53, 15.5 0" stroke="#ededed" stroke-width="1" fill="none"></path></g><g transform="translate(688.3862496744159 414.97381579323644) rotate(3.7017290695415466 49.359375 9.600000000000001)"><text x="49.359375" y="13.9203125" font-family="Helvetica, sans-serif, Segoe UI Emoji" font-size="16px" fill="#ededed" text-anchor="middle" style="white-space: pre;" direction="ltr" dominant-baseline="alphabetic">Email adapter</text></g><g stroke-linecap="round"><g transform="translate(666.0065411450082 422.2923406135342) rotate(354.691823420662 -21.75122553228175 -3.745896360712578)"><path d="M0 0 C-15.22 -2.62, -30.44 -5.24, -43.5 -7.49" stroke="#ededed" stroke-width="1.5" fill="none" stroke-dasharray="8 9"></path></g><g transform="translate(666.0065411450082 422.2923406135342) rotate(354.691823420662 -21.75122553228175 -3.745896360712578)"><path d="M-43.5 -7.49 L-29.03 -11.43 L-31.18 1.06 L-43.5 -7.49" stroke="none" stroke-width="0" fill="#ededed" fill-rule="evenodd"></path><path d="M-43.5 -7.49 C-38.44 -8.87, -33.38 -10.25, -29.03 -11.43 M-29.03 -11.43 C-29.73 -7.34, -30.44 -3.26, -31.18 1.06 M-31.18 1.06 C-35.13 -1.68, -39.08 -4.42, -43.5 -7.49 M-43.5 -7.49 C-43.5 -7.49, -43.5 -7.49, -43.5 -7.49" stroke="#ededed" stroke-width="1.5" fill="none"></path></g></g><mask></mask><g stroke-linecap="round" transform="translate(636.8256924685138 480.73355666431416) rotate(26.265722874364837 63.5 31)"><path d="M15.5 0 C53.98 0.69, 88.95 -2.32, 111.5 0 C123.65 -2.2, 124.49 3.15, 127 15.5 C127.42 20.51, 127.9 31.59, 127 46.5 C127.16 58.34, 120.85 61.77, 111.5 62 C89.25 60.34, 59.92 61.91, 15.5 62 C2.02 62.18, -1.4 55.44, 0 46.5 C1.64 37.81, 0.49 32.58, 0 15.5 C0.32 6.59, 5.25 -2.84, 15.5 0" stroke="none" stroke-width="0" fill="#122700"></path><path d="M15.5 0 C41.36 2.22, 65.44 0.92, 111.5 0 M111.5 0 C120.26 1.44, 126.32 6.17, 127 15.5 M127 15.5 C127.37 24.3, 125.26 34.84, 127 46.5 M127 46.5 C126.82 57.13, 122.26 61.39, 111.5 62 M111.5 62 C83.01 61.52, 52.32 62.92, 15.5 62 M15.5 62 C5.86 63.82, -1.26 56, 0 46.5 M0 46.5 C0.44 37.16, 0.91 31.36, 0 15.5 M0 15.5 C-0.84 3.98, 3.26 -0.39, 15.5 0" stroke="#ededed" stroke-width="1.5" fill="none" stroke-dasharray="8 9"></path></g><g transform="translate(654.9780362185138 502.13355666431414) rotate(26.265722874364837 45.34765625 9.6)"><text x="45.34765625" y="13.9203125" font-family="Helvetica, sans-serif, Segoe UI Emoji" font-size="16px" fill="#ededed" text-anchor="middle" style="white-space: pre;" direction="ltr" dominant-baseline="alphabetic">Mock notifier</text></g><g stroke-linecap="round"><g transform="translate(635.9367910599235 483.3332249598134) rotate(10.082827420387847 -19.808525830482722 -5.335529065666094)"><path d="M0 0 C-15.85 -4.27, -31.69 -8.54, -39.62 -10.67" stroke="#ededed" stroke-width="1.5" fill="none" stroke-dasharray="8 9"></path></g><g transform="translate(635.9367910599235 483.3332249598134) rotate(10.082827420387847 -19.808525830482722 -5.335529065666094)"><path d="M-39.62 -10.67 L-24.84 -13.26 L-28.14 -1.01 L-39.62 -10.67" stroke="none" stroke-width="0" fill="#ededed" fill-rule="evenodd"></path><path d="M-39.62 -10.67 C-33.71 -11.71, -27.8 -12.74, -24.84 -13.26 M-24.84 -13.26 C-25.97 -9.06, -27.1 -4.87, -28.14 -1.01 M-28.14 -1.01 C-31.48 -3.82, -34.82 -6.63, -39.62 -10.67 M-39.62 -10.67 C-39.62 -10.67, -39.62 -10.67, -39.62 -10.67" stroke="#ededed" stroke-width="1.5" fill="none"></path></g></g><mask></mask><g stroke-linecap="round" transform="translate(155.91470955352088 492.8566698526083) rotate(330.4069959267462 66 29.5)"><path d="M14.75 0 C40.55 -0.89, 70.28 -0.83, 117.25 0 C128.65 0.73, 128.64 6.12, 132 14.75 C131.04 22.84, 130.68 30.09, 132 44.25 C133.83 57.06, 124.54 57.88, 117.25 59 C87.86 57.7, 57.78 61.16, 14.75 59 C3.22 60.96, -2.39 54.9, 0 44.25 C0.04 33.63, -0.1 25.65, 0 14.75 C-1.2 3.5, 1.82 0.45, 14.75 0" stroke="none" stroke-width="0" fill="#122700"></path><path d="M14.75 0 C48.4 0.26, 84.26 -0.33, 117.25 0 M117.25 0 C128.57 0.31, 130.18 3.12, 132 14.75 M132 14.75 C132.4 20.19, 132.06 26.11, 132 44.25 M132 44.25 C133.06 54.83, 126.1 58.29, 117.25 59 M117.25 59 C83.1 59.1, 50.4 59.03, 14.75 59 M14.75 59 C5.05 59.3, -1.7 54.85, 0 44.25 M0 44.25 C-1.78 34.8, 1.57 25.76, 0 14.75 M0 14.75 C1.7 6.43, 6.11 1.07, 14.75 0" stroke="#ededed" stroke-width="1.5" fill="none" stroke-dasharray="8 9"></path></g><g transform="translate(167.68033455352088 512.7566698526083) rotate(330.4069959267462 54.234375 9.6)"><text x="54.234375" y="13.9203125" font-family="Helvetica, sans-serif, Segoe UI Emoji" font-size="16px" fill="#ededed" text-anchor="middle" style="white-space: pre;" direction="ltr" dominant-baseline="alphabetic">Test framework</text></g><g stroke-linecap="round"><g transform="translate(281.6892175477151 486.8045885375059) rotate(352.16274994535183 19.046956743098917 -8.850785359755434)"><path d="M0 0 C13.34 -6.2, 26.67 -12.39, 38.09 -17.7" stroke="#ededed" stroke-width="1.5" fill="none" stroke-dasharray="8 9"></path></g><g transform="translate(281.6892175477151 486.8045885375059) rotate(352.16274994535183 19.046956743098917 -8.850785359755434)"><path d="M23.22 -2.87 C28.43 -8.06, 33.63 -13.25, 38.09 -17.7" stroke="#ededed" stroke-width="1.5" fill="none"></path></g><g transform="translate(281.6892175477151 486.8045885375059) rotate(352.16274994535183 19.046956743098917 -8.850785359755434)"><path d="M17.17 -15.9 C24.49 -16.53, 31.82 -17.16, 38.09 -17.7" stroke="#ededed" stroke-width="1.5" fill="none"></path></g></g><mask></mask><g transform="translate(10 88.8179552609854) rotate(0 73.33984375 24)"><text x="73.33984375" y="17.400390625" font-family="Helvetica, sans-serif, Segoe UI Emoji" font-size="20px" fill="#ededed" text-anchor="middle" style="white-space: pre;" direction="ltr" dominant-baseline="alphabetic">Primary (driving)</text><text x="73.33984375" y="41.400390625" font-family="Helvetica, sans-serif, Segoe UI Emoji" font-size="20px" fill="#ededed" text-anchor="middle" style="white-space: pre;" direction="ltr" dominant-baseline="alphabetic">adapters</text></g><g transform="translate(756.111355283927 88.8179552609854) rotate(0 84.482421875 24)"><text x="84.482421875" y="17.400390625" font-family="Helvetica, sans-serif, Segoe UI Emoji" font-size="20px" fill="#ededed" text-anchor="middle" style="white-space: pre;" direction="ltr" dominant-baseline="alphabetic">Secondary (driven)</text><text x="84.482421875" y="41.400390625" font-family="Helvetica, sans-serif, Segoe UI Emoji" font-size="20px" fill="#ededed" text-anchor="middle" style="white-space: pre;" direction="ltr" dominant-baseline="alphabetic">adapters</text></g><g transform="translate(775.0376692043965 603.468906502736) rotate(0 67.6015625 9.600000000000001)"><text x="67.6015625" y="13.9203125" font-family="Helvetica, sans-serif, Segoe UI Emoji" font-size="16px" fill="#ededed" text-anchor="middle" style="white-space: pre;" direction="ltr" dominant-baseline="alphabetic">use case boundary</text></g><g stroke-linecap="round"><g transform="translate(760.6392317043965 611.8299067074859) rotate(0 -124.6697746809572 -39.77280841000219)"><path d="M0.25 -0.36 C-13.39 -0.69, -51.34 1.96, -81.95 -1.8 C-112.55 -5.56, -155.42 -9.92, -183.37 -22.91 C-211.31 -35.91, -238.7 -70.45, -249.59 -79.78" stroke="#ededed" stroke-width="1.5" fill="none" stroke-dasharray="8 9"></path></g><g transform="translate(760.6392317043965 611.8299067074859) rotate(0 -124.6697746809572 -39.77280841000219)"><path d="M-226.98 -69.12 C-234.18 -72.09, -240.89 -74.22, -249.59 -79.78" stroke="#ededed" stroke-width="1.5" fill="none"></path></g><g transform="translate(760.6392317043965 611.8299067074859) rotate(0 -124.6697746809572 -39.77280841000219)"><path d="M-239.12 -57.08 C-242.81 -63.58, -245.98 -69.22, -249.59 -79.78" stroke="#ededed" stroke-width="1.5" fill="none"></path></g></g><mask></mask></svg>