<svg version="1.1" xmlns="http://www.w3.org/2000/svg" viewBox="0 0 759.9046519068979 471.37317629135447" width="759.9046519068979" height="471.37317629135447" class="excalidraw-svg"><!-- svg-source:excalidraw --><metadata></metadata><defs><style class="style-fonts">
      </style></defs><rect x="0" y="0" width="759.9046519068979" height="471.37317629135447" fill="#ffffff"></rect><g stroke-linecap="round"><g transform="translate(376.5225166794371 10.799778391992902) rotate(0 120.20755792394871 224.8868097536844)" fill-rule="evenodd"><path d="M1.74 -1.67 L-133.76 223.71 L-14.03 450.47 L264.6 449.78 L374.54 224.42 L239.85 -0.25 L-1.43 0.41" stroke="none" stroke-width="0" fill="#fcecbc" fill-rule="evenodd"></path><path d="M0 0 C-34.64 58.92, -70.71 120.09, -132.97 225.64 M0 0 C-48.06 79.93, -95.86 159.32, -132.97 225.64 M-132.97 225.64 C-104.78 275.97, -75.88 328.7, -14.77 449.94 M-132.97 225.64 C-92.07 307.27, -48.7 387.79, -14.77 449.94 M-14.77 449.94 C68.69 448.27, 154.67 446.48, 263.25 448.6 M-14.77 449.94 C50.77 451.11, 116.28 450.67, 263.25 448.6 M263.25 448.6 C291.61 392.21, 318.77 337.44, 373.38 222.95 M263.25 448.6 C298.45 375.56, 335.34 300.86, 373.38 222.95 M373.38 222.95 C330.25 150.01, 289.4 79.15, 239.07 1.34 M373.38 222.95 C320.95 136.74, 270.78 52.29, 239.07 1.34 M239.07 1.34 C150.24 3.47, 64.15 1.4, 0 0 M239.07 1.34 C156.96 -0.84, 74.46 -1.48, 0 0 M0 0 C0 0, 0 0, 0 0 M0 0 C0 0, 0 0, 0 0" stroke="#000000" stroke-width="1" fill="none"></path></g></g><mask></mask><g transform="translate(81.1117765316958 79.13433608678167) rotate(0.25162866300128894 40.5 9)"><text x="0" y="13.3203125" font-family="Helvetica, sans-serif, Segoe UI Emoji" font-size="16px" fill="#000000" text-anchor="start" style="white-space: pre;" direction="ltr" dominant-baseline="alphabetic">&lt;&lt; uses &gt;&gt;</text></g><g stroke-linecap="round" transform="translate(10 180.65731142644643) rotate(0 83.5 56)"><path d="M-1.77 1.31 L165.72 1.64 L167.66 110.28 L-1.38 110.35" stroke="none" stroke-width="0" fill="#e1f9bd"></path><path d="M0 0 C42.65 -2.43, 83.31 -0.24, 167 0 M0 0 C50.43 1.49, 102.27 0.57, 167 0 M167 0 C169.21 23.13, 168.76 48.85, 167 112 M167 0 C167.25 42.41, 167.95 85.36, 167 112 M167 112 C112.06 109.95, 58.5 110.08, 0 112 M167 112 C110.75 111.3, 56.51 111.98, 0 112 M0 112 C0.8 79.78, -0.57 45.82, 0 0 M0 112 C-0.45 74.33, -0.91 37.36, 0 0" stroke="#000000" stroke-width="1" fill="none"></path></g><g stroke-linecap="round"><g transform="translate(11 243.65731142644643) rotate(0 83.5 0.0854707530032286)"><path d="M0 0 C59.83 1.95, 119.49 0.03, 167 0 M0 0 C42.46 -1.4, 84.1 -0.34, 167 0" stroke="#000000" stroke-width="1" fill="none"></path></g></g><mask></mask><g stroke-linecap="round"><g transform="translate(11 267.6573114264464) rotate(0 83 0.6858449123035015)"><path d="M0 0 C37.69 -1.35, 74.23 -1.09, 166 2 M0 0 C60.96 1.92, 123.4 2.44, 166 2" stroke="#000000" stroke-width="1" fill="none"></path></g></g><mask></mask><g transform="translate(41.2368412707001 201.65731142644643) rotate(0 55.5 9)"><text x="55.5" y="13.3203125" font-family="Helvetica, sans-serif, Segoe UI Emoji" font-size="16px" fill="#000000" text-anchor="middle" style="white-space: pre;" direction="ltr" dominant-baseline="alphabetic">OrderController</text></g><g stroke-linecap="round" transform="translate(209 61.65731142644643) rotate(0 83.5 56)"><path d="M1.4 -1.19 L168.32 -1.76 L168.53 110.45 L1.31 112.2" stroke="none" stroke-width="0" fill="#ffffff"></path><path d="M0 0 C41.54 1.21, 79.8 -0.39, 167 0 M0 0 C63.54 -0.65, 128.37 -0.2, 167 0 M167 0 C165.57 37.15, 165.4 71.76, 167 112 M167 0 C165.78 35.37, 165.84 72.22, 167 112 M167 112 C128.79 112.93, 93.95 110.9, 0 112 M167 112 C121.05 112.02, 74.24 112.74, 0 112 M0 112 C-0.41 71.28, -0.51 29.79, 0 0 M0 112 C1.04 70.21, 0.03 29.32, 0 0" stroke="#000000" stroke-width="1" fill="none"></path></g><g stroke-linecap="round"><g transform="translate(210 124.65731142644643) rotate(0 83.5 -0.3671593524393302)"><path d="M0 0 C38.03 -1.59, 78.56 -0.21, 167 0 M0 0 C60.1 0.18, 121.29 -0.82, 167 0" stroke="#000000" stroke-width="1" fill="none"></path></g></g><mask></mask><g stroke-linecap="round"><g transform="translate(210 148.65731142644665) rotate(0 83 0.7692847877182771)"><path d="M0 0 C51.87 1.73, 101.56 0.75, 166 2 M0 0 C56.6 -0.87, 112.88 -0.67, 166 2" stroke="#000000" stroke-width="1" fill="none"></path></g></g><mask></mask><g transform="translate(239.7368412707001 74.65731142644643) rotate(0 54 18)"><text x="54" y="13.3203125" font-family="Helvetica, sans-serif, Segoe UI Emoji" font-size="16px" fill="#000000" text-anchor="middle" style="white-space: pre;" direction="ltr" dominant-baseline="alphabetic">&lt;&lt; interface &gt;&gt;</text><text x="54" y="31.3203125" font-family="Helvetica, sans-serif, Segoe UI Emoji" font-size="16px" fill="#000000" text-anchor="middle" style="white-space: pre;" direction="ltr" dominant-baseline="alphabetic">PlacingOrders</text></g><g stroke-linecap="round" transform="translate(411.7368412707001 177.65731142644665) rotate(0 83.5 56)"><path d="M-0.58 0.9 L166.38 -1.74 L167.81 112.03 L0.71 111.62" stroke="none" stroke-width="0" fill="#ffffff"></path><path d="M0 0 C49.48 0.55, 99.04 1.83, 167 0 M0 0 C48.3 0.33, 95.34 1.26, 167 0 M167 0 C165.15 25.21, 166.96 50.34, 167 112 M167 0 C167.31 35.26, 166.29 70.9, 167 112 M167 112 C111.22 111.15, 57.69 113.45, 0 112 M167 112 C133.04 109.94, 98.69 111.39, 0 112 M0 112 C-2.63 84.18, -2.57 60.52, 0 0 M0 112 C0.02 84.27, -0.09 58.2, 0 0" stroke="#000000" stroke-width="1" fill="none"></path></g><g stroke-linecap="round"><g transform="translate(412.7368412707001 240.65731142644665) rotate(0 83.5 0.3842859062579862)"><path d="M0 0 C37.18 1.13, 70.68 0.84, 167 0 M0 0 C39.83 1.4, 78.56 0.56, 167 0" stroke="#000000" stroke-width="1" fill="none"></path></g></g><mask></mask><g stroke-linecap="round"><g transform="translate(412.7368412707001 264.65731142644665) rotate(0 83 0.9120976591012351)"><path d="M0 0 C41.94 0.29, 83.21 2.2, 166 2 M0 0 C37.25 -0.52, 75.4 -0.01, 166 2" stroke="#000000" stroke-width="1" fill="none"></path></g></g><mask></mask><g transform="translate(453.2368412707001 198.65731142644665) rotate(0 42.5 9)"><text x="42.5" y="13.3203125" font-family="Helvetica, sans-serif, Segoe UI Emoji" font-size="16px" fill="#000000" text-anchor="middle" style="white-space: pre;" direction="ltr" dominant-baseline="alphabetic">CoffeeShop</text></g><g stroke-linecap="round"><g transform="translate(92.28541475789825 174.24142580362752) rotate(0 53.86996898044299 -28.30543890710082)"><path d="M0 0 C0.28 -17.02, 0.55 -34.04, 0.91 -55.96 M0.91 -55.96 C26.21 -56.12, 51.51 -56.27, 107.74 -56.61" stroke="#000000" stroke-width="1.5" fill="none" stroke-dasharray="8 9"></path></g><g transform="translate(92.28541475789825 174.24142580362752) rotate(0 53.86996898044299 -28.30543890710082)"><path d="M84.3 -47.92 C91.43 -50.56, 98.56 -53.21, 107.74 -56.61" stroke="#000000" stroke-width="1.5" fill="none"></path></g><g transform="translate(92.28541475789825 174.24142580362752) rotate(0 53.86996898044299 -28.30543890710082)"><path d="M84.2 -65.02 C91.36 -62.46, 98.52 -59.9, 107.74 -56.61" stroke="#000000" stroke-width="1.5" fill="none"></path></g></g><mask></mask><g stroke-linecap="round"><g transform="translate(451.3284991191522 171.65731142644665) rotate(0 -34.59165784845209 -27.43000121138715)"><path d="M0 0 C0.15 -20.22, 0.31 -40.44, 0.41 -54 M0.41 -54 C-16.58 -54.21, -33.57 -54.42, -69.59 -54.86" stroke="#000000" stroke-width="1.5" fill="none" stroke-dasharray="8 9"></path></g><g transform="translate(451.3284991191522 171.65731142644665) rotate(0 -34.59165784845209 -27.43000121138715)"><path d="M-69.59 -54.86 L-55.92 -61.03 L-56.08 -48.35 L-69.59 -54.86" stroke="none" stroke-width="0" fill="#000000" fill-rule="evenodd"></path><path d="M-69.59 -54.86 C-64.47 -57.17, -59.35 -59.48, -55.92 -61.03 M-55.92 -61.03 C-55.96 -57.96, -56 -54.88, -56.08 -48.35 M-56.08 -48.35 C-61.37 -50.9, -66.67 -53.46, -69.59 -54.86 M-69.59 -54.86 C-69.59 -54.86, -69.59 -54.86, -69.59 -54.86" stroke="#000000" stroke-width="1.5" fill="none"></path></g></g><mask></mask><g transform="translate(428.2366098215971 84.65731142644665) rotate(0 64.5 9)"><text x="0" y="13.3203125" font-family="Helvetica, sans-serif, Segoe UI Emoji" font-size="16px" fill="#000000" text-anchor="start" style="white-space: pre;" direction="ltr" dominant-baseline="alphabetic">&lt;&lt; implements &gt;&gt;</text></g><g stroke-linecap="round"><g transform="translate(213.4140028232623 283.7732925493043) rotate(0 80.5 20.0000000000001)" fill-rule="evenodd"><path d="M-1.94 0.54 L-2.85 41.16 L121.04 40.83 L123.49 59.52 L160.91 19.62 L122.66 -20.33 L123.36 -1.95 L0.25 -1.39" stroke="none" stroke-width="0" fill="#ffffff" fill-rule="evenodd"></path><path d="M0 0 C-1.63 8.49, -0.05 16.9, -1 40 M0 0 C0.39 12.38, -0.95 25.16, -1 40 M-1 40 C38.64 38.69, 80.54 40.99, 122 40 M-1 40 C23.58 40.12, 47.78 41.58, 122 40 M122 40 C120.45 43.34, 120.51 50.85, 122 60 M122 40 C122.9 44.04, 122.79 49.73, 122 60 M122 60 C130.92 50.1, 143.52 39.17, 162 20 M122 60 C133.48 47.7, 145.22 36.43, 162 20 M162 20 C149.78 7.91, 139.09 -0.78, 122 -20 M162 20 C149.04 6.49, 137.61 -4.48, 122 -20 M122 -20 C123.58 -11.87, 120.53 -6.74, 122 0 M122 -20 C122.64 -12.67, 121.6 -7.28, 122 0 M122 0 C96.26 1.76, 68.8 1.51, 0 0 M122 0 C78.83 0.7, 36.97 1.11, 0 0 M0 0 C0 0, 0 0, 0 0 M0 0 C0 0, 0 0, 0 0" stroke="#000000" stroke-width="1" fill="none"></path></g></g><mask></mask><g transform="translate(237.88342237341294 294.7400217357796) rotate(0 41 9)"><text x="41" y="13.3203125" font-family="Helvetica, sans-serif, Segoe UI Emoji" font-size="16px" fill="#000000" text-anchor="middle" style="white-space: pre;" direction="ltr" dominant-baseline="alphabetic">control flow</text></g><g stroke-linecap="round"><g transform="translate(259.9719020897437 375.05276055296497) rotate(0 80.29685219863927 20.0000000000001)" fill-rule="evenodd"><path d="M-0.96 0.83 L0.49 39.52 L120.91 39.62 L122.66 59.67 L163.36 18.05 L122.25 -21.39 L120.43 -1.56 L-1.78 1.49" stroke="none" stroke-width="0" fill="#ffffff" fill-rule="evenodd"></path><path d="M0 0 C0.23 9.32, -2.38 22.67, -1 40 M0 0 C-0.02 11.01, -0.42 21.07, -1 40 M-1 40 C27.09 39.7, 57.59 38.78, 122 40 M-1 40 C25.37 40.01, 53.34 38.34, 122 40 M122 40 C120.65 45.94, 120.08 50.77, 122 60 M122 40 C121.84 44.9, 121.82 48.03, 122 60 M122 60 C135.24 47.03, 151.1 33.4, 162 20 M122 60 C130.63 50.43, 139.91 41.04, 162 20 M162 20 C152.46 12.09, 140.8 -0.34, 122 -20 M162 20 C154.38 12.56, 146.15 4.55, 122 -20 M122 -20 C122.25 -11.24, 122.7 -5.57, 122 0 M122 -20 C121.04 -11.52, 122.07 -4.02, 122 0 M122 0 C77.11 0.18, 30.81 0.09, 0 0 M122 0 C82.42 0.57, 40.47 0.03, 0 0 M0 0 C0 0, 0 0, 0 0 M0 0 C0 0, 0 0, 0 0" stroke="#000000" stroke-width="1" fill="none"></path></g></g><mask></mask><g transform="translate(270.38342237341294 385.7400217357796) rotate(0 50.5 9)"><text x="50.5" y="13.3203125" font-family="Helvetica, sans-serif, Segoe UI Emoji" font-size="16px" fill="#000000" text-anchor="middle" style="white-space: pre;" direction="ltr" dominant-baseline="alphabetic">dependencies</text></g></svg>