<svg version="1.1" xmlns="http://www.w3.org/2000/svg" viewBox="0 0 740.9239552340593 470.21666185064436" width="740.9239552340593" height="470.21666185064436" class="excalidraw-svg"><!-- svg-source:excalidraw --><metadata></metadata><defs><style class="style-fonts">
      </style></defs><rect x="0" y="0" width="740.9239552340593" height="470.21666185064436" fill="#ffffff"></rect><g stroke-linecap="round"><g transform="translate(142.96701937956345 10) rotate(0 120.20755792394868 225.10833092532215)" fill-rule="evenodd"><path d="M0.06 0.1 L-131.86 224.69 L-13.12 450.72 L261.31 450.59 L373.52 220.98 L239.55 -0.11 L1.75 1.21" stroke="none" stroke-width="0" fill="#fcecbc" fill-rule="evenodd"></path><path d="M0 0 C-29.65 49.38, -61.63 98.84, -132.97 225.64 M0 0 C-38.82 63.37, -75.65 127.1, -132.97 225.64 M-132.97 225.64 C-96.4 294.09, -58.21 363.25, -14.77 449.94 M-132.97 225.64 C-98.89 292.19, -64.46 358.86, -14.77 449.94 M-14.77 449.94 C42.21 447.17, 98.02 449.56, 263.25 448.6 M-14.77 449.94 C57.13 450.71, 128.94 449.74, 263.25 448.6 M263.25 448.6 C297.29 380.41, 330.82 312.43, 373.38 222.95 M263.25 448.6 C285.67 398.29, 310.76 346.75, 373.38 222.95 M373.38 222.95 C328.54 148.63, 282.19 75.21, 239.07 1.34 M373.38 222.95 C320.46 135.16, 268.05 47.48, 239.07 1.34 M239.07 1.34 C168.26 2.02, 96.65 1.1, 0 0 M239.07 1.34 C190.15 1.21, 141.36 1.81, 0 0 M0 0 C0 0, 0 0, 0 0 M0 0 C0 0, 0 0, 0 0" stroke="#000000" stroke-width="1" fill="none"></path></g></g><mask></mask><g stroke-linecap="round" transform="translate(178.18134397082645 176.8575330344537) rotate(0 83.5 56)"><path d="M1.41 0.31 L165.74 -1.51 L166.56 113.94 L-1.31 113.06" stroke="none" stroke-width="0" fill="#ffffff"></path><path d="M0 0 C33.53 -0.52, 70.1 -2.15, 167 0 M0 0 C51.99 0.64, 103.27 0.42, 167 0 M167 0 C166.86 42.28, 166.12 82.55, 167 112 M167 0 C166.97 44.8, 166.52 89.3, 167 112 M167 112 C106.55 112.68, 45.11 110.04, 0 112 M167 112 C124.33 112.2, 79.73 111.82, 0 112 M0 112 C-0.51 88.3, -0.87 65.52, 0 0 M0 112 C0.68 71.17, 0.9 31.91, 0 0" stroke="#000000" stroke-width="1" fill="none"></path></g><g stroke-linecap="round"><g transform="translate(179.18134397082645 239.8575330344537) rotate(0 83.5 -0.6365289618820071)"><path d="M0 0 C53.71 -1.65, 108.4 -0.04, 167 0 M0 0 C53.49 -0.87, 107.59 -2.37, 167 0" stroke="#000000" stroke-width="1" fill="none"></path></g></g><mask></mask><g stroke-linecap="round"><g transform="translate(179.18134397082645 263.8575330344537) rotate(0 83 1.0864677360892472)"><path d="M0 0 C48.98 1.91, 98 3.42, 166 2 M0 0 C66.66 -1.21, 131.85 0.69, 166 2" stroke="#000000" stroke-width="1" fill="none"></path></g></g><mask></mask><g transform="translate(220.06806272082645 197.8575330344537) rotate(0 42.11328125 9)"><text x="42.11328125" y="13.3203125" font-family="Helvetica, sans-serif, Segoe UI Emoji" font-size="16px" fill="#000000" text-anchor="middle" style="white-space: pre;" direction="ltr" dominant-baseline="alphabetic">CoffeeShop</text></g><g stroke-linecap="round" transform="translate(562.9239552340593 181.4774991076622) rotate(0 83.5 56)"><path d="M-1.86 -0.9 L167.43 -0.1 L166.93 113.57 L0.16 112.16" stroke="none" stroke-width="0" fill="#e1f9bd"></path><path d="M0 0 C50.9 -0.5, 99.43 0.86, 167 0 M0 0 C37.66 -0.6, 74.33 0.36, 167 0 M167 0 C169.06 36.6, 169.63 78.33, 167 112 M167 0 C167.12 37.65, 165.8 75.76, 167 112 M167 112 C106.92 113.74, 46.94 111.97, 0 112 M167 112 C127.03 110.25, 87.53 111.6, 0 112 M0 112 C-2.26 84.68, -0.58 57.41, 0 0 M0 112 C0.49 77.66, 0.05 41.91, 0 0" stroke="#000000" stroke-width="1" fill="none"></path></g><g stroke-linecap="round"><g transform="translate(563.9239552340593 244.47749910766208) rotate(0 83.5 0.3383765776444534)"><path d="M0 0 C58.19 1.38, 111.87 -0.03, 167 0 M0 0 C55.11 0.98, 112.3 0.82, 167 0" stroke="#000000" stroke-width="1" fill="none"></path></g></g><mask></mask><g stroke-linecap="round"><g transform="translate(563.9239552340593 268.4774991076621) rotate(0 83 0.910800286329092)"><path d="M0 0 C49.65 -0.54, 102.98 0.16, 166 2 M0 0 C49.88 -0.19, 98.37 0.21, 166 2" stroke="#000000" stroke-width="1" fill="none"></path></g></g><mask></mask><g transform="translate(584.2936090047594 202.47749910766208) rotate(0 65.3671875 9)"><text x="65.3671875" y="13.3203125" font-family="Helvetica, sans-serif, Segoe UI Emoji" font-size="16px" fill="#000000" text-anchor="middle" style="white-space: pre;" direction="ltr" dominant-baseline="alphabetic">OrdersJpaAdapter</text></g><g stroke-linecap="round" transform="translate(367.9462158086833 62.47749910766231) rotate(0 83.5 56)"><path d="M1.09 -0.67 L167.47 -1.9 L168.11 112.48 L0.24 111.18" stroke="none" stroke-width="0" fill="#ffffff"></path><path d="M0 0 C50.91 -1.79, 103.79 0.73, 167 0 M0 0 C62.24 -0.11, 127.05 -0.59, 167 0 M167 0 C166.18 24.43, 166.26 51.35, 167 112 M167 0 C168.15 37.06, 167.27 75.15, 167 112 M167 112 C118.18 114.32, 73.59 111.41, 0 112 M167 112 C105.31 110.89, 43.64 110.93, 0 112 M0 112 C2.79 84.16, 1.9 57.07, 0 0 M0 112 C-0.27 84.24, -0.16 54.99, 0 0" stroke="#000000" stroke-width="1" fill="none"></path></g><g stroke-linecap="round"><g transform="translate(368.9462158086833 125.47749910766231) rotate(0 83.5 0.0687531849821994)"><path d="M0 0 C53.52 2.25, 104.82 0.32, 167 0 M0 0 C60.59 -1.06, 119.18 -1.43, 167 0" stroke="#000000" stroke-width="1" fill="none"></path></g></g><mask></mask><g stroke-linecap="round"><g transform="translate(368.9462158086833 149.4774991076623) rotate(0 83 0.5128852768287686)"><path d="M0 0 C37.78 -1.34, 73.58 -1.8, 166 2 M0 0 C63.57 0.14, 129.61 0.46, 166 2" stroke="#000000" stroke-width="1" fill="none"></path></g></g><mask></mask><g transform="translate(398.8666508293834 75.47749910766231) rotate(0 53.81640625 18)"><text x="53.81640625" y="13.3203125" font-family="Helvetica, sans-serif, Segoe UI Emoji" font-size="16px" fill="#000000" text-anchor="middle" style="white-space: pre;" direction="ltr" dominant-baseline="alphabetic">&lt;&lt; interface &gt;&gt;</text><text x="53.81640625" y="31.3203125" font-family="Helvetica, sans-serif, Segoe UI Emoji" font-size="16px" fill="#000000" text-anchor="middle" style="white-space: pre;" direction="ltr" dominant-baseline="alphabetic">Orders</text></g><g transform="translate(230.1367360812735 91.8575330344537) rotate(0 40.03125 9)"><text x="0" y="13.3203125" font-family="Helvetica, sans-serif, Segoe UI Emoji" font-size="16px" fill="#000000" text-anchor="start" style="white-space: pre;" direction="ltr" dominant-baseline="alphabetic">&lt;&lt; uses &gt;&gt;</text></g><g stroke-linecap="round"><g transform="translate(650.187086284576 173.99259939528622) rotate(0 -55.27517510165126 -27.44992106343483)"><path d="M0 0 C-0.11 -10.85, -0.22 -21.7, -0.55 -53.52 M-0.55 -53.52 C-28.83 -53.87, -57.11 -54.23, -110.55 -54.9" stroke="#000000" stroke-width="1.5" fill="none" stroke-dasharray="8 9"></path></g><g transform="translate(650.187086284576 173.99259939528622) rotate(0 -55.27517510165126 -27.44992106343483)"><path d="M-110.55 -54.9 L-96.88 -61.07 L-97.04 -48.39 L-110.55 -54.9" stroke="none" stroke-width="0" fill="#000000" fill-rule="evenodd"></path><path d="M-110.55 -54.9 C-107.78 -56.15, -105 -57.4, -96.88 -61.07 M-96.88 -61.07 C-96.92 -57.81, -96.96 -54.55, -97.04 -48.39 M-97.04 -48.39 C-101.15 -50.37, -105.26 -52.35, -110.55 -54.9 M-110.55 -54.9 C-110.55 -54.9, -110.55 -54.9, -110.55 -54.9" stroke="#000000" stroke-width="1.5" fill="none"></path></g></g><mask></mask><g transform="translate(541.1367405640931 86.4754576373079) rotate(0.25162866300128894 64.03515625000001 9)"><text x="0" y="13.3203125" font-family="Helvetica, sans-serif, Segoe UI Emoji" font-size="16px" fill="#000000" text-anchor="start" style="white-space: pre;" direction="ltr" dominant-baseline="alphabetic">&lt;&lt; implements &gt;&gt;</text></g><g stroke-linecap="round"><g transform="translate(261.51245895851275 175.47749910766254) rotate(0 49.898457730993414 -26.845260136295224)"><path d="M0 0 C-0.2 -11.89, -0.39 -23.78, -0.88 -53 M-0.88 -53 C33.46 -53.23, 67.8 -53.47, 100.67 -53.69" stroke="#000000" stroke-width="1.5" fill="none" stroke-dasharray="8 9"></path></g><g transform="translate(261.51245895851275 175.47749910766254) rotate(0 49.898457730993414 -26.845260136295224)"><path d="M77.24 -44.98 C82.5 -46.93, 87.75 -48.89, 100.67 -53.69" stroke="#000000" stroke-width="1.5" fill="none"></path></g><g transform="translate(261.51245895851275 175.47749910766254) rotate(0 49.898457730993414 -26.845260136295224)"><path d="M77.12 -62.08 C82.41 -60.2, 87.69 -58.32, 100.67 -53.69" stroke="#000000" stroke-width="1.5" fill="none"></path></g></g><mask></mask><g stroke-linecap="round"><g transform="translate(394.2458668263614 288.46171419784525) rotate(0 80.5 20.0000000000001)" fill-rule="evenodd"><path d="M-1.1 -0.41 L-2.98 39.42 L122.38 41.59 L121.6 59.79 L160.26 18.84 L123.23 -21.6 L120.92 -1.4 L0.69 -0.19" stroke="none" stroke-width="0" fill="#ffffff" fill-rule="evenodd"></path><path d="M0 0 C-1.34 16.97, -0.2 33.74, -1 40 M0 0 C-1.08 9.67, -0.66 19.95, -1 40 M-1 40 C40.1 37.83, 80.31 39.06, 122 40 M-1 40 C27.64 40.02, 54.23 39.11, 122 40 M122 40 C123.25 43.7, 121.29 51.56, 122 60 M122 40 C122.08 45.98, 122.54 51.47, 122 60 M122 60 C135.79 47.09, 147.43 34.72, 162 20 M122 60 C136.62 45.51, 150.82 29.96, 162 20 M162 20 C146.48 6.01, 133.69 -8.71, 122 -20 M162 20 C150.18 7.18, 138.09 -4.31, 122 -20 M122 -20 C120.23 -15.46, 120.74 -10.13, 122 0 M122 -20 C120.83 -12.86, 121.14 -6.37, 122 0 M122 0 C84.05 -0.92, 47.33 0.34, 0 0 M122 0 C97.5 0.15, 72.94 0.51, 0 0 M0 0 C0 0, 0 0, 0 0 M0 0 C0 0, 0 0, 0 0" stroke="#000000" stroke-width="1" fill="none"></path></g></g><mask></mask><g transform="translate(419.25434887651204 299.42844338432053) rotate(0 40.4609375 9)"><text x="40.4609375" y="13.3203125" font-family="Helvetica, sans-serif, Segoe UI Emoji" font-size="16px" fill="#000000" text-anchor="middle" style="white-space: pre;" direction="ltr" dominant-baseline="alphabetic">control flow</text></g><g stroke-linecap="round"><g transform="translate(338.8037660928428 371.74118220150615) rotate(180 80.24551507388078 20.0000000000001)" fill-rule="evenodd"><path d="M0.38 1.59 L-1.4 39.79 L120.26 38.84 L123.23 58.4 L160.92 18.6 L122.69 -20.19 L120.07 0.26 L-1.88 -0.24" stroke="none" stroke-width="0" fill="#fff" fill-rule="evenodd"></path><path d="M0 0 C-1.07 14.28, -2.19 26.7, -1 40 M0 0 C-0.06 8.86, 0.4 19.84, -1 40 M-1 40 C28.29 40.54, 60.72 41.27, 122 40 M-1 40 C37.56 41.9, 75.9 41.46, 122 40 M122 40 C121.81 44.07, 123.48 48.44, 122 60 M122 40 C122.34 45.21, 122.66 52.55, 122 60 M122 60 C135.95 48.1, 147.13 35.22, 162 20 M122 60 C135.14 47.82, 147.24 35.02, 162 20 M162 20 C149.12 7.22, 136.15 -4.63, 122 -20 M162 20 C150.6 11.05, 141.54 -1.03, 122 -20 M122 -20 C123.07 -15.51, 121.25 -8.99, 122 0 M122 -20 C121.86 -13.32, 121.26 -9, 122 0 M122 0 C84.57 1.81, 51.12 1.2, 0 0 M122 0 C83.58 0.26, 46.32 1.12, 0 0 M0 0 C0 0, 0 0, 0 0 M0 0 C0 0, 0 0, 0 0" stroke="#000000" stroke-width="1" fill="none"></path></g></g><mask></mask><g transform="translate(388.89497387651204 383.42844338432053) rotate(0 49.8203125 9)"><text x="49.8203125" y="13.3203125" font-family="Helvetica, sans-serif, Segoe UI Emoji" font-size="16px" fill="#000000" text-anchor="middle" style="white-space: pre;" direction="ltr" dominant-baseline="alphabetic">dependencies</text></g></svg>