<svg version="1.1" xmlns="http://www.w3.org/2000/svg" viewBox="0 0 680.5583719905308 357.75294000622216" width="1361.1167439810615" height="715.5058800124443">
  <!-- svg-source:excalidraw -->
  
  <defs>
    <style class="style-fonts">
      @font-face {
        font-family: "Virgil";
        src: url("https://excalidraw.com/Virgil.woff2");
      }
      @font-face {
        font-family: "Cascadia";
        src: url("https://excalidraw.com/Cascadia.woff2");
      }
    </style>
  </defs>
  <rect x="0" y="0" width="680.5583719905308" height="357.75294000622216" fill="#ffffff"></rect><g stroke-linecap="round"><g transform="translate(248.07537624737233 11.6757129129428) rotate(0 88.96709897369146 167.20075709016874)" fill-rule="evenodd"><path d="M1.73 -1.21 L-100.76 166.16 L-12.69 333.55 L196.37 335.01 L279.1 166.95 L178.14 0.47 L0.87 -1.47" stroke="none" stroke-width="0" fill="#fcecbc" fill-rule="evenodd"></path><path d="M-0.83 -1.07 C-28.66 45.81, -58.6 96.4, -100.63 167.81 M0.4 -0.14 C-23.86 44.8, -50.03 89.27, -99.11 168.15 M-99.28 169.24 C-73.16 212.43, -52.34 257.58, -11.86 336.08 M-99.17 168.45 C-79.03 208.19, -56.68 248.59, -10.59 335.71 M-11.79 335.24 C54.42 331.86, 117.81 333.56, 197.45 334.66 M-10.59 334.36 C34.95 333.07, 80.74 332.99, 196.72 333.74 M194.14 335.68 C226.52 270.43, 256.31 208.38, 278.57 166.86 M195.77 334.57 C219.1 286.55, 243.84 237.74, 277.66 166.1 M277.09 166.98 C254.85 126.11, 228.3 89.21, 179.97 0.61 M278 165.06 C254.89 127.62, 230.67 90.17, 177.4 1.23 M179.55 0.78 C123.77 -1.31, 65.58 -2.85, -1.13 -0.48 M178.36 0.87 C108.23 1.74, 40.13 0.13, 0.58 -0.29 M0 0 C0 0, 0 0, 0 0 M0 0 C0 0, 0 0, 0 0" stroke="#000000" stroke-width="1" fill="none"></path></g></g><mask></mask><g transform="translate(291.07537624737324 167.1757129129428) rotate(0 48.9208984375 12)"><text x="0" y="0" font-family="Helvetica, Segoe UI Emoji" font-size="20px" fill="#000000" text-anchor="start" style="white-space: pre;" direction="ltr" dominant-baseline="text-before-edge">Application</text></g><g stroke-linecap="round" transform="translate(151.18834899069816 85.24011923513808) rotate(300.2756897768884 66.99999999999977 23)"><path d="M10.66 -0.83 L126.46 0.97 L129.4 1.44 L134.74 7.17 L133.09 38.84 L131.39 44.07 L123.3 45.71 L8.15 46 L4.78 43.58 L-0.03 37.51 L-0.41 9.39 L2.18 2.59 L12.74 1.55" stroke="none" stroke-width="0" fill="#ffffff"></path><path d="M11.5 0 M11.5 0 C38.11 1.68, 65.27 0.21, 122.5 0 M11.5 0 C41.37 -0.83, 73.28 -0.75, 122.5 0 M122.5 0 C130.98 1.42, 134.22 3.6, 134 11.5 M122.5 0 C132.22 -1.02, 134.31 5.2, 134 11.5 M134 11.5 C135.64 17.6, 132.45 20.49, 134 34.5 M134 11.5 C134.14 19.41, 133.99 28.01, 134 34.5 M134 34.5 C135.63 41.58, 131.59 47.72, 122.5 46 M134 34.5 C136.24 40.03, 132.1 47.74, 122.5 46 M122.5 46 C91.91 46.83, 59.88 45.23, 11.5 46 M122.5 46 C92.89 46.65, 65.55 45.65, 11.5 46 M11.5 46 C3.14 46.2, -1.32 43.85, 0 34.5 M11.5 46 C4.11 44.96, 1.13 44.08, 0 34.5 M0 34.5 C2.14 28.8, -1.15 24.65, 0 11.5 M0 34.5 C0.93 26.19, 0.1 19.32, 0 11.5 M0 11.5 C-1.19 4.3, 4.07 0.91, 11.5 0 M0 11.5 C-1.75 5.62, 3.58 1.45, 11.5 0" stroke="#000000" stroke-width="1" fill="none"></path></g><g transform="translate(163.63366149069816 98.64011923513772) rotate(300.2756897768884 54.55468749999977 9.599999999999909)"><text x="54.5546875" y="0" font-family="Helvetica, Segoe UI Emoji" font-size="16px" fill="#000000" text-anchor="middle" style="white-space: pre;" direction="ltr" dominant-baseline="text-before-edge">OrderingCoffee</text></g><g stroke-linecap="round" transform="translate(401.9653970854597 221.62665722095971) rotate(294.9439052634246 64 24.199999999999818)"><path d="M11.03 0.25 L119.47 -0.68 L127.21 3.09 L127.62 8.57 L129.13 41.28 L124.07 46.41 L117.58 49.12 L8.71 48.09 L2.81 45.68 L-0.4 39.72 L-0.51 8.98 L2.94 6.27 L3.68 0.26 L11.01 -0.86" stroke="none" stroke-width="0" fill="#ffffff"></path><path d="M12.1 0 M12.1 0 C48.38 -0.14, 86.46 -1.69, 115.9 0 M12.1 0 C40.19 0.97, 67.58 0.14, 115.9 0 M115.9 0 C125.75 -0.89, 128.27 5.22, 128 12.1 M115.9 0 C122.43 0.12, 129.06 5.91, 128 12.1 M128 12.1 C129.15 21.18, 126.36 28.47, 128 36.3 M128 12.1 C128.79 17.78, 128.69 24.9, 128 36.3 M128 36.3 C129.94 42.51, 125.65 49.92, 115.9 48.4 M128 36.3 C127.56 45.35, 123.91 49.05, 115.9 48.4 M115.9 48.4 C79.47 47.55, 45.82 46.3, 12.1 48.4 M115.9 48.4 C84.21 47.49, 52.55 48.23, 12.1 48.4 M12.1 48.4 C4.28 47.49, 0.98 46.03, 0 36.3 M12.1 48.4 C2.45 46.7, 0.41 46.63, 0 36.3 M0 36.3 C1.14 29.51, -1.73 24.57, 0 12.1 M0 36.3 C-0.62 29.95, 0.09 23.59, 0 12.1 M0 12.1 C-1.52 5.58, 3.82 1.26, 12.1 0 M0 12.1 C-0.75 2.38, 1.88 -1.29, 12.1 0" stroke="#000000" stroke-width="1" fill="none"></path></g><g transform="translate(430.3950845854597 236.22665722096008) rotate(294.9439052634246 35.5703125 9.599999999999909)"><text x="35.5703125" y="0" font-family="Helvetica, Segoe UI Emoji" font-size="16px" fill="#000000" text-anchor="middle" style="white-space: pre;" direction="ltr" dominant-baseline="text-before-edge">Payments</text></g><g stroke-linecap="round" transform="translate(400.9653970854597 82.62665722095971) rotate(58.815025341261666 55 24.199999999999818)"><path d="M10.38 -1.44 L104.11 -0.88 L108.11 4.04 L111.69 8.96 L110.04 41.3 L106.96 47.41 L99.8 48.85 L6.6 47.95 L2.44 45.96 L-0.51 38.85 L1.43 10.81 L0.65 3.29 L3.64 0.84 L13.18 -1.17" stroke="none" stroke-width="0" fill="#ffffff"></path><path d="M12.1 0 M12.1 0 C37.06 -1.75, 59.56 0.45, 97.9 0 M12.1 0 C35.81 -0.73, 60.19 -1.05, 97.9 0 M97.9 0 C106.23 1.19, 108.66 4.13, 110 12.1 M97.9 0 C107.03 1.87, 110.85 2.24, 110 12.1 M110 12.1 C108.71 17.34, 109.1 22.22, 110 36.3 M110 12.1 C110.91 19.32, 111.17 23.88, 110 36.3 M110 36.3 C111.68 45.88, 105.58 49.26, 97.9 48.4 M110 36.3 C109.94 45.02, 106.96 48.05, 97.9 48.4 M97.9 48.4 C76.46 46.49, 52.8 49.31, 12.1 48.4 M97.9 48.4 C79.88 49.33, 63.29 48.03, 12.1 48.4 M12.1 48.4 C5.02 50.06, -1.38 42.89, 0 36.3 M12.1 48.4 C4.45 50.67, -0.44 42.85, 0 36.3 M0 36.3 C-2.01 29.95, -0.68 20.07, 0 12.1 M0 36.3 C0.26 27.38, -0.62 18.32, 0 12.1 M0 12.1 C-0.22 5.3, 3.39 -1.43, 12.1 0 M0 12.1 C-2.15 2.74, 3.48 2.02, 12.1 0" stroke="#000000" stroke-width="1" fill="none"></path></g><g transform="translate(431.5161783354597 97.22665722096008) rotate(58.815025341261666 24.44921875 9.599999999999909)"><text x="24.44921875" y="0" font-family="Helvetica, Segoe UI Emoji" font-size="16px" fill="#000000" text-anchor="middle" style="white-space: pre;" direction="ltr" dominant-baseline="text-before-edge">Orders</text></g><g stroke-linecap="round" transform="translate(153.05524083546015 230.31415722095971) rotate(62.300527191945065 63.99999999999977 24.199999999999818)"><path d="M13.02 -1.63 L121 0.07 L128.18 4.42 L128.61 8.97 L128.93 42.31 L125.17 47.15 L115.69 48.71 L6.22 48.23 L2.33 45.09 L1.43 40.68 L-0.86 7.82 L0.62 3.87 L5.8 0.53 L11.71 -0.45" stroke="none" stroke-width="0" fill="#ffffff"></path><path d="M12.1 0 M12.1 0 C40.81 1.28, 70.36 1.8, 115.9 0 M12.1 0 C51.5 -0.32, 89.25 0.71, 115.9 0 M115.9 0 C122.63 0.1, 128.92 5.66, 128 12.1 M115.9 0 C124.82 -1.8, 126.02 5.57, 128 12.1 M128 12.1 C126.76 20.26, 127.08 30.5, 128 36.3 M128 12.1 C129.14 17.72, 129.01 25.96, 128 36.3 M128 36.3 C127.61 45.23, 123.91 48.97, 115.9 48.4 M128 36.3 C128.99 44.01, 123.12 47.46, 115.9 48.4 M115.9 48.4 C87.22 48.62, 56.51 46.82, 12.1 48.4 M115.9 48.4 C83.85 48.82, 52.05 50.1, 12.1 48.4 M12.1 48.4 C2.66 46.92, 0.36 46.34, 0 36.3 M12.1 48.4 C3.59 46.88, 0.9 45.5, 0 36.3 M0 36.3 C-0.33 29.23, 1.98 20.59, 0 12.1 M0 36.3 C-0.79 29.25, -0.14 21.28, 0 12.1 M0 12.1 C-0.65 2.6, 2.16 -1.13, 12.1 0 M0 12.1 C-0.55 6.05, 1.94 0.2, 12.1 0" stroke="#000000" stroke-width="1" fill="none"></path></g><g transform="translate(158.93805333546015 244.91415722096008) rotate(62.300527191945065 58.11718749999977 9.599999999999909)"><text x="58.1171875" y="0" font-family="Helvetica, Segoe UI Emoji" font-size="16px" fill="#000000" text-anchor="middle" style="white-space: pre;" direction="ltr" dominant-baseline="text-before-edge">PreparingCoffee</text></g><g stroke-linecap="round"><g transform="translate(77.42368102017463 93.66181967050397) rotate(0 55.86996898044299 0.19456109289922097)"><path d="M0 0 C40.68 0.14, 81.36 0.28, 111.74 0.39" stroke="#000000" stroke-width="1.5" fill="none" stroke-dasharray="8 9"></path></g><g transform="translate(77.42368102017463 93.66181967050397) rotate(0 55.86996898044299 0.19456109289922097)"><path d="M83.51 10.55 C93.79 6.85, 104.07 3.15, 111.74 0.39" stroke="#000000" stroke-width="1.5" fill="none"></path></g><g transform="translate(77.42368102017463 93.66181967050397) rotate(0 55.86996898044299 0.19456109289922097)"><path d="M83.59 -9.97 C93.83 -6.2, 104.08 -2.43, 111.74 0.39" stroke="#000000" stroke-width="1.5" fill="none"></path></g></g><mask></mask><g stroke-linecap="round" transform="translate(32.56377027093549 42.229804469201554) rotate(0 11.928240916217646 9.250244465179094)"><path d="M10.53 -0.52 C12.76 -0.75, 16.11 1.1, 18.1 2.08 C20.09 3.06, 21.51 3.71, 22.48 5.37 C23.44 7.04, 24.71 10.25, 23.9 12.09 C23.09 13.92, 20.01 15.46, 17.63 16.38 C15.24 17.3, 12.05 17.71, 9.58 17.6 C7.11 17.49, 4.51 17, 2.78 15.73 C1.05 14.46, -0.64 12.19, -0.78 9.97 C-0.91 7.76, -0.43 4.25, 1.97 2.45 C4.37 0.65, 11.29 -0.6, 13.62 -0.82 C15.96 -1.04, 16.16 0.7, 15.97 1.14 M13.84 0.6 C15.97 0.89, 17.78 2.6, 19.55 3.86 C21.31 5.11, 24.28 6.35, 24.45 8.14 C24.61 9.93, 21.96 13.1, 20.54 14.62 C19.12 16.15, 18.03 16.61, 15.91 17.3 C13.79 17.99, 10.5 19.58, 7.82 18.77 C5.13 17.95, 1.02 14.58, -0.21 12.43 C-1.45 10.27, -0.4 7.72, 0.4 5.83 C1.2 3.95, 2.64 2.24, 4.58 1.1 C6.53 -0.04, 10.73 -0.94, 12.06 -1.01 C13.38 -1.08, 12.18 0.51, 12.51 0.67" stroke="#000000" stroke-width="1" fill="none"></path></g><g stroke-linecap="round"><g transform="translate(44.60142805258329 61.49363633718167) rotate(0 1.3700084718507242 27.09566977451459)"><path d="M1.04 -0.4 C1.55 8.57, 2.42 45.45, 2.61 54.55 M0.13 -1.65 C0.62 7.42, 1.99 46.38, 2.26 55.85" stroke="#000000" stroke-width="1" fill="none"></path></g></g><mask></mask><g stroke-linecap="round"><g transform="translate(18.9445262100362 72.43469844043284) rotate(0 26.298077099657576 -0.38447178229944257)"><path d="M-0.4 1.14 C8.31 0.94, 44.15 0.16, 53 -0.15 M1.59 0.69 C10.04 0.67, 42.87 -1.91, 51.8 -1.91" stroke="#000000" stroke-width="1" fill="none"></path></g></g><mask></mask><g stroke-linecap="round"><g transform="translate(23.73532352670918 136.56889337728717) rotate(0 11.268365429278674 -10.65352045644022)"><path d="M1.14 -0.47 C4.68 -3.87, 18.83 -17.73, 22.26 -20.84 M0.28 -1.76 C3.63 -4.99, 18.21 -16.51, 21.67 -19.71" stroke="#000000" stroke-width="1" fill="none"></path></g></g><mask></mask><g stroke-linecap="round"><g transform="translate(46.60924942176098 116.23142542498317) rotate(0 10.38816043408383 10.135265436837926)"><path d="M-0.47 0.69 C2.76 3.61, 15.41 15.82, 18.94 18.66 M1.49 0 C5.13 3.65, 18.09 17.18, 21.24 20.27" stroke="#000000" stroke-width="1" fill="none"></path></g></g><mask></mask><g transform="translate(10 149.95842641379932) rotate(0 32.8984375 9.599999999999909)"><text x="32.8984375" y="0" font-family="Helvetica, Segoe UI Emoji" font-size="16px" fill="#000000" text-anchor="middle" style="white-space: pre;" direction="ltr" dominant-baseline="text-before-edge">customer</text></g><g stroke-linecap="round"><g transform="translate(78.16416241694606 269.02772225058743) rotate(0 55.86996898044299 0.19456109289922097)"><path d="M0 0 C35.16 0.12, 70.32 0.24, 111.74 0.39" stroke="#000000" stroke-width="1.5" fill="none" stroke-dasharray="8 9"></path></g><g transform="translate(78.16416241694606 269.02772225058743) rotate(0 55.86996898044299 0.19456109289922097)"><path d="M83.51 10.55 C92.4 7.35, 101.28 4.16, 111.74 0.39" stroke="#000000" stroke-width="1.5" fill="none"></path></g><g transform="translate(78.16416241694606 269.02772225058743) rotate(0 55.86996898044299 0.19456109289922097)"><path d="M83.59 -9.97 C92.44 -6.71, 101.3 -3.45, 111.74 0.39" stroke="#000000" stroke-width="1.5" fill="none"></path></g></g><mask></mask><g stroke-linecap="round" transform="translate(29.691651668324994 212.47589821920064) rotate(0 11.928240916217646 9.250244465179094)"><path d="M17.04 1.46 C19.48 1.9, 21.71 2.5, 22.9 4.22 C24.09 5.94, 24.65 9.73, 24.17 11.77 C23.69 13.8, 22.05 15.43, 20.04 16.42 C18.03 17.41, 14.59 17.78, 12.09 17.71 C9.58 17.64, 6.93 17.07, 5 16 C3.06 14.92, 1.11 13.09, 0.5 11.27 C-0.11 9.44, 0.08 6.66, 1.33 5.03 C2.57 3.4, 5.11 2.12, 7.96 1.49 C10.81 0.86, 16.55 1, 18.43 1.26 C20.31 1.51, 19.46 2.94, 19.24 3.02 M9.11 -0.21 C11.25 -0.75, 12.35 0.17, 14.73 1.05 C17.11 1.93, 22.06 3.27, 23.38 5.07 C24.71 6.86, 23.23 10.15, 22.67 11.82 C22.11 13.49, 22.04 14.01, 20.05 15.09 C18.05 16.17, 13.33 17.96, 10.71 18.3 C8.08 18.63, 6.11 18.26, 4.29 17.12 C2.47 15.98, 0.1 13.57, -0.24 11.44 C-0.57 9.31, 0.93 6.2, 2.29 4.34 C3.64 2.48, 6.9 0.92, 7.89 0.28 C8.87 -0.35, 8.4 0.53, 8.21 0.52" stroke="#000000" stroke-width="1" fill="none"></path></g><g stroke-linecap="round"><g transform="translate(41.72930944997279 231.73973008718258) rotate(0 0.4487712939417179 28.547495004635948)"><path d="M0.66 0.86 C0.75 10.12, 1.06 46, 1.37 55.2 M-0.45 0.27 C-0.6 9.78, -0.1 47.83, 0.38 56.83" stroke="#000000" stroke-width="1" fill="none"></path></g></g><mask></mask><g stroke-linecap="round"><g transform="translate(16.07240760742752 242.68079219043375) rotate(0 26.74697712650891 -0.5504932781364005)"><path d="M0.86 -0.09 C9.86 -0.16, 44.7 0.28, 53.64 0.27 M-0.14 -1.19 C8.75 -1.62, 43.71 -1.12, 52.78 -1.28" stroke="#000000" stroke-width="1" fill="none"></path></g></g><mask></mask><g stroke-linecap="round"><g transform="translate(20.863204924096863 306.8149871272881) rotate(0 10.534812309381095 -10.212928923689105)"><path d="M-0.09 0.18 C3.57 -3.14, 18.95 -15.55, 22.67 -19.03 M-1.6 -0.78 C1.95 -4.48, 18.39 -17.46, 22.3 -20.6" stroke="#000000" stroke-width="1" fill="none"></path></g></g><mask></mask><g stroke-linecap="round"><g transform="translate(43.73713081914866 286.4775191749841) rotate(0 9.780779902802578 9.922416311818779)"><path d="M0.18 1.1 C3.49 4.32, 17.59 16.2, 20.75 19.21 M-1.19 0.63 C1.98 3.52, 17.14 14.71, 20.35 17.45" stroke="#000000" stroke-width="1" fill="none"></path></g></g><mask></mask><g transform="translate(16.0224126473895 320.2045201638002) rotate(0 24.01171875 9.599999999999909)"><text x="24.01171875" y="0" font-family="Helvetica, Segoe UI Emoji" font-size="16px" fill="#000000" text-anchor="middle" style="white-space: pre;" direction="ltr" dominant-baseline="text-before-edge">barista</text></g><g stroke-linecap="round"><g transform="translate(601.488746764735 135.7174701121039) rotate(0 33.166096517908045 35.820541343853165)" fill-rule="evenodd"><path d="M-0.67 0.39 L0.47 70.3 L1.92 75.13 L14.61 79.72 L35.93 77.89 L53.6 77.87 L67.86 74.76 L65.94 -0.61 L56.78 -4.35 L31.45 -7.25 L8.04 -3.31 L1.35 -3.11 L-0.81 -0.8" stroke="none" stroke-width="0" fill="#fff" fill-rule="evenodd"></path><path d="M-0.63 0.15 C-0.64 11.1, 0.77 53.99, 0.99 65.85 C1.21 77.72, 0.2 69.79, 0.68 71.35 C1.16 72.9, 1.48 74.25, 3.88 75.19 C6.29 76.14, 9.69 76.36, 15.11 77.03 C20.54 77.7, 30.01 79.29, 36.43 79.21 C42.86 79.14, 48.91 77.57, 53.66 76.59 C58.42 75.61, 62.9 74.36, 64.98 73.32 C67.06 72.27, 66.01 71.74, 66.15 70.34 C66.3 68.94, 65.8 75.8, 65.87 64.92 C65.94 54.03, 66.7 15.95, 66.58 5.01 C66.45 -5.93, 66.02 0.62, 65.13 -0.72 C64.24 -2.07, 63.47 -2.35, 61.24 -3.05 C59 -3.75, 56.38 -4.28, 51.71 -4.93 C47.04 -5.58, 39.23 -6.74, 33.22 -6.95 C27.22 -7.16, 20.78 -6.71, 15.66 -6.2 C10.54 -5.69, 5.26 -4.92, 2.51 -3.87 C-0.23 -2.82, -0.24 -0.63, -0.81 0.09 C-1.39 0.82, -1.21 0.65, -0.93 0.49 M1.23 -0.81 C1.05 9.81, 0.6 52.15, 0.44 64.33 C0.28 76.52, -0.39 70.3, 0.27 72.29 C0.92 74.28, 2.16 75.49, 4.37 76.27 C6.59 77.05, 8.49 76.59, 13.56 76.94 C18.62 77.3, 28.04 78.15, 34.76 78.4 C41.48 78.65, 48.99 79.44, 53.88 78.45 C58.77 77.47, 62.35 73.57, 64.12 72.49 C65.9 71.41, 64.13 73.39, 64.52 71.99 C64.9 70.6, 65.98 75.13, 66.42 64.1 C66.86 53.06, 67.02 16.7, 67.13 5.78 C67.23 -5.14, 68.01 0.18, 67.04 -1.39 C66.07 -2.97, 63.45 -3.08, 61.32 -3.68 C59.18 -4.27, 59.37 -4.29, 54.23 -4.94 C49.09 -5.59, 36.74 -7.55, 30.48 -7.58 C24.21 -7.6, 21.55 -5.75, 16.66 -5.11 C11.76 -4.46, 3.67 -4.64, 1.08 -3.7 C-1.5 -2.76, 1.19 -0.25, 1.15 0.53 C1.12 1.31, 0.75 0.99, 0.85 1" stroke="#000000" stroke-width="1" fill="none"></path></g></g><mask></mask><g stroke-linecap="round" transform="translate(601.7238926788277 127.97782190738872) rotate(0 32.950914801864656 6.664074618766335)"><path d="M28.73 -0.13 C35.32 -0.52, 44.95 -0.24, 50.95 0.74 C56.94 1.71, 62.8 4.27, 64.7 5.74 C66.61 7.2, 65.12 8.47, 62.38 9.53 C59.63 10.6, 54.35 11.68, 48.23 12.12 C42.12 12.57, 32.81 12.52, 25.71 12.22 C18.6 11.92, 9.75 11.49, 5.59 10.32 C1.43 9.16, 0.08 6.64, 0.77 5.22 C1.46 3.8, 4.47 2.6, 9.75 1.8 C15.02 1, 27.84 0.78, 32.41 0.41 C36.98 0.04, 37.05 -0.39, 37.17 -0.42 M23.05 1.75 C29.2 1.61, 38.73 1.81, 44.98 1.91 C51.22 2.01, 57.16 1.46, 60.51 2.36 C63.86 3.26, 66.44 5.9, 65.08 7.32 C63.72 8.74, 57.61 10.03, 52.36 10.86 C47.1 11.69, 40.37 12.36, 33.56 12.31 C26.75 12.27, 17.02 11.49, 11.49 10.58 C5.95 9.68, 1.64 8.01, 0.37 6.89 C-0.89 5.77, 0.23 4.83, 3.89 3.85 C7.54 2.87, 19.16 1.76, 22.29 1.03 C25.42 0.3, 22.63 -0.5, 22.65 -0.53" stroke="none" stroke-width="0" fill="#fff"></path><path d="M48.54 0.71 C54.57 1.23, 60.46 1.96, 63.25 3.35 C66.05 4.74, 67.51 7.66, 65.3 9.03 C63.09 10.4, 56.05 10.99, 49.99 11.57 C43.93 12.15, 35.81 12.73, 28.94 12.5 C22.06 12.27, 13.6 11.19, 8.72 10.17 C3.85 9.15, -0.06 7.7, -0.32 6.38 C-0.58 5.06, 2.9 3.37, 7.17 2.26 C11.43 1.16, 17.48 -0.16, 25.27 -0.23 C33.05 -0.29, 48.44 1.34, 53.87 1.87 C59.3 2.41, 58 2.95, 57.84 2.97 M30.63 -0.97 C37.42 -1.22, 47.7 -0.95, 53.57 0.27 C59.43 1.49, 64.62 4.84, 65.84 6.35 C67.06 7.86, 64.29 8.17, 60.89 9.32 C57.48 10.48, 52.02 12.55, 45.39 13.28 C38.77 14.01, 27.72 14.32, 21.12 13.71 C14.52 13.11, 9.03 10.92, 5.79 9.66 C2.55 8.4, 0.91 7.59, 1.68 6.15 C2.45 4.71, 5.28 1.81, 10.39 1.02 C15.5 0.23, 28.51 1.58, 32.33 1.4 C36.15 1.22, 33.29 0.21, 33.3 -0.07" stroke="#000000" stroke-width="1" fill="none"></path></g><g transform="translate(600.3083719905308 219.89491366689344) rotate(0 35.125 9.599999999999909)"><text x="35.125" y="0" font-family="Helvetica, Segoe UI Emoji" font-size="16px" fill="#000000" text-anchor="middle" style="white-space: pre;" direction="ltr" dominant-baseline="text-before-edge">repository</text></g><g stroke-linecap="round"><g transform="translate(493.89040324052985 103.88161544149989) rotate(0 48.486328125 9.24609375)"><path d="M0 0 C16.16 3.08, 80.81 15.41, 96.97 18.49" stroke="#000000" stroke-width="1.5" fill="none" stroke-dasharray="8 9"></path></g><g transform="translate(493.89040324052985 103.88161544149989) rotate(0 48.486328125 9.24609375)"><path d="M67.36 23.29 C76.51 21.81, 85.66 20.32, 96.97 18.49" stroke="#000000" stroke-width="1.5" fill="none"></path></g><g transform="translate(493.89040324052985 103.88161544149989) rotate(0 48.486328125 9.24609375)"><path d="M71.2 3.13 C79.17 7.88, 87.13 12.63, 96.97 18.49" stroke="#000000" stroke-width="1.5" fill="none"></path></g></g><mask></mask><g stroke-linecap="round"><g transform="translate(504.31227824052985 246.5847404414999) rotate(0 40.5546875 -16.107421875)"><path d="M0 0 C13.52 -5.37, 67.59 -26.85, 81.11 -32.21" stroke="#000000" stroke-width="1.5" fill="none" stroke-dasharray="8 9"></path></g><g transform="translate(504.31227824052985 246.5847404414999) rotate(0 40.5546875 -16.107421875)"><path d="M58.7 -12.27 C65.42 -18.26, 72.15 -24.24, 81.11 -32.21" stroke="#000000" stroke-width="1.5" fill="none"></path></g><g transform="translate(504.31227824052985 246.5847404414999) rotate(0 40.5546875 -16.107421875)"><path d="M51.12 -31.34 C60.12 -31.61, 69.12 -31.87, 81.11 -32.21" stroke="#000000" stroke-width="1.5" fill="none"></path></g></g><mask></mask></svg>