<svg version="1.1" xmlns="http://www.w3.org/2000/svg" viewBox="0 0 758.1722635805697 471.3411406209962" width="758.1722635805697" height="471.3411406209962" class="excalidraw-svg"><!-- svg-source:excalidraw --><metadata></metadata><defs><style class="style-fonts">
      </style></defs><rect x="0" y="0" width="758.1722635805697" height="471.3411406209962" fill="#ffffff"></rect><g stroke-linecap="round"><g transform="translate(142.96701937956345 11.297850972181834) rotate(0 120.20755792394868 224.37271933831624)" fill-rule="evenodd"><path d="M1.29 1.53 L-132.85 226.8 L-15.74 450.02 L264.39 449.36 L373.04 222.23 L237.08 -0.44 L-0.16 1.66" stroke="none" stroke-width="0" fill="#fcecbc" fill-rule="evenodd"></path><path d="M0 0 C-48.91 82.64, -98.56 166.01, -132.97 225.64 M0 0 C-46.26 80.14, -93.79 158.33, -132.97 225.64 M-132.97 225.64 C-107.95 276.49, -81.97 326.66, -14.77 449.94 M-132.97 225.64 C-89.33 310.18, -45.81 395.22, -14.77 449.94 M-14.77 449.94 C53.09 448.47, 121.83 448.23, 263.25 448.6 M-14.77 449.94 C51.02 450.44, 118.18 448.98, 263.25 448.6 M263.25 448.6 C302.72 362.58, 343.71 280.2, 373.38 222.95 M263.25 448.6 C287.85 396.32, 313 346.2, 373.38 222.95 M373.38 222.95 C330.75 149.04, 287.79 78.99, 239.07 1.34 M373.38 222.95 C331.38 153.92, 289.3 87.42, 239.07 1.34 M239.07 1.34 C173.82 -1.8, 105.64 -2, 0 0 M239.07 1.34 C184.08 1.65, 128.92 1.3, 0 0 M0 0 C0 0, 0 0, 0 0 M0 0 C0 0, 0 0, 0 0" stroke="#000000" stroke-width="1" fill="none"></path></g></g><mask></mask><g stroke-linecap="round" transform="translate(178.18134397082645 155.15538400663564) rotate(0 83.5 56)"><path d="M-1.9 -0.3 L165.43 0.27 L167.4 112.09 L1.79 110.59" stroke="none" stroke-width="0" fill="#ffffff"></path><path d="M0 0 C59.42 -0.29, 121.13 1.32, 167 0 M0 0 C60.24 -1.37, 121.37 -1.76, 167 0 M167 0 C164.96 38.49, 168.18 75.88, 167 112 M167 0 C167.37 29.34, 167.35 58.2, 167 112 M167 112 C117.86 109.35, 65.92 111.17, 0 112 M167 112 C118.17 112.74, 70.44 113.86, 0 112 M0 112 C-0.74 78.66, -0.85 45.11, 0 0 M0 112 C0.03 76.91, -0.4 40.07, 0 0" stroke="#000000" stroke-width="1" fill="none"></path></g><g stroke-linecap="round"><g transform="translate(179.18134397082645 218.15538400663564) rotate(0 83.5 0.6788061319530527)"><path d="M0 0 C36.71 1.32, 72.73 2.36, 167 0 M0 0 C59.97 -0.18, 121.87 0.19, 167 0" stroke="#000000" stroke-width="1" fill="none"></path></g></g><mask></mask><g stroke-linecap="round"><g transform="translate(179.18134397082645 242.15538400663564) rotate(0 83 1)"><path d="M0 0 C36.8 1.44, 72.23 -0.66, 166 2 M0 0 C45.08 1.37, 89.5 1.39, 166 2" stroke="#000000" stroke-width="1" fill="none"></path></g></g><mask></mask><g transform="translate(220.06806272082645 176.15538400663564) rotate(0 42.11328125 9.599999999999994)"><text x="42.11328125" y="13.9203125" font-family="Helvetica, sans-serif, Segoe UI Emoji" font-size="16px" fill="#000000" text-anchor="middle" style="white-space: pre;" direction="ltr" dominant-baseline="alphabetic">CoffeeShop</text></g><g stroke-linecap="round" transform="translate(563.9239552340575 154.15538400663564) rotate(0 83.5 56)"><path d="M1.22 -1.96 L165.29 0.51 L166.55 110.77 L-1.36 113.27" stroke="none" stroke-width="0" fill="#e1f9bd"></path><path d="M0 0 C57.13 -0.11, 114.12 2.28, 167 0 M0 0 C44.47 2.17, 88.39 1.03, 167 0 M167 0 C166.14 41.55, 164.97 85.3, 167 112 M167 0 C165.46 31.98, 166.37 65.08, 167 112 M167 112 C131.93 113.18, 100.41 111.76, 0 112 M167 112 C126.18 110.15, 85.26 111.06, 0 112 M0 112 C2.21 72.57, -0.12 30.3, 0 0 M0 112 C1.08 80.14, 1.77 47.48, 0 0" stroke="#000000" stroke-width="1" fill="none"></path></g><g stroke-linecap="round"><g transform="translate(564.9239552340575 217.15538400663564) rotate(0 83.5 0.06884421483249525)"><path d="M0 0 C35.22 2.16, 72.57 1.74, 167 0 M0 0 C35.2 -1.66, 73 -1.87, 167 0" stroke="#000000" stroke-width="1" fill="none"></path></g></g><mask></mask><g stroke-linecap="round"><g transform="translate(564.9239552340575 241.15538400663564) rotate(0 83 1.0001168547386357)"><path d="M0 0 C36.99 0.19, 73.61 -0.22, 166 2 M0 0 C63.44 0.79, 124.76 2.02, 166 2" stroke="#000000" stroke-width="1" fill="none"></path></g></g><mask></mask><g transform="translate(588.9654840047576 169.15538400663564) rotate(0 58.6953125 19.200000000000003)"><text x="58.6953125" y="13.9203125" font-family="Helvetica, sans-serif, Segoe UI Emoji" font-size="16px" fill="#000000" text-anchor="middle" style="white-space: pre;" direction="ltr" dominant-baseline="alphabetic">OrdersDatabase</text><text x="58.6953125" y="33.1203125" font-family="Helvetica, sans-serif, Segoe UI Emoji" font-size="16px" fill="#000000" text-anchor="middle" style="white-space: pre;" direction="ltr" dominant-baseline="alphabetic">Adapter</text></g><g stroke-linecap="round" transform="translate(367.9462158086815 63.77535007984471) rotate(0 83.5 56)"><path d="M-1.68 -0.97 L165.52 -1.38 L165.44 113.09 L0.58 110.88" stroke="none" stroke-width="0" fill="#ffffff"></path><path d="M0 0 C55.96 -1.5, 108.08 1.91, 167 0 M0 0 C39.88 -0.51, 80.85 0.09, 167 0 M167 0 C166.23 25.6, 167.27 48.39, 167 112 M167 0 C167.54 43.37, 166.83 85.27, 167 112 M167 112 C131.39 113.5, 99.05 113.63, 0 112 M167 112 C132.52 112.41, 96.62 112.83, 0 112 M0 112 C-0.06 88.99, -1.56 63.63, 0 0 M0 112 C0.73 88.75, 0.28 67.36, 0 0" stroke="#000000" stroke-width="1" fill="none"></path></g><g stroke-linecap="round"><g transform="translate(368.9462158086815 126.77535007984471) rotate(0 83.5 0.7421989319371676)"><path d="M0 0 C46.44 3.11, 93.21 0.43, 167 0 M0 0 C48.32 1.06, 95.91 1.55, 167 0" stroke="#000000" stroke-width="1" fill="none"></path></g></g><mask></mask><g stroke-linecap="round"><g transform="translate(368.9462158086815 150.7753500798447) rotate(0 83 0.40226551939747424)"><path d="M0 0 C33.76 -1.99, 69.63 -1.61, 166 2 M0 0 C37.57 1.01, 75.94 0.47, 166 2" stroke="#000000" stroke-width="1" fill="none"></path></g></g><mask></mask><g transform="translate(398.86665082938157 76.77535007984471) rotate(0 53.81640625 19.19999999999999)"><text x="53.81640625" y="13.9203125" font-family="Helvetica, sans-serif, Segoe UI Emoji" font-size="16px" fill="#000000" text-anchor="middle" style="white-space: pre;" direction="ltr" dominant-baseline="alphabetic">&lt;&lt; interface &gt;&gt;</text><text x="53.81640625" y="33.1203125" font-family="Helvetica, sans-serif, Segoe UI Emoji" font-size="16px" fill="#000000" text-anchor="middle" style="white-space: pre;" direction="ltr" dominant-baseline="alphabetic">Orders</text></g><g transform="translate(230.1367360812717 93.15538400663564) rotate(0 40.03125 9.599999999999994)"><text x="0" y="13.9203125" font-family="Helvetica, sans-serif, Segoe UI Emoji" font-size="16px" fill="#000000" text-anchor="start" style="white-space: pre;" direction="ltr" dominant-baseline="alphabetic">&lt;&lt; uses &gt;&gt;</text></g><g stroke-linecap="round"><g transform="translate(650.2698995781691 146.67048429425932) rotate(0 -55.3165817484487 -13.13993802683052)"><path d="M0 0 C-0.15 -6.09, -0.31 -12.18, -0.63 -24.9 M-0.63 -24.9 C-26.96 -25.23, -53.29 -25.56, -110.63 -26.28" stroke="#000000" stroke-width="1.5" fill="none" stroke-dasharray="8 9"></path></g><g transform="translate(650.2698995781691 146.67048429425932) rotate(0 -55.3165817484487 -13.13993802683052)"><path d="M-110.63 -26.28 L-96.96 -32.45 L-97.12 -19.77 L-110.63 -26.28" stroke="none" stroke-width="0" fill="#000000" fill-rule="evenodd"></path><path d="M-110.63 -26.28 C-107.29 -27.79, -103.95 -29.3, -96.96 -32.45 M-96.96 -32.45 C-97 -29.41, -97.04 -26.38, -97.12 -19.77 M-97.12 -19.77 C-102.18 -22.21, -107.23 -24.64, -110.63 -26.28 M-110.63 -26.28 C-110.63 -26.28, -110.63 -26.28, -110.63 -26.28" stroke="#000000" stroke-width="1.5" fill="none"></path></g></g><mask></mask><g transform="translate(541.134105523365 87.77330282326176) rotate(0.25162866300128894 64.03515625 9.599999999999994)"><text x="0" y="13.9203125" font-family="Helvetica, sans-serif, Segoe UI Emoji" font-size="16px" fill="#000000" text-anchor="start" style="white-space: pre;" direction="ltr" dominant-baseline="alphabetic">&lt;&lt; implements &gt;&gt;</text></g><g stroke-linecap="round"><g transform="translate(261.2636797540515 153.7753500798447) rotate(0 50.14723693545466 -15.345260136295337)"><path d="M0 0 C-0.14 -6.74, -0.28 -13.49, -0.63 -30 M-0.63 -30 C38.27 -30.26, 77.17 -30.53, 100.92 -30.69" stroke="#000000" stroke-width="1.5" fill="none" stroke-dasharray="8 9"></path></g><g transform="translate(261.2636797540515 153.7753500798447) rotate(0 50.14723693545466 -15.345260136295337)"><path d="M77.49 -21.98 C82.76 -23.94, 88.02 -25.9, 100.92 -30.69" stroke="#000000" stroke-width="1.5" fill="none"></path></g><g transform="translate(261.2636797540515 153.7753500798447) rotate(0 50.14723693545466 -15.345260136295337)"><path d="M77.37 -39.08 C82.66 -37.2, 87.96 -35.31, 100.92 -30.69" stroke="#000000" stroke-width="1.5" fill="none"></path></g></g><mask></mask><g stroke-linecap="round" transform="translate(176.5350752242 321.9056904721959) rotate(0 83.5 56)"><path d="M-0.34 1.9 L167.87 1.95 L166.74 110.62 L-0.48 113.38" stroke="none" stroke-width="0" fill="#ffffff"></path><path d="M0 0 C38.3 -2.31, 78.61 -0.72, 167 0 M0 0 C39.26 -1.32, 77.51 -1.46, 167 0 M167 0 C166.56 38.1, 164.35 75.26, 167 112 M167 0 C166.31 40.04, 166.47 80.51, 167 112 M167 112 C112.14 114.72, 58.14 111.78, 0 112 M167 112 C111.96 111.61, 57.44 110.49, 0 112 M0 112 C1.86 87.27, -0.35 62.19, 0 0 M0 112 C-0.11 84.99, 0.1 58.52, 0 0" stroke="#000000" stroke-width="1" fill="none"></path></g><g stroke-linecap="round"><g transform="translate(177.5350752242 384.9056904721959) rotate(0 83.5 0.8560152011237747)"><path d="M0 0 C55.29 1.27, 105.96 3.12, 167 0 M0 0 C57 0.23, 116.22 0.17, 167 0" stroke="#000000" stroke-width="1" fill="none"></path></g></g><mask></mask><g stroke-linecap="round"><g transform="translate(177.5350752242 408.9056904721959) rotate(0 83 1.0188091111926347)"><path d="M0 0 C32.28 2.19, 68.09 1.17, 166 2 M0 0 C41.16 0.88, 82.23 2.29, 166 2" stroke="#000000" stroke-width="1" fill="none"></path></g></g><mask></mask><g transform="translate(240.0858564742 342.9056904721959) rotate(0 20.44921875 9.600000000000001)"><text x="20.44921875" y="13.9203125" font-family="Helvetica, sans-serif, Segoe UI Emoji" font-size="16px" fill="#000000" text-anchor="middle" style="white-space: pre;" direction="ltr" dominant-baseline="alphabetic">Order</text></g><g stroke-linecap="round"><g transform="translate(259.60976358057155 271.9056904721959) rotate(0 0 23.5)"><path d="M0 0 C0 17.59, 0 35.17, 0 47" stroke="#000000" stroke-width="1.5" fill="none" stroke-dasharray="8 9"></path></g><g transform="translate(259.60976358057155 271.9056904721959) rotate(0 0 23.5)"><path d="M-8.04 24.92 C-5.03 33.18, -2.02 41.44, 0 47" stroke="#000000" stroke-width="1.5" fill="none"></path></g><g transform="translate(259.60976358057155 271.9056904721959) rotate(0 0 23.5)"><path d="M8.04 24.92 C5.03 33.18, 2.02 41.44, 0 47" stroke="#000000" stroke-width="1.5" fill="none"></path></g></g><mask></mask><g transform="translate(281.10976358056973 283.9056904721959) rotate(0 40.03125 9.599999999999994)"><text x="0" y="13.9203125" font-family="Helvetica, sans-serif, Segoe UI Emoji" font-size="16px" fill="#000000" text-anchor="start" style="white-space: pre;" direction="ltr" dominant-baseline="alphabetic">&lt;&lt; uses &gt;&gt;</text></g><g stroke-linecap="round" transform="translate(567.3504406578929 320.9056904721959) rotate(0 83.5 56)"><path d="M-0.96 0.08 L168.14 0.76 L166.66 111.28 L-1.99 110.22" stroke="none" stroke-width="0" fill="#e1f9bd"></path><path d="M0 0 C32.71 0.5, 68.69 0.62, 167 0 M0 0 C34.95 -1.56, 68.48 -1.13, 167 0 M167 0 C167.24 26.58, 165.74 50.82, 167 112 M167 0 C165.81 22.02, 165.36 45.91, 167 112 M167 112 C129.59 109.21, 96.03 111.35, 0 112 M167 112 C126.51 110.4, 85.73 110.68, 0 112 M0 112 C1.95 75.43, 2 36.86, 0 0 M0 112 C0.92 86.88, 0.33 60.82, 0 0" stroke="#000000" stroke-width="1" fill="none"></path></g><g stroke-linecap="round"><g transform="translate(568.3504406578929 383.9056904721959) rotate(0 83.5 0.35903368180432693)"><path d="M0 0 C55.5 0.29, 108.42 0.48, 167 0 M0 0 C58.97 0.81, 119.06 1.1, 167 0" stroke="#000000" stroke-width="1" fill="none"></path></g></g><mask></mask><g stroke-linecap="round"><g transform="translate(568.3504406578929 407.9056904721959) rotate(0 83 1)"><path d="M0 0 C56.27 1.08, 117.39 0.93, 166 2 M0 0 C39.45 0.87, 80.7 1.27, 166 2" stroke="#000000" stroke-width="1" fill="none"></path></g></g><mask></mask><g transform="translate(610.8934094078929 341.9056904721959) rotate(0 40.45703125 9.600000000000001)"><text x="40.45703125" y="13.9203125" font-family="Helvetica, sans-serif, Segoe UI Emoji" font-size="16px" fill="#000000" text-anchor="middle" style="white-space: pre;" direction="ltr" dominant-baseline="alphabetic">OrderEntity</text></g><g stroke-linecap="round"><g transform="translate(649.1747619786645 270.4056904721959) rotate(0 0.0952421542178854 23.5)"><path d="M0 0 C0.07 17.19, 0.14 34.37, 0.19 47" stroke="#000000" stroke-width="1.5" fill="none" stroke-dasharray="8 9"></path></g><g transform="translate(649.1747619786645 270.4056904721959) rotate(0 0.0952421542178854 23.5)"><path d="M-7.94 24.95 C-4.96 33.01, -1.99 41.08, 0.19 47" stroke="#000000" stroke-width="1.5" fill="none"></path></g><g transform="translate(649.1747619786645 270.4056904721959) rotate(0 0.0952421542178854 23.5)"><path d="M8.14 24.88 C5.23 32.97, 2.33 41.06, 0.19 47" stroke="#000000" stroke-width="1.5" fill="none"></path></g></g><mask></mask><g transform="translate(668.1097635805697 279.9056904721959) rotate(0 40.03125 9.599999999999994)"><text x="0" y="13.9203125" font-family="Helvetica, sans-serif, Segoe UI Emoji" font-size="16px" fill="#000000" text-anchor="start" style="white-space: pre;" direction="ltr" dominant-baseline="alphabetic">&lt;&lt; uses &gt;&gt;</text></g><g stroke-linecap="round"><g transform="translate(561.6097635805716 229.9084370969179) rotate(0 -107 74.49862668763899)"><path d="M0 0 C-31.57 0.2, -63.15 0.41, -154 1 M-154 1 C-154 34.96, -154 68.92, -154 149 M-154 149 C-167.91 149, -181.83 149, -214 149" stroke="#000000" stroke-width="1.5" fill="none" stroke-dasharray="8 9"></path></g><g transform="translate(561.6097635805716 229.9084370969179) rotate(0 -107 74.49862668763899)"><path d="M-190.51 140.45 C-195.32 142.2, -200.14 143.95, -214 149" stroke="#000000" stroke-width="1.5" fill="none"></path></g><g transform="translate(561.6097635805716 229.9084370969179) rotate(0 -107 74.49862668763899)"><path d="M-190.51 157.55 C-195.32 155.79, -200.14 154.04, -214 149" stroke="#000000" stroke-width="1.5" fill="none"></path></g></g><mask></mask><g transform="translate(411.10976358056973 202.9056904721959) rotate(0 40.03125 9.599999999999994)"><text x="0" y="13.9203125" font-family="Helvetica, sans-serif, Segoe UI Emoji" font-size="16px" fill="#000000" text-anchor="start" style="white-space: pre;" direction="ltr" dominant-baseline="alphabetic">&lt;&lt; uses &gt;&gt;</text></g></svg>