<svg version="1.1" xmlns="http://www.w3.org/2000/svg" viewBox="0 0 770.9426564937066 471.9942784090816" width="770.9426564937066" height="471.9942784090816">
  <!-- svg-source:excalidraw -->
  
  <defs>
    <style class="style-fonts">
      @font-face {
        font-family: "Virgil";
        src: url("https://excalidraw.com/Virgil.woff2");
      }
      @font-face {
        font-family: "Cascadia";
        src: url("https://excalidraw.com/Cascadia.woff2");
      }
    </style>
  </defs>
  <rect x="0" y="0" width="770.9426564937066" height="471.9942784090816" fill="#ffffff"></rect><g stroke-linecap="round"><g transform="translate(361.53578294171257 10.874615320351154) rotate(0 120.1616156293785 225.12252388418963)" fill-rule="evenodd"><path d="M-1.7 -0.14 L-131.63 225.35 L-16.12 451.59 L261.65 447.7 L372.05 224.9 L240.65 1.81 L-0.52 1.21" stroke="none" stroke-width="0" fill="#fcecbc" fill-rule="evenodd"></path><path d="M-1.33 -0.87 C-39.19 60.52, -73.07 124.55, -133.92 225.61 M-0.4 -0.51 C-42.24 68.03, -82.07 136.83, -132.52 225.41 M-133.8 224.72 C-101.44 289.02, -67.46 349.69, -15.47 450 M-133.26 225.34 C-101.53 282.22, -72.65 337.59, -15.24 449.45 M-13.83 450.92 C45.31 447.67, 107.46 448.17, 263.84 447.73 M-14.78 450.52 C66.87 451.18, 146.59 451.95, 263.45 448.87 M262.33 449.85 C284.89 401.16, 307.8 354.33, 374.24 221.54 M263.2 449.03 C298.25 377.22, 334.09 304.18, 373.77 223.6 M372.06 224.5 C334.3 159.29, 293.34 95.19, 238.8 0.82 M373.85 223.53 C339.86 170.54, 307.7 115.66, 238.59 1.1 M238.59 2.16 C162.85 1.07, 82.55 -1.82, -0.68 -0.1 M238.64 0.8 C146.72 3.49, 52.75 1.96, -0.82 -0.71 M0 0 C0 0, 0 0, 0 0 M0 0 C0 0, 0 0, 0 0" stroke="#000000" stroke-width="1" fill="none"></path></g></g><mask></mask><g stroke-linecap="round" transform="translate(194.01326626227365 61.732148354804735) rotate(0 83.5 56)"><path d="M0.33 -1.04 L168.4 -0.34 L166.35 110.83 L0.46 112.62" stroke="none" stroke-width="0" fill="#ffffff"></path><path d="M-1.2 -0.03 C40.29 -2.07, 79.47 -1.58, 165.73 -1.15 M0.56 -0.29 C47.38 -0.87, 96.04 -0.59, 166.43 -0.01 M166.14 0.07 C166.64 46.37, 166 88.31, 166.27 112.92 M166.43 -0.6 C165.99 34.59, 167.16 68.29, 167.64 111.83 M167.77 110.88 C130.1 112.16, 91.63 111.5, 1.52 113.76 M167.26 112.36 C124.79 113.62, 84.26 113.06, 0.77 111.35 M1.06 110.27 C1.05 86.79, -1.2 59.42, 1.07 1.09 M0.47 112.79 C-1.16 71.38, -0.13 29.4, 0.96 0.47" stroke="#000000" stroke-width="1" fill="none"></path></g><g stroke-linecap="round"><g transform="translate(195.01326626227365 124.73214835480474) rotate(0 83.34600243158638 0.23851952352674743)"><path d="M-0.03 0.08 C65.21 0.06, 132.38 -0.27, 165.85 -0.3 M-0.29 -0.21 C52.74 -0.08, 106.54 -1.5, 166.99 0.98" stroke="#000000" stroke-width="1" fill="none"></path></g></g><mask></mask><g stroke-linecap="round"><g transform="translate(195.01326626227365 148.73214835480474) rotate(0 83.38337510637939 0.5592678776010871)"><path d="M0.08 -1.48 C54.73 -0.29, 110.08 0.22, 165.7 2.41 M-0.21 -0.8 C51.45 0.58, 100.6 1.69, 166.98 2.6" stroke="#000000" stroke-width="1" fill="none"></path></g></g><mask></mask><g transform="translate(224.19542003297374 74.73214835480474) rotate(0 54.5546875 19.19999999999999)"><text x="54.5546875" y="0" font-family="Helvetica, Segoe UI Emoji" font-size="16px" fill="#000000" text-anchor="middle" style="white-space: pre;" direction="ltr" dominant-baseline="text-before-edge">&lt;&lt; interface &gt;&gt;</text><text x="54.5546875" y="19.2" font-family="Helvetica, Segoe UI Emoji" font-size="16px" fill="#000000" text-anchor="middle" style="white-space: pre;" direction="ltr" dominant-baseline="text-before-edge">OrderingCoffee</text></g><g stroke-linecap="round" transform="translate(396.75010753297374 177.73214835480496) rotate(0 83.5 56)"><path d="M-0.65 -1.17 L167.46 0.62 L168.17 113.44 L-1.76 113.83" stroke="none" stroke-width="0" fill="#ffffff"></path><path d="M-0.94 -0.99 C48.54 0.08, 99.32 1.64, 167.09 1.12 M0.86 -0.52 C44.63 1.31, 91.36 1.92, 166.78 -0.43 M165.34 -0.73 C165.69 34.92, 166.47 67.68, 166.08 110.86 M167.35 0.62 C166.71 26.74, 165.27 54.81, 166.71 112.39 M165.09 111.99 C127.76 114.3, 84.42 111.03, 1.94 112.52 M166.81 111.44 C111.64 111.35, 54.09 111.47, -0.84 112.53 M-1.8 111.88 C0.82 89.19, 1.05 66.15, 0.51 0.94 M0.96 111.18 C1.04 69.99, 0.24 26.52, 0.7 -0.17" stroke="#000000" stroke-width="1" fill="none"></path></g><g stroke-linecap="round"><g transform="translate(397.75010753297374 240.73214835480496) rotate(0 83.56366288289428 -0.48012141027905386)"><path d="M-0.99 -1.27 C49.65 0.48, 102.02 0.88, 168.12 -0.59 M-0.52 -0.57 C46.61 -0.46, 93.84 -1.66, 166.57 0.04" stroke="#000000" stroke-width="1" fill="none"></path></g></g><mask></mask><g stroke-linecap="round"><g transform="translate(397.75010753297374 264.73214835480496) rotate(0 82.3830284634605 0.4701128339026752)"><path d="M-1.27 -1.15 C37.24 1.69, 75.17 2.85, 165.41 1.58 M-0.57 -0.01 C37.59 1.89, 72.98 1.31, 166.04 1.49" stroke="#000000" stroke-width="1" fill="none"></path></g></g><mask></mask><g transform="translate(438.63682628297374 198.73214835480496) rotate(0 42.11328125 9.599999999999994)"><text x="42.11328125" y="0" font-family="Helvetica, Segoe UI Emoji" font-size="16px" fill="#000000" text-anchor="middle" style="white-space: pre;" direction="ltr" dominant-baseline="text-before-edge">CoffeeShop</text></g><g stroke-linecap="round"><g transform="translate(77.29868102017372 121.31626273198566) rotate(0 55.86996898044299 0.19456109289919254)"><path d="M0 0 C27.98 0.1, 55.95 0.19, 111.74 0.39" stroke="#000000" stroke-width="1.5" fill="none" stroke-dasharray="8 9"></path></g><g transform="translate(77.29868102017372 121.31626273198566) rotate(0 55.86996898044299 0.19456109289919254)"><path d="M83.51 10.55 C90.58 8.01, 97.65 5.46, 111.74 0.39" stroke="#000000" stroke-width="1.5" fill="none"></path></g><g transform="translate(77.29868102017372 121.31626273198566) rotate(0 55.86996898044299 0.19456109289919254)"><path d="M83.59 -9.97 C90.63 -7.38, 97.68 -4.78, 111.74 0.39" stroke="#000000" stroke-width="1.5" fill="none"></path></g></g><mask></mask><g stroke-linecap="round"><g transform="translate(393.34176538142583 237.73214835480496) rotate(0 -44.29582892422604 -29.43000121138715)"><path d="M0 0 C-20.71 0, -41.43 0, -87.59 0 M-87.59 0 C-87.84 -14.33, -88.08 -28.66, -88.59 -58.86" stroke="#000000" stroke-width="1.5" fill="none" stroke-dasharray="8 9"></path></g><g transform="translate(393.34176538142583 237.73214835480496) rotate(0 -44.29582892422604 -29.43000121138715)"><path d="M-88.59 -58.86 L-82.02 -45.38 L-94.7 -45.16 L-88.59 -58.86" stroke="none" stroke-width="0" fill="#000000" fill-rule="evenodd"></path><path d="M-88.59 -58.86 C-87.04 -55.67, -85.48 -52.48, -82.02 -45.38 M-82.02 -45.38 C-85.11 -45.32, -88.2 -45.27, -94.7 -45.16 M-94.7 -45.16 C-93.09 -48.77, -91.48 -52.37, -88.59 -58.86 M-88.59 -58.86 C-88.59 -58.86, -88.59 -58.86, -88.59 -58.86" stroke="#000000" stroke-width="1.5" fill="none"></path></g></g><mask></mask><g transform="translate(254.24987608387073 246.73214835480496) rotate(0 64.03515625 9.599999999999994)"><text x="0" y="0" font-family="Helvetica, Segoe UI Emoji" font-size="16px" fill="#000000" text-anchor="start" style="white-space: pre;" direction="ltr" dominant-baseline="text-before-edge">&lt;&lt; implements &gt;&gt;</text></g><g stroke-linecap="round" transform="translate(593.5149793708306 63.35211442801358) rotate(0 83.5 56)"><path d="M-0.61 0.48 L168.14 -0.85 L166.42 112.98 L1.52 113.22" stroke="none" stroke-width="0" fill="#ffffff"></path><path d="M1.72 -1.03 C44.06 1.3, 92.33 2.52, 166.55 -0.86 M-0.83 -0.36 C50.34 -1.08, 101.43 -1.71, 166.54 -0.57 M167.69 1.23 C167.35 26.57, 164.47 55.81, 166.42 112.77 M166.05 -0.01 C167.66 28.22, 166.37 53.92, 167.97 112.26 M166.62 110.88 C112.41 110.7, 53.44 110.93, -1.68 113.06 M166.1 111.94 C131.9 113.39, 96.38 113.82, 0.26 112.47 M1.93 110.35 C2 70.47, 0.4 26, 1.4 -0.34 M0.31 112.58 C1.38 81.14, 1.57 51.48, -0.83 -0.6" stroke="#000000" stroke-width="1" fill="none"></path></g><g stroke-linecap="round"><g transform="translate(594.5149793708306 126.35211442801352) rotate(0 82.69716052804142 -0.1797008998683225)"><path d="M-1.03 -1.13 C46.59 0.52, 94.43 -1.88, 166.14 0.07 M-0.36 -0.37 C41.98 1.41, 82.87 0.93, 166.43 -0.6" stroke="#000000" stroke-width="1" fill="none"></path></g></g><mask></mask><g stroke-linecap="round"><g transform="translate(594.5149793708306 150.35211442801352) rotate(0 82.47081005200744 0.6831661433278668)"><path d="M-1.13 -0.03 C38.56 2.49, 72.76 0.88, 166.07 0.97 M-0.37 0.46 C65.14 1.23, 129.81 1.6, 165.4 1.17" stroke="#000000" stroke-width="1" fill="none"></path></g></g><mask></mask><g transform="translate(624.4354143915307 76.35211442801352) rotate(0 53.81640625 19.19999999999999)"><text x="53.81640625" y="0" font-family="Helvetica, Segoe UI Emoji" font-size="16px" fill="#000000" text-anchor="middle" style="white-space: pre;" direction="ltr" dominant-baseline="text-before-edge">&lt;&lt; interface &gt;&gt;</text><text x="53.81640625" y="19.2" font-family="Helvetica, Segoe UI Emoji" font-size="16px" fill="#000000" text-anchor="middle" style="white-space: pre;" direction="ltr" dominant-baseline="text-before-edge">Orders</text></g><g transform="translate(494.7054996434208 369.7321483548049) rotate(0 40.03125 9.600000000000023)"><text x="0" y="0" font-family="Helvetica, Segoe UI Emoji" font-size="16px" fill="#000000" text-anchor="start" style="white-space: pre;" direction="ltr" dominant-baseline="text-before-edge">&lt;&lt; uses &gt;&gt;</text></g><g stroke-linecap="round"><g transform="translate(515.0812225206619 294.3521144280137) rotate(0 36.19116798344612 28.154739863703924)"><path d="M0 0 C0.05 22.26, 0.1 44.52, 0.12 56 M0.12 56 C21.96 56.09, 43.79 56.19, 72.38 56.31" stroke="#000000" stroke-width="1.5" fill="none" stroke-dasharray="8 9"></path></g><g transform="translate(515.0812225206619 294.3521144280137) rotate(0 36.19116798344612 28.154739863703924)"><path d="M44.15 66.45 C55.37 62.42, 66.59 58.39, 72.38 56.31" stroke="#000000" stroke-width="1.5" fill="none"></path></g><g transform="translate(515.0812225206619 294.3521144280137) rotate(0 36.19116798344612 28.154739863703924)"><path d="M44.24 45.93 C55.42 50.05, 66.61 54.18, 72.38 56.31" stroke="#000000" stroke-width="1.5" fill="none"></path></g></g><mask></mask><g stroke-linecap="round" transform="translate(32.43877027093549 69.88424753068301) rotate(0 11.928240916217874 9.250244465179023)"><path d="M8.26 0.59 C10.42 -0.09, 12.87 0.24, 15.19 0.87 C17.5 1.51, 20.86 2.74, 22.13 4.37 C23.41 6, 23.35 8.6, 22.83 10.64 C22.3 12.68, 20.83 15.4, 18.98 16.6 C17.14 17.8, 14.26 17.98, 11.76 17.84 C9.25 17.7, 6.01 16.73, 3.95 15.76 C1.89 14.79, 0 13.97, -0.58 12.04 C-1.16 10.1, -1.12 6.17, 0.46 4.13 C2.04 2.09, 7.26 0.32, 8.91 -0.22 C10.55 -0.77, 10.22 0.66, 10.33 0.86 M9.27 1.26 C11.53 0.82, 14.14 0.06, 16.58 0.73 C19.02 1.41, 22.88 3.68, 23.92 5.29 C24.95 6.91, 23.7 8.37, 22.8 10.44 C21.89 12.51, 20.26 16.17, 18.5 17.72 C16.73 19.26, 14.79 20.19, 12.19 19.69 C9.59 19.19, 4.82 16.01, 2.89 14.71 C0.97 13.41, 1 13.48, 0.65 11.9 C0.31 10.33, -0.26 7.07, 0.82 5.24 C1.9 3.41, 5.78 1.88, 7.12 0.92 C8.47 -0.05, 8.58 -0.78, 8.89 -0.54" stroke="#000000" stroke-width="1" fill="none"></path></g><g stroke-linecap="round"><g transform="translate(44.47642805258329 89.14807939866438) rotate(0 -0.12314460902462088 27.471485770515898)"><path d="M0.04 -0.92 C0.25 8.36, 0.76 45.26, 1.15 54.57 M-1.4 1.21 C-1.36 10.76, -0.55 46.7, 0.04 55.86" stroke="#000000" stroke-width="1" fill="none"></path></g></g><mask></mask><g stroke-linecap="round"><g transform="translate(18.81952621003711 100.08914150191362) rotate(0 26.043004867321997 -0.7767332529905389)"><path d="M-0.92 -0.31 C8.1 -0.3, 43.96 0.3, 53.01 0.12 M0.79 -1.52 C9.72 -1.83, 43.2 -1.7, 51.82 -1.5" stroke="#000000" stroke-width="1" fill="none"></path></g></g><mask></mask><g stroke-linecap="round"><g transform="translate(23.61032352670827 164.2233364387693) rotate(0 11.106656478967125 -10.31148053381537)"><path d="M-0.31 -0.45 C3.43 -3.66, 18.96 -16.99, 22.53 -20.17 M1.72 -1.74 C5.39 -4.67, 19.03 -15.37, 22.08 -18.69" stroke="#000000" stroke-width="1" fill="none"></path></g></g><mask></mask><g stroke-linecap="round"><g transform="translate(46.48424942176007 143.88586848646435) rotate(0 9.577457378947202 9.844150596907639)"><path d="M-0.45 0.96 C2.97 4.01, 16.16 15.06, 19.61 18 M1.51 0.41 C4.84 3.65, 15.57 16.01, 18.61 19.27" stroke="#000000" stroke-width="1" fill="none"></path></g></g><mask></mask><g transform="translate(10 177.61286947528185) rotate(0 32.8984375 9.599999999999994)"><text x="32.8984375" y="0" font-family="Helvetica, Segoe UI Emoji" font-size="16px" fill="#000000" text-anchor="middle" style="white-space: pre;" direction="ltr" dominant-baseline="text-before-edge">customer</text></g><g stroke-linecap="round" transform="translate(591.7622177005114 289.3148635760572) rotate(0 83.5 56.00000000000003)"><path d="M-0.76 0.88 L165.71 -0.61 L167.68 110.64 L0.06 112.34" stroke="none" stroke-width="0" fill="#ffffff"></path><path d="M-1.83 -1.46 C35.57 3, 70.73 -0.42, 165.4 -0.36 M0.31 0.76 C33.23 -0.28, 68.08 0.28, 166.25 0.51 M166.01 0.93 C166.17 43.37, 166.99 82.15, 166.3 113.78 M166.96 0.46 C167.25 36.34, 166.88 71.87, 166.08 111.86 M166.21 110.02 C106.65 113.26, 44.01 113.21, 1.36 113.46 M166.11 112.76 C118.96 111.84, 69 111.6, -0.07 112.07 M0.38 111.86 C1.24 73.25, 2.63 35.04, 0.06 -0.18 M0.1 111.98 C1.01 71.07, -0.5 29.42, -0.12 -0.21" stroke="#000000" stroke-width="1" fill="none"></path></g><g stroke-linecap="round"><g transform="translate(592.7622177005114 352.314863576057) rotate(0 83.02568103466183 -0.6025275597348809)"><path d="M-1.46 -0.41 C40.58 0.3, 75.86 -0.07, 166.64 -1.91 M0.76 -0.9 C35.84 -0.72, 72.1 -1.27, 167.51 0.71" stroke="#000000" stroke-width="1" fill="none"></path></g></g><mask></mask><g stroke-linecap="round"><g transform="translate(592.7622177005114 376.314863576057) rotate(0 82.90081671066582 1.321934121519348)"><path d="M-0.41 1.89 C37.53 0.15, 75.93 1.79, 164.09 0.28 M-0.9 0.14 C53.81 0.09, 107.26 0.56, 166.71 2.51" stroke="#000000" stroke-width="1" fill="none"></path></g></g><mask></mask><g transform="translate(622.6826527212115 302.314863576057) rotate(0 53.81640625 19.19999999999999)"><text x="53.81640625" y="0" font-family="Helvetica, Segoe UI Emoji" font-size="16px" fill="#000000" text-anchor="middle" style="white-space: pre;" direction="ltr" dominant-baseline="text-before-edge">&lt;&lt; interface &gt;&gt;</text><text x="53.81640625" y="19.2" font-family="Helvetica, Segoe UI Emoji" font-size="16px" fill="#000000" text-anchor="middle" style="white-space: pre;" direction="ltr" dominant-baseline="text-before-edge">Payments</text></g><g stroke-linecap="round"><g transform="translate(516.2195381911433 121.46960343976104) rotate(0 36.19116798344612 27.495551058781018)"><path d="M0 54.69 C0.03 41.8, 0.05 28.92, 0.12 0.3 M0.12 0.3 C21.95 0.34, 43.79 0.38, 72.38 0.43" stroke="#000000" stroke-width="1.5" fill="none" stroke-dasharray="8 9"></path></g><g transform="translate(516.2195381911433 121.46960343976104) rotate(0 36.19116798344612 27.495551058781018)"><path d="M44.17 10.64 C50.86 8.22, 57.54 5.8, 72.38 0.43" stroke="#000000" stroke-width="1.5" fill="none"></path></g><g transform="translate(516.2195381911433 121.46960343976104) rotate(0 36.19116798344612 27.495551058781018)"><path d="M44.21 -9.88 C50.89 -7.44, 57.56 -4.99, 72.38 0.43" stroke="#000000" stroke-width="1.5" fill="none"></path></g></g><mask></mask><g transform="translate(490.3794561745899 75.7148635760571) rotate(0 40.03125 9.599999999999994)"><text x="0" y="0" font-family="Helvetica, Segoe UI Emoji" font-size="16px" fill="#000000" text-anchor="start" style="white-space: pre;" direction="ltr" dominant-baseline="text-before-edge">&lt;&lt; uses &gt;&gt;</text></g></svg>