<svg version="1.1" xmlns="http://www.w3.org/2000/svg" viewBox="0 0 759.9046519068988 471.07841054176527" width="759.9046519068988" height="471.07841054176527" class="excalidraw-svg"><!-- svg-source:excalidraw --><metadata></metadata><defs><style class="style-fonts">
      </style></defs><rect x="0" y="0" width="759.9046519068988" height="471.07841054176527" fill="#ffffff"></rect><g stroke-linecap="round"><g transform="translate(376.522516679438 10.224654924594518) rotate(0 120.20755792394871 225.31455034628817)" fill-rule="evenodd"><path d="M0.05 0.35 L-134.51 225.74 L-15.14 449.73 L262.95 446.67 L373.06 224.46 L239.5 1.92 L-0.38 -0.26" stroke="none" stroke-width="0" fill="#fcecbc" fill-rule="evenodd"></path><path d="M0 0 C-31.25 57.32, -64.1 110.92, -132.97 225.64 M0 0 C-27.81 47.25, -55.78 94.46, -132.97 225.64 M-132.97 225.64 C-103.7 283.33, -74.21 336.87, -14.77 449.94 M-132.97 225.64 C-91.01 301.96, -50.48 379.46, -14.77 449.94 M-14.77 449.94 C49.28 450.19, 112 452.52, 263.25 448.6 M-14.77 449.94 C90.89 451.37, 195.48 450.66, 263.25 448.6 M263.25 448.6 C296.23 380.24, 330.53 314.19, 373.38 222.95 M263.25 448.6 C301.22 369.96, 340.62 289.38, 373.38 222.95 M373.38 222.95 C328.58 151.63, 283.61 76.71, 239.07 1.34 M373.38 222.95 C337.23 165.39, 301.43 106.5, 239.07 1.34 M239.07 1.34 C154.64 1.69, 69.87 -1, 0 0 M239.07 1.34 C172.26 2.79, 106.35 1.79, 0 0 M0 0 C0 0, 0 0, 0 0 M0 0 C0 0, 0 0, 0 0" stroke="#000000" stroke-width="1" fill="none"></path></g></g><mask></mask><g transform="translate(81.10914601145987 78.55714820758823) rotate(0.25162866300128894 40.03125 9.599999999999994)"><text x="0" y="13.9203125" font-family="Helvetica, sans-serif, Segoe UI Emoji" font-size="16px" fill="#000000" text-anchor="start" style="white-space: pre;" direction="ltr" dominant-baseline="alphabetic">&lt;&lt; uses &gt;&gt;</text></g><g stroke-linecap="round" transform="translate(10 147.08218795904833) rotate(0 83.5 56)"><path d="M1.48 -1.53 L166.25 -0.75 L168.26 111.94 L0.51 113.5" stroke="none" stroke-width="0" fill="#e1f9bd"></path><path d="M0 0 C64.09 1.84, 131.3 0.08, 167 0 M0 0 C46.82 0.91, 93.94 1.39, 167 0 M167 0 C168.34 45.09, 167.85 87.67, 167 112 M167 0 C166.21 24.64, 165.95 48.69, 167 112 M167 112 C134.44 114.72, 97.28 115.24, 0 112 M167 112 C109.98 111.49, 53.6 111.74, 0 112 M0 112 C0.31 88.85, -0.8 63.86, 0 0 M0 112 C-0.01 67.83, 0.26 23.4, 0 0" stroke="#000000" stroke-width="1" fill="none"></path></g><g stroke-linecap="round"><g transform="translate(11 210.08218795904833) rotate(0 83.5 -0.3045853594678789)"><path d="M0 0 C38.63 -1.63, 77.83 -1.41, 167 0 M0 0 C38.06 0.64, 78.51 0.78, 167 0" stroke="#000000" stroke-width="1" fill="none"></path></g></g><mask></mask><g stroke-linecap="round"><g transform="translate(11 234.08218795904833) rotate(0 83 1)"><path d="M0 0 C55.56 0.72, 110.43 1.14, 166 2 M0 0 C47.01 0.53, 91.92 1.11, 166 2" stroke="#000000" stroke-width="1" fill="none"></path></g></g><mask></mask><g transform="translate(41.6079350207001 168.08218795904833) rotate(0 55.12890625 9.599999999999994)"><text x="55.12890625" y="13.9203125" font-family="Helvetica, sans-serif, Segoe UI Emoji" font-size="16px" fill="#000000" text-anchor="middle" style="white-space: pre;" direction="ltr" dominant-baseline="alphabetic">OrderController</text></g><g stroke-linecap="round" transform="translate(209 61.082187959048326) rotate(0 83.5 56)"><path d="M-0.94 -0.41 L168.04 -1.41 L166.54 111.71 L1.54 111.03" stroke="none" stroke-width="0" fill="#ffffff"></path><path d="M0 0 C42.98 -0.62, 87.38 2.69, 167 0 M0 0 C57.66 -0.54, 114.06 -1.56, 167 0 M167 0 C167.07 30.73, 166.43 63.34, 167 112 M167 0 C168.58 22.1, 168.84 46.13, 167 112 M167 112 C105.95 112.96, 46.89 110.12, 0 112 M167 112 C106.25 112.83, 44.58 113.81, 0 112 M0 112 C0.43 76.44, -0.18 40.08, 0 0 M0 112 C1.05 86.91, 0.67 62.64, 0 0" stroke="#000000" stroke-width="1" fill="none"></path></g><g stroke-linecap="round"><g transform="translate(210 124.08218795904833) rotate(0 83.5 0.3964342672967973)"><path d="M0 0 C41.85 3.06, 83.47 0.65, 167 0 M0 0 C57.54 -1.15, 114.84 -0.76, 167 0" stroke="#000000" stroke-width="1" fill="none"></path></g></g><mask></mask><g stroke-linecap="round"><g transform="translate(210 148.08218795904833) rotate(0 83 0.8696788406972757)"><path d="M0 0 C38.24 -1.65, 75.7 0.74, 166 2 M0 0 C52.96 1.58, 105.39 2.92, 166 2" stroke="#000000" stroke-width="1" fill="none"></path></g></g><mask></mask><g transform="translate(239.1821537707001 74.08218795904833) rotate(0 54.5546875 19.19999999999999)"><text x="54.5546875" y="13.9203125" font-family="Helvetica, sans-serif, Segoe UI Emoji" font-size="16px" fill="#000000" text-anchor="middle" style="white-space: pre;" direction="ltr" dominant-baseline="alphabetic">&lt;&lt; interface &gt;&gt;</text><text x="54.5546875" y="33.1203125" font-family="Helvetica, sans-serif, Segoe UI Emoji" font-size="16px" fill="#000000" text-anchor="middle" style="white-space: pre;" direction="ltr" dominant-baseline="alphabetic">OrderingCoffee</text></g><g stroke-linecap="round" transform="translate(414.736841270701 151.08218795904833) rotate(0 83.5 56)"><path d="M-1.12 -0.45 L168.18 1.28 L165.8 113.3 L-0.28 111.8" stroke="none" stroke-width="0" fill="#ffffff"></path><path d="M0 0 C45.49 -0.95, 88.56 -1.29, 167 0 M0 0 C41.94 -0.51, 84.82 -1.42, 167 0 M167 0 C166.35 44.08, 168.69 85.35, 167 112 M167 0 C167.46 34.72, 166.04 71.1, 167 112 M167 112 C127.85 111.38, 90.73 112.91, 0 112 M167 112 C125.44 111.56, 83.48 111.15, 0 112 M0 112 C0.36 83.11, 1.93 52.27, 0 0 M0 112 C-0.82 80.55, 0.18 48.89, 0 0" stroke="#000000" stroke-width="1" fill="none"></path></g><g stroke-linecap="round"><g transform="translate(415.736841270701 214.08218795904833) rotate(0 83.5 -0.2569530849797559)"><path d="M0 0 C59.64 -0.31, 121.72 -1.53, 167 0 M0 0 C53.78 -0.89, 110.24 0.84, 167 0" stroke="#000000" stroke-width="1" fill="none"></path></g></g><mask></mask><g stroke-linecap="round"><g transform="translate(415.736841270701 238.08218795904833) rotate(0 83 0.9167338827542721)"><path d="M0 0 C50.3 -0.63, 102.9 -0.52, 166 2 M0 0 C49.84 2.96, 98.9 2.02, 166 2" stroke="#000000" stroke-width="1" fill="none"></path></g></g><mask></mask><g transform="translate(456.623560020701 172.08218795904833) rotate(0 42.11328125 9.599999999999994)"><text x="42.11328125" y="13.9203125" font-family="Helvetica, sans-serif, Segoe UI Emoji" font-size="16px" fill="#000000" text-anchor="middle" style="white-space: pre;" direction="ltr" dominant-baseline="alphabetic">CoffeeShop</text></g><g stroke-linecap="round"><g transform="translate(92.67378120595504 140.66630233622874) rotate(0 53.6757857564146 -11.805438907100836)"><path d="M0 0 C0.12 -5.3, 0.24 -10.59, 0.52 -22.96 M0.52 -22.96 C40.83 -23.21, 81.15 -23.45, 107.35 -23.61" stroke="#000000" stroke-width="1.5" fill="none" stroke-dasharray="8 9"></path></g><g transform="translate(92.67378120595504 140.66630233622874) rotate(0 53.6757857564146 -11.805438907100836)"><path d="M83.91 -14.92 C89.32 -16.92, 94.72 -18.93, 107.35 -23.61" stroke="#000000" stroke-width="1.5" fill="none"></path></g><g transform="translate(92.67378120595504 140.66630233622874) rotate(0 53.6757857564146 -11.805438907100836)"><path d="M83.81 -32.02 C89.24 -30.08, 94.67 -28.14, 107.35 -23.61" stroke="#000000" stroke-width="1.5" fill="none"></path></g></g><mask></mask><g stroke-linecap="round"><g transform="translate(452.286191598052 145.08218795904833) rotate(0 -35.27467516367642 -14.430001211386923)"><path d="M0 0 C-0.11 -5.74, -0.23 -11.48, -0.55 -28 M-0.55 -28 C-16.25 -28.19, -31.95 -28.39, -70.55 -28.86" stroke="#000000" stroke-width="1.5" fill="none" stroke-dasharray="8 9"></path></g><g transform="translate(452.286191598052 145.08218795904833) rotate(0 -35.27467516367642 -14.430001211386923)"><path d="M-70.55 -28.86 L-56.88 -35.03 L-57.03 -22.35 L-70.55 -28.86" stroke="none" stroke-width="0" fill="#000000" fill-rule="evenodd"></path><path d="M-70.55 -28.86 C-67.75 -30.13, -64.94 -31.39, -56.88 -35.03 M-56.88 -35.03 C-56.91 -32.19, -56.95 -29.35, -57.03 -22.35 M-57.03 -22.35 C-61.8 -24.65, -66.56 -26.94, -70.55 -28.86 M-70.55 -28.86 C-70.55 -28.86, -70.55 -28.86, -70.55 -28.86" stroke="#000000" stroke-width="1.5" fill="none"></path></g></g><mask></mask><g transform="translate(428.236609821598 84.08218795904833) rotate(0 64.03515625 9.599999999999994)"><text x="0" y="13.9203125" font-family="Helvetica, sans-serif, Segoe UI Emoji" font-size="16px" fill="#000000" text-anchor="start" style="white-space: pre;" direction="ltr" dominant-baseline="alphabetic">&lt;&lt; implements &gt;&gt;</text></g><g stroke-linecap="round" transform="translate(410.39424845356734 316.26859605885585) rotate(0 83.5 56)"><path d="M-0.94 -0.74 L167.2 -1.26 L166.98 110.94 L0.26 111.66" stroke="none" stroke-width="0" fill="#ffffff"></path><path d="M0 0 C61.27 0.76, 126.4 -0.08, 167 0 M0 0 C53.04 0.75, 104.14 1.91, 167 0 M167 0 C167.51 25.23, 169.46 52.97, 167 112 M167 0 C167.9 27.9, 168.08 55.75, 167 112 M167 112 C123.11 113.56, 80.84 112.11, 0 112 M167 112 C120.08 110.68, 74.39 110.34, 0 112 M0 112 C1.53 83.49, 1.55 57.1, 0 0 M0 112 C-0.6 79.02, -0.85 46.18, 0 0" stroke="#000000" stroke-width="1" fill="none"></path></g><g stroke-linecap="round"><g transform="translate(411.39424845356734 379.26859605885585) rotate(0 83.5 0.08138331794372533)"><path d="M0 0 C63.08 -0.52, 124.8 -1.76, 167 0 M0 0 C36.66 1.5, 74.45 1.37, 167 0" stroke="#000000" stroke-width="1" fill="none"></path></g></g><mask></mask><g stroke-linecap="round"><g transform="translate(411.39424845356734 403.26859605885585) rotate(0 83 0.9886686277718191)"><path d="M0 0 C66.49 -0.25, 130.89 1.71, 166 2 M0 0 C40.72 -0.06, 82.99 -0.12, 166 2" stroke="#000000" stroke-width="1" fill="none"></path></g></g><mask></mask><g transform="translate(473.94502970356734 337.26859605885585) rotate(0 20.44921875 9.600000000000001)"><text x="20.44921875" y="13.9203125" font-family="Helvetica, sans-serif, Segoe UI Emoji" font-size="16px" fill="#000000" text-anchor="middle" style="white-space: pre;" direction="ltr" dominant-baseline="alphabetic">Order</text></g><g stroke-linecap="round"><g transform="translate(495.0068197686778 264.76859605885585) rotate(0 -0.1370490432573206 24.5)"><path d="M0 0 C-0.08 14.43, -0.16 28.85, -0.27 49" stroke="#000000" stroke-width="1.5" fill="none" stroke-dasharray="8 9"></path></g><g transform="translate(495.0068197686778 264.76859605885585) rotate(0 -0.1370490432573206 24.5)"><path d="M-8.52 25.93 C-6.1 32.72, -3.67 39.51, -0.27 49" stroke="#000000" stroke-width="1.5" fill="none"></path></g><g transform="translate(495.0068197686778 264.76859605885585) rotate(0 -0.1370490432573206 24.5)"><path d="M8.23 26.02 C5.73 32.79, 3.22 39.55, -0.27 49" stroke="#000000" stroke-width="1.5" fill="none"></path></g></g><mask></mask><g transform="translate(515.903571376245 278.76859605885585) rotate(0 40.03125 9.599999999999994)"><text x="0" y="13.9203125" font-family="Helvetica, sans-serif, Segoe UI Emoji" font-size="16px" fill="#000000" text-anchor="start" style="white-space: pre;" direction="ltr" dominant-baseline="alphabetic">&lt;&lt; uses &gt;&gt;</text></g><g stroke-linecap="round"><g transform="translate(179.65357137624505 226.59246209545546) rotate(0 114.87033853866114 75.17613396340084)"><path d="M0 0 C38.32 -0.07, 76.63 -0.14, 182 -0.32 M182 -0.32 C181.61 59.16, 181.21 118.64, 181 150.68 M181 150.68 C199.23 150.68, 217.47 150.68, 229.74 150.68" stroke="#000000" stroke-width="1.5" fill="none" stroke-dasharray="8 9"></path></g><g transform="translate(179.65357137624505 226.59246209545546) rotate(0 114.87033853866114 75.17613396340084)"><path d="M206.84 159.01 C211.66 157.26, 216.48 155.5, 229.74 150.68" stroke="#000000" stroke-width="1.5" fill="none"></path></g><g transform="translate(179.65357137624505 226.59246209545546) rotate(0 114.87033853866114 75.17613396340084)"><path d="M206.84 142.34 C211.66 144.1, 216.48 145.85, 229.74 150.68" stroke="#000000" stroke-width="1.5" fill="none"></path></g></g><mask></mask><g stroke-linecap="round" transform="translate(10.15309202671051 315.26859605885585) rotate(0 83.5 56)"><path d="M-0.3 -1.92 L166.68 1.51 L167.43 112.57 L-0.38 111.74" stroke="none" stroke-width="0" fill="#e1f9bd"></path><path d="M0 0 C39.01 -1.34, 80.03 0.2, 167 0 M0 0 C42.7 -0.27, 85 -0.68, 167 0 M167 0 C166.51 29.9, 168.08 57.85, 167 112 M167 0 C167.35 31.17, 168.35 62.14, 167 112 M167 112 C127.55 111.79, 86.85 112.71, 0 112 M167 112 C118.29 111.63, 69.61 111.26, 0 112 M0 112 C-0.85 83.65, -0.65 55.58, 0 0 M0 112 C-0.8 80.33, -0.21 48.45, 0 0" stroke="#000000" stroke-width="1" fill="none"></path></g><g stroke-linecap="round"><g transform="translate(11.15309202671051 378.26859605885585) rotate(0 83.5 0.5021105495869662)"><path d="M0 0 C55.55 1.37, 106.39 1.42, 167 0 M0 0 C50.01 -0.17, 98.16 0.22, 167 0" stroke="#000000" stroke-width="1" fill="none"></path></g></g><mask></mask><g stroke-linecap="round"><g transform="translate(11.15309202671051 402.26859605885585) rotate(0 83 1.027963379314734)"><path d="M0 0 C40.72 0.64, 83.24 1.68, 166 2 M0 0 C43.5 1.42, 88.36 2.29, 166 2" stroke="#000000" stroke-width="1" fill="none"></path></g></g><mask></mask><g transform="translate(43.9069982767096 336.26859605885585) rotate(0 50.24609375 9.600000000000001)"><text x="50.24609375" y="13.9203125" font-family="Helvetica, sans-serif, Segoe UI Emoji" font-size="16px" fill="#000000" text-anchor="middle" style="white-space: pre;" direction="ltr" dominant-baseline="alphabetic">OrderRequest</text></g><g stroke-linecap="round"><g transform="translate(89.90357137624505 266.76859605885585) rotate(0 0 23.5)"><path d="M0 0 C0 15.51, 0 31.02, 0 47" stroke="#000000" stroke-width="1.5" fill="none" stroke-dasharray="8 9"></path></g><g transform="translate(89.90357137624505 266.76859605885585) rotate(0 0 23.5)"><path d="M-8.04 24.92 C-5.39 32.2, -2.73 39.49, 0 47" stroke="#000000" stroke-width="1.5" fill="none"></path></g><g transform="translate(89.90357137624505 266.76859605885585) rotate(0 0 23.5)"><path d="M8.04 24.92 C5.39 32.2, 2.73 39.49, 0 47" stroke="#000000" stroke-width="1.5" fill="none"></path></g></g><mask></mask><g transform="translate(108.40357137624505 276.26859605885585) rotate(0 40.03125 9.599999999999994)"><text x="0" y="13.9203125" font-family="Helvetica, sans-serif, Segoe UI Emoji" font-size="16px" fill="#000000" text-anchor="start" style="white-space: pre;" direction="ltr" dominant-baseline="alphabetic">&lt;&lt; uses &gt;&gt;</text></g><g transform="translate(269.15357137624505 196.26859605885585) rotate(0 40.03125 9.599999999999994)"><text x="0" y="13.9203125" font-family="Helvetica, sans-serif, Segoe UI Emoji" font-size="16px" fill="#000000" text-anchor="start" style="white-space: pre;" direction="ltr" dominant-baseline="alphabetic">&lt;&lt; uses &gt;&gt;</text></g></svg>