<svg version="1.1" xmlns="http://www.w3.org/2000/svg" viewBox="0 0 771.5149793708297 470.5255916334987" width="771.5149793708297" height="470.5255916334987" class="excalidraw-svg"><!-- svg-source:excalidraw --><metadata></metadata><defs><style class="style-fonts">
      </style></defs><rect x="0" y="0" width="771.5149793708297" height="470.5255916334987" fill="#121212"></rect><g stroke-linecap="round"><g transform="translate(361.53578294171166 10) rotate(0 120.20755792394868 225.2627958167494)" fill-rule="evenodd"><path d="M0.62 -0.04 L-134.11 224.17 L-13.94 449.2 L261.36 447.77 L373.93 222.77 L238.3 0.59 L-0.62 -1.8" stroke="none" stroke-width="0" fill="#302200" fill-rule="evenodd"></path><path d="M0 0 C-45.59 74.54, -90.92 153.07, -132.97 225.64 M0 0 C-28.23 49.48, -57.85 99.54, -132.97 225.64 M-132.97 225.64 C-102.36 278.8, -75.38 332.77, -14.77 449.94 M-132.97 225.64 C-86.63 313.48, -39.98 402.39, -14.77 449.94 M-14.77 449.94 C93.59 447.79, 202.53 446.9, 263.25 448.6 M-14.77 449.94 C54.52 451.18, 122.45 450.32, 263.25 448.6 M263.25 448.6 C299.95 374.09, 336.48 298.59, 373.38 222.95 M263.25 448.6 C286.61 396.5, 312.54 346.28, 373.38 222.95 M373.38 222.95 C334.55 163.35, 299.81 103.52, 239.07 1.34 M373.38 222.95 C325.53 143.72, 277.61 65.03, 239.07 1.34 M239.07 1.34 C147.99 1.69, 56.56 0.16, 0 0 M239.07 1.34 C173.87 1.39, 109.65 1.07, 0 0 M0 0 C0 0, 0 0, 0 0 M0 0 C0 0, 0 0, 0 0" stroke="#ededed" stroke-width="1" fill="none"></path></g></g><mask></mask><g stroke-linecap="round" transform="translate(194.01326626227274 60.85753303445381) rotate(0 83.5 56)"><path d="M-1.04 -1.93 L167.37 -0.4 L166.77 113.09 L-0.05 110.72" stroke="none" stroke-width="0" fill="#121212"></path><path d="M0 0 C37.18 1.6, 71.13 2.27, 167 0 M0 0 C52.63 0.59, 103.18 2.25, 167 0 M167 0 C167.45 39.77, 169.57 77.83, 167 112 M167 0 C165.88 33.13, 167.31 66.63, 167 112 M167 112 C102.64 111.86, 38.23 114.15, 0 112 M167 112 C124.68 113.06, 83.87 112.84, 0 112 M0 112 C-0.86 80.98, -1.04 47.62, 0 0 M0 112 C1.55 68.15, 0.72 25.08, 0 0" stroke="#ededed" stroke-width="1" fill="none"></path></g><g stroke-linecap="round"><g transform="translate(195.01326626227274 123.85753303445381) rotate(0 83.5 0.7919031668616014)"><path d="M0 0 C31.95 0.66, 67.24 1.84, 167 0 M0 0 C35.16 2.22, 72.02 2, 167 0" stroke="#ededed" stroke-width="1" fill="none"></path></g></g><mask></mask><g stroke-linecap="round"><g transform="translate(195.01326626227274 147.8575330344538) rotate(0 83 0.9143910784094942)"><path d="M0 0 C49.5 1.88, 96.87 2.14, 166 2 M0 0 C36.34 -0.32, 71.88 -0.6, 166 2" stroke="#ededed" stroke-width="1" fill="none"></path></g></g><mask></mask><g transform="translate(224.19542003297283 73.85753303445381) rotate(0 54.5546875 19.19999999999999)"><text x="54.5546875" y="13.9203125" font-family="Helvetica, sans-serif, Segoe UI Emoji" font-size="16px" fill="#ededed" text-anchor="middle" style="white-space: pre;" direction="ltr" dominant-baseline="alphabetic">&lt;&lt; interface &gt;&gt;</text><text x="54.5546875" y="33.1203125" font-family="Helvetica, sans-serif, Segoe UI Emoji" font-size="16px" fill="#ededed" text-anchor="middle" style="white-space: pre;" direction="ltr" dominant-baseline="alphabetic">OrderingCoffee</text></g><g stroke-linecap="round" transform="translate(396.75010753297283 176.8575330344538) rotate(0 83.5 56)"><path d="M-0.78 -0.07 L165.36 -0.52 L168.59 113.49 L-0.57 111.51" stroke="none" stroke-width="0" fill="#121212"></path><path d="M0 0 C63.37 -2.46, 131.72 -0.28, 167 0 M0 0 C60.65 1.13, 120.44 0.17, 167 0 M167 0 C165.52 29.37, 165.68 56.72, 167 112 M167 0 C166.96 29.58, 168.1 59.7, 167 112 M167 112 C106.79 111.74, 46.22 110.85, 0 112 M167 112 C124.56 110.15, 80.94 111.81, 0 112 M0 112 C0.7 88.13, 2.22 64.52, 0 0 M0 112 C-0.32 89.77, -0.23 65.8, 0 0" stroke="#ededed" stroke-width="1" fill="none"></path></g><g stroke-linecap="round"><g transform="translate(397.75010753297283 239.8575330344538) rotate(0 83.5 -0.13965291754760756)"><path d="M0 0 C63.92 1.97, 125.78 1.28, 167 0 M0 0 C48.31 -1.59, 95.92 -2.4, 167 0" stroke="#ededed" stroke-width="1" fill="none"></path></g></g><mask></mask><g stroke-linecap="round"><g transform="translate(397.75010753297283 263.8575330344538) rotate(0 83 0.99915539592822)"><path d="M0 0 C40.75 -0.05, 78.84 1.12, 166 2 M0 0 C64.94 0, 130.46 1.32, 166 2" stroke="#ededed" stroke-width="1" fill="none"></path></g></g><mask></mask><g transform="translate(438.63682628297283 197.8575330344538) rotate(0 42.11328125 9.599999999999994)"><text x="42.11328125" y="13.9203125" font-family="Helvetica, sans-serif, Segoe UI Emoji" font-size="16px" fill="#ededed" text-anchor="middle" style="white-space: pre;" direction="ltr" dominant-baseline="alphabetic">CoffeeShop</text></g><g stroke-linecap="round"><g transform="translate(77.29868102017281 120.44164741163422) rotate(0 55.86996898044299 0.19456109289919254)"><path d="M0 0 C34.9 0.12, 69.81 0.24, 111.74 0.39" stroke="#ededed" stroke-width="1.5" fill="none" stroke-dasharray="8 9"></path></g><g transform="translate(77.29868102017281 120.44164741163422) rotate(0 55.86996898044299 0.19456109289919254)"><path d="M88.22 8.86 C95.57 6.21, 102.91 3.57, 111.74 0.39" stroke="#ededed" stroke-width="1.5" fill="none"></path></g><g transform="translate(77.29868102017281 120.44164741163422) rotate(0 55.86996898044299 0.19456109289919254)"><path d="M88.28 -8.24 C95.61 -5.55, 102.93 -2.85, 111.74 0.39" stroke="#ededed" stroke-width="1.5" fill="none"></path></g></g><mask></mask><g stroke-linecap="round"><g transform="translate(393.3417653814249 236.8575330344538) rotate(0 -44.29582892422604 -29.43000121138715)"><path d="M0 0 C-30.4 0, -60.8 0, -87.59 0 M-87.59 0 C-87.86 -15.99, -88.14 -31.99, -88.59 -58.86" stroke="#ededed" stroke-width="1.5" fill="none" stroke-dasharray="8 9"></path></g><g transform="translate(393.3417653814249 236.8575330344538) rotate(0 -44.29582892422604 -29.43000121138715)"><path d="M-88.59 -58.86 L-82.02 -45.38 L-94.7 -45.16 L-88.59 -58.86" stroke="none" stroke-width="0" fill="#ededed" fill-rule="evenodd"></path><path d="M-88.59 -58.86 C-86.31 -54.18, -84.03 -49.5, -82.02 -45.38 M-82.02 -45.38 C-85.47 -45.32, -88.91 -45.26, -94.7 -45.16 M-94.7 -45.16 C-92.96 -49.07, -91.21 -52.98, -88.59 -58.86 M-88.59 -58.86 C-88.59 -58.86, -88.59 -58.86, -88.59 -58.86" stroke="#ededed" stroke-width="1.5" fill="none"></path></g></g><mask></mask><g transform="translate(254.24987608386982 245.8575330344538) rotate(0 64.03515625 9.600000000000001)"><text x="0" y="13.9203125" font-family="Helvetica, sans-serif, Segoe UI Emoji" font-size="16px" fill="#ededed" text-anchor="start" style="white-space: pre;" direction="ltr" dominant-baseline="alphabetic">&lt;&lt; implements &gt;&gt;</text></g><g stroke-linecap="round" transform="translate(593.5149793708297 62.47749910766288) rotate(0 83.5 56)"><path d="M-1.59 0.69 L166.2 0.8 L166.61 111.92 L0.87 111.41" stroke="none" stroke-width="0" fill="#121212"></path><path d="M0 0 C40.49 2.69, 81.71 2.51, 167 0 M0 0 C44.74 -0.11, 90.76 -0.09, 167 0 M167 0 C167.67 41.05, 167.25 80.49, 167 112 M167 0 C168.51 28.23, 168.1 58.87, 167 112 M167 112 C132.34 112.21, 99.23 111.82, 0 112 M167 112 C132.92 112.21, 99.05 111.02, 0 112 M0 112 C-0.48 84.38, 1.53 53.01, 0 0 M0 112 C-0.72 80.82, -1.48 50.3, 0 0" stroke="#ededed" stroke-width="1" fill="none"></path></g><g stroke-linecap="round"><g transform="translate(594.5149793708297 125.47749910766288) rotate(0 83.5 0.0976176777880653)"><path d="M0 0 C41.11 0.12, 82.41 -1.35, 167 0 M0 0 C46.96 0.37, 92.53 1.52, 167 0" stroke="#ededed" stroke-width="1" fill="none"></path></g></g><mask></mask><g stroke-linecap="round"><g transform="translate(594.5149793708297 149.47749910766288) rotate(0 83 0.9234454337079683)"><path d="M0 0 C64.36 -0.41, 129.48 -0.09, 166 2 M0 0 C41.72 1.98, 81.64 1.79, 166 2" stroke="#ededed" stroke-width="1" fill="none"></path></g></g><mask></mask><g transform="translate(624.4354143915298 75.47749910766288) rotate(0 53.81640625 19.200000000000003)"><text x="53.81640625" y="13.9203125" font-family="Helvetica, sans-serif, Segoe UI Emoji" font-size="16px" fill="#ededed" text-anchor="middle" style="white-space: pre;" direction="ltr" dominant-baseline="alphabetic">&lt;&lt; interface &gt;&gt;</text><text x="53.81640625" y="33.1203125" font-family="Helvetica, sans-serif, Segoe UI Emoji" font-size="16px" fill="#ededed" text-anchor="middle" style="white-space: pre;" direction="ltr" dominant-baseline="alphabetic">Orders</text></g><g transform="translate(494.7054996434199 368.8575330344538) rotate(0 40.03125 9.6)"><text x="0" y="13.9203125" font-family="Helvetica, sans-serif, Segoe UI Emoji" font-size="16px" fill="#ededed" text-anchor="start" style="white-space: pre;" direction="ltr" dominant-baseline="alphabetic">&lt;&lt; uses &gt;&gt;</text></g><g stroke-linecap="round"><g transform="translate(515.081222520661 293.4774991076629) rotate(0 36.19116798344612 28.154739863703924)"><path d="M0 0 C0.04 15.99, 0.07 31.97, 0.12 56 M0.12 56 C21.6 56.09, 43.07 56.18, 72.38 56.31" stroke="#ededed" stroke-width="1.5" fill="none" stroke-dasharray="8 9"></path></g><g transform="translate(515.081222520661 293.4774991076629) rotate(0 36.19116798344612 28.154739863703924)"><path d="M48.85 64.76 C55.57 62.35, 62.29 59.93, 72.38 56.31" stroke="#ededed" stroke-width="1.5" fill="none"></path></g><g transform="translate(515.081222520661 293.4774991076629) rotate(0 36.19116798344612 28.154739863703924)"><path d="M48.93 47.66 C55.62 50.13, 62.32 52.6, 72.38 56.31" stroke="#ededed" stroke-width="1.5" fill="none"></path></g></g><mask></mask><g stroke-linecap="round" transform="translate(32.43877027093549 69.0096322103318) rotate(0 11.928240916217646 9.250244465179037)"><path d="M10.09 0.05 C12.44 -0.31, 15.85 0.6, 17.99 1.71 C20.13 2.83, 22.15 4.87, 22.92 6.73 C23.7 8.59, 23.45 11.15, 22.63 12.85 C21.82 14.55, 20.28 15.98, 18.04 16.93 C15.8 17.88, 11.76 18.91, 9.18 18.56 C6.6 18.21, 4.02 16.46, 2.56 14.82 C1.09 13.18, 0.38 10.65, 0.38 8.72 C0.37 6.78, 0.79 4.65, 2.54 3.19 C4.29 1.73, 9.31 0.47, 10.9 -0.03 C12.48 -0.53, 12.08 0.04, 12.06 0.17 M12.42 0.56 C14.91 0.43, 17.32 0.85, 19.3 1.93 C21.28 3.01, 23.77 5.1, 24.3 7.05 C24.83 8.99, 23.92 11.76, 22.49 13.58 C21.06 15.4, 18.23 17.19, 15.71 17.96 C13.19 18.73, 9.74 18.85, 7.35 18.23 C4.95 17.61, 2.57 16, 1.35 14.24 C0.13 12.49, -0.51 9.73, 0.02 7.69 C0.54 5.65, 2.66 3.37, 4.51 1.99 C6.35 0.62, 9.81 -0.28, 11.09 -0.54 C12.36 -0.79, 11.98 0.13, 12.17 0.44" stroke="#ededed" stroke-width="1" fill="none"></path></g><g stroke-linecap="round"><g transform="translate(44.47642805258329 88.27346407831283) rotate(0 0.598460103977061 27.50929232589786)"><path d="M-0.69 -0.03 C-0.5 8.96, 1.55 45.64, 1.89 54.73 M1.14 -1.1 C1.15 8.01, 1.27 46.67, 1.17 56.12" stroke="#ededed" stroke-width="1" fill="none"></path></g></g><mask></mask><g stroke-linecap="round"><g transform="translate(18.8195262100362 99.21452618156218) rotate(0 26.268037031590154 -0.7693830251073166)"><path d="M0.42 -0.29 C9.43 -0.5, 44.38 -1.11, 53.35 -1.33 M-0.81 -1.49 C8.09 -1.54, 43.22 -0.18, 52.34 -0.05" stroke="#ededed" stroke-width="1" fill="none"></path></g></g><mask></mask><g stroke-linecap="round"><g transform="translate(23.61032352670736 163.34872111841833) rotate(0 10.367807939636833 -10.676481601707081)"><path d="M-0.11 -0.5 C3.54 -3.92, 18.6 -17.45, 22.37 -20.86 M-1.63 -1.8 C1.9 -5.07, 17.87 -16.68, 21.84 -19.74" stroke="#ededed" stroke-width="1" fill="none"></path></g></g><mask></mask><g stroke-linecap="round"><g transform="translate(46.48424942175916 143.01125316611342) rotate(0 10.192468867854075 8.94294716641707)"><path d="M0.8 -0.79 C4.25 2.23, 17.4 14.21, 20.63 17.61 M-0.24 1.41 C3.15 4.59, 16.85 15.94, 20.16 18.68" stroke="#ededed" stroke-width="1" fill="none"></path></g></g><mask></mask><g transform="translate(10 176.73825415493047) rotate(0 32.8984375 9.599999999999994)"><text x="32.8984375" y="13.9203125" font-family="Helvetica, sans-serif, Segoe UI Emoji" font-size="16px" fill="#ededed" text-anchor="middle" style="white-space: pre;" direction="ltr" dominant-baseline="alphabetic">customer</text></g><g stroke-linecap="round" transform="translate(591.7622177005105 288.44024825570614) rotate(0 83.5 56)"><path d="M-1.89 -0.82 L167.55 -0.19 L166.23 111.25 L-0.62 110.2" stroke="none" stroke-width="0" fill="#121212"></path><path d="M0 0 C64.68 -2.45, 124.4 0.43, 167 0 M0 0 C49.27 -2.2, 99.77 -1.44, 167 0 M167 0 C166.32 31.55, 167.54 63.03, 167 112 M167 0 C167.6 30.46, 168.74 60.71, 167 112 M167 112 C112.97 109.53, 59.4 110.32, 0 112 M167 112 C110.66 111.64, 52.47 111.22, 0 112 M0 112 C0.72 74.09, 0.93 34.41, 0 0 M0 112 C-0.92 72.29, 0.07 33.69, 0 0" stroke="#ededed" stroke-width="1" fill="none"></path></g><g stroke-linecap="round"><g transform="translate(592.7622177005105 351.44024825570614) rotate(0 83.5 0.6847575052299035)"><path d="M0 0 C54.71 2.57, 112.01 0.9, 167 0 M0 0 C62.67 1.41, 124.85 2.16, 167 0" stroke="#ededed" stroke-width="1" fill="none"></path></g></g><mask></mask><g stroke-linecap="round"><g transform="translate(592.7622177005105 375.44024825570614) rotate(0 83 0.6772872828618755)"><path d="M0 0 C34.37 -1.08, 70.31 -1.05, 166 2 M0 0 C33.65 1.28, 67.5 0.5, 166 2" stroke="#ededed" stroke-width="1" fill="none"></path></g></g><mask></mask><g transform="translate(622.6826527212106 301.44024825570614) rotate(0 53.81640625 19.2)"><text x="53.81640625" y="13.9203125" font-family="Helvetica, sans-serif, Segoe UI Emoji" font-size="16px" fill="#ededed" text-anchor="middle" style="white-space: pre;" direction="ltr" dominant-baseline="alphabetic">&lt;&lt; interface &gt;&gt;</text><text x="53.81640625" y="33.1203125" font-family="Helvetica, sans-serif, Segoe UI Emoji" font-size="16px" fill="#ededed" text-anchor="middle" style="white-space: pre;" direction="ltr" dominant-baseline="alphabetic">Payments</text></g><g stroke-linecap="round"><g transform="translate(516.2195381911424 175.28550839200216) rotate(0 36.19116798344612 -27.194969213811092)"><path d="M0 0 C0.03 -14.57, 0.06 -29.13, 0.12 -54.39 M0.12 -54.39 C25.72 -54.34, 51.32 -54.3, 72.38 -54.26" stroke="#ededed" stroke-width="1.5" fill="none" stroke-dasharray="8 9"></path></g><g transform="translate(516.2195381911424 175.28550839200216) rotate(0 36.19116798344612 -27.194969213811092)"><path d="M48.87 -45.75 C55.17 -48.03, 61.47 -50.31, 72.38 -54.26" stroke="#ededed" stroke-width="1.5" fill="none"></path></g><g transform="translate(516.2195381911424 175.28550839200216) rotate(0 36.19116798344612 -27.194969213811092)"><path d="M48.91 -62.85 C55.19 -60.55, 61.48 -58.25, 72.38 -54.26" stroke="#ededed" stroke-width="1.5" fill="none"></path></g></g><mask></mask><g transform="translate(490.379456174589 74.84024825570577) rotate(0 40.03125 9.599999999999994)"><text x="0" y="13.9203125" font-family="Helvetica, sans-serif, Segoe UI Emoji" font-size="16px" fill="#ededed" text-anchor="start" style="white-space: pre;" direction="ltr" dominant-baseline="alphabetic">&lt;&lt; uses &gt;&gt;</text></g></svg>