<svg version="1.1" xmlns="http://www.w3.org/2000/svg" viewBox="0 0 761.502196476773 472.64461083274" width="761.502196476773" height="472.64461083274">
  <!-- svg-source:excalidraw -->
  
  <defs>
    <style class="style-fonts">
      @font-face {
        font-family: "Virgil";
        src: url("https://excalidraw.com/Virgil.woff2");
      }
      @font-face {
        font-family: "Cascadia";
        src: url("https://excalidraw.com/Cascadia.woff2");
      }
    </style>
  </defs>
  <rect x="0" y="0" width="761.502196476773" height="472.64461083274" fill="#ffffff"></rect><g stroke-linecap="round"><g transform="translate(356.2786753020446 11.322182574941053) rotate(0 120.56575394591846 225.00012284142895)" fill-rule="evenodd"><path d="M-0.98 0.93 L-134.17 227.13 L-15.75 449.43 L261.87 448.05 L373.54 223.74 L240.75 1.32 L0.63 0.71" stroke="none" stroke-width="0" fill="#fcecbc" fill-rule="evenodd"></path><path d="M-0.95 -0.68 C-35.9 60.71, -73.9 119.08, -132.44 224.59 M0.51 -0.48 C-48.02 78.81, -94.04 157.4, -133.2 225.51 M-131.45 225.52 C-93.72 303.01, -52.82 380.95, -15.87 450.96 M-133.03 226.04 C-102.4 282.27, -73.12 339.12, -15.32 449.2 M-14.46 451.32 C45.91 450.99, 104.86 451.21, 262.96 448.19 M-15.53 450.1 C74.5 450.24, 163.62 450.08, 263.5 449.04 M264.58 449.19 C292.24 393.29, 319.47 336.17, 374.33 222.68 M262.73 448.72 C302.98 364, 344.38 280.6, 373.05 223.35 M373.79 222.99 C343.56 173.72, 313.89 125.11, 239.8 2.5 M374.11 223.12 C339.35 170.34, 307.78 116.27, 238.6 0.87 M239.97 0.92 C160.03 2.34, 84.57 0.47, -1.64 -1.32 M239.45 0.66 C181.72 0.23, 126.1 -0.6, -0.28 -0.76 M0 0 C0 0, 0 0, 0 0 M0 0 C0 0, 0 0, 0 0" stroke="#000000" stroke-width="1" fill="none"></path></g></g><mask></mask><g stroke-linecap="round" transform="translate(391.49299989330393 178.17971560939486) rotate(0 83.5 56)"><path d="M1.86 0.68 L168.79 1 L167.91 113.45 L-1.21 113.95" stroke="none" stroke-width="0" fill="#ffffff"></path><path d="M-0.66 0.67 C61.96 2.31, 125.76 1.03, 168.28 -1.21 M-0.49 -0.29 C33.92 0.97, 68.1 -0.13, 167.93 -0.08 M167.34 -1.36 C167.93 23.63, 167.17 48.73, 166.84 112.99 M166.67 -0.67 C165.61 35.58, 167.48 72.51, 167.2 112.9 M168.37 111.63 C104.43 112.91, 43.91 111.62, -1.96 112.41 M167.07 112.32 C111.47 112.34, 53.84 113.31, 0.82 112.36 M0.95 113.16 C-1.38 81.79, -0.54 50.64, -1.27 0.29 M0.54 111.6 C0.41 87.34, 0.88 63.43, 0.25 0.02" stroke="#000000" stroke-width="1" fill="none"></path></g><g stroke-linecap="round"><g transform="translate(392.49299989330393 241.17971560939486) rotate(0 83.31584206409752 -0.5505567759532823)"><path d="M0.67 -1.32 C65.02 -0.25, 127.75 1.83, 165.79 -1.92 M-0.29 -0.17 C50.44 0.74, 99.34 1.75, 166.92 -0.81" stroke="#000000" stroke-width="1" fill="none"></path></g></g><mask></mask><g stroke-linecap="round"><g transform="translate(392.49299989330393 265.17971560939486) rotate(0 81.9364288309589 0.9402188358136527)"><path d="M-1.32 1 C35.99 -0.39, 74.87 -0.88, 164.08 1.99 M-0.17 0.44 C44.47 0.36, 90.02 1.48, 165.19 1.71" stroke="#000000" stroke-width="1" fill="none"></path></g></g><mask></mask><g transform="translate(421.82503114330393 199.17971560939486) rotate(0 53.66796875 9.600000000000023)"><text x="53.66796875" y="0" font-family="Helvetica, Segoe UI Emoji" font-size="16px" fill="#000000" text-anchor="middle" style="white-space: pre;" direction="ltr" dominant-baseline="text-before-edge">CoffeeMachine</text></g><g stroke-linecap="round"><g transform="translate(443.08465774175784 293.17971560939486) rotate(0 -39.09165784845209 32.06999878861291)"><path d="M0 0 C0.14 22.4, 0.29 44.8, 0.41 64 M0.41 64 C-26.78 64.05, -53.97 64.1, -78.59 64.14" stroke="#000000" stroke-width="1.5" fill="none" stroke-dasharray="8 9"></path></g><g transform="translate(443.08465774175784 293.17971560939486) rotate(0 -39.09165784845209 32.06999878861291)"><path d="M-78.59 64.14 L-65.01 57.78 L-64.99 70.46 L-78.59 64.14" stroke="none" stroke-width="0" fill="#000000" fill-rule="evenodd"></path><path d="M-78.59 64.14 C-73.84 61.91, -69.08 59.69, -65.01 57.78 M-65.01 57.78 C-65 62.14, -64.99 66.5, -64.99 70.46 M-64.99 70.46 C-68.43 68.86, -71.87 67.26, -78.59 64.14 M-78.59 64.14 C-78.59 64.14, -78.59 64.14, -78.59 64.14" stroke="#000000" stroke-width="1.5" fill="none"></path></g></g><mask></mask><g transform="translate(391.9927684442009 375.17971560939486) rotate(0 64.03515625 9.600000000000023)"><text x="0" y="0" font-family="Helvetica, Segoe UI Emoji" font-size="16px" fill="#000000" text-anchor="start" style="white-space: pre;" direction="ltr" dominant-baseline="text-before-edge">&lt;&lt; implements &gt;&gt;</text></g><g stroke-linecap="round" transform="translate(583.2578717311626 62.79968168260348) rotate(0 83.5 56)"><path d="M0.02 1.82 L167.41 -0.38 L168.05 113.05 L-1.51 110.81" stroke="none" stroke-width="0" fill="#ffffff"></path><path d="M-1.92 -0.01 C47.12 0.03, 94.91 0.67, 167.88 -0.14 M-0.81 -0.29 C38.42 0.3, 77.5 0.75, 166.53 0.24 M167.51 -0.84 C165.83 30.69, 165.57 60.88, 165.29 113.89 M167.72 0.36 C167.53 30.17, 167.04 58.7, 167.2 112.5 M167.72 111.46 C125.27 112.49, 82.17 113.49, -1 110.09 M166.82 112.92 C108.68 113.08, 51.65 112.43, 0.71 112.25 M-1.74 112.13 C0.2 68.73, -0.1 24.27, -1.59 1.91 M0.93 112.34 C0.61 88.39, 0.17 64.51, -0.61 0.97" stroke="#000000" stroke-width="1" fill="none"></path></g><g stroke-linecap="round"><g transform="translate(584.2578717311626 125.79968168260348) rotate(0 83.47850814647973 -0.11933805153751109)"><path d="M-0.01 -0.63 C59.84 1.02, 121.29 2.49, 166.86 -1.32 M-0.29 -0.67 C65.86 0.67, 132.02 0.88, 167.24 -0.2" stroke="#000000" stroke-width="1" fill="none"></path></g></g><mask></mask><g stroke-linecap="round"><g transform="translate(584.2578717311626 149.79968168260348) rotate(0 82.56673872284591 1.4451872073113918)"><path d="M-0.63 -0.98 C39.15 0.15, 80.37 0.83, 164.68 3.87 M-0.67 0.17 C47.84 1.69, 96.59 1.89, 165.8 1.92" stroke="#000000" stroke-width="1" fill="none"></path></g></g><mask></mask><g transform="translate(614.1783067518627 75.79968168260348) rotate(0 53.81640625 19.19999999999999)"><text x="53.81640625" y="0" font-family="Helvetica, Segoe UI Emoji" font-size="16px" fill="#000000" text-anchor="middle" style="white-space: pre;" direction="ltr" dominant-baseline="text-before-edge">&lt;&lt; interface &gt;&gt;</text><text x="53.81640625" y="19.2" font-family="Helvetica, Segoe UI Emoji" font-size="16px" fill="#000000" text-anchor="middle" style="white-space: pre;" direction="ltr" dominant-baseline="text-before-edge">Orders</text></g><g transform="translate(481.4483920037528 83.17971560939475) rotate(0 40.03125 9.600000000000023)"><text x="0" y="0" font-family="Helvetica, Segoe UI Emoji" font-size="16px" fill="#000000" text-anchor="start" style="white-space: pre;" direction="ltr" dominant-baseline="text-before-edge">&lt;&lt; uses &gt;&gt;</text></g><g stroke-linecap="round"><g transform="translate(504.8241148809957 175.79968168260336) rotate(0 35.75330654482468 -25.5)"><path d="M0 0 C-0.24 -13.69, -0.47 -27.37, -0.88 -51 M-0.88 -51 C16.22 -50.93, 33.32 -50.86, 72.38 -50.69" stroke="#000000" stroke-width="1.5" fill="none" stroke-dasharray="8 9"></path></g><g transform="translate(504.8241148809957 175.79968168260336) rotate(0 35.75330654482468 -25.5)"><path d="M44.15 -40.55 C51.73 -43.27, 59.3 -45.99, 72.38 -50.69" stroke="#000000" stroke-width="1.5" fill="none"></path></g><g transform="translate(504.8241148809957 175.79968168260336) rotate(0 35.75330654482468 -25.5)"><path d="M44.24 -61.07 C51.79 -58.28, 59.34 -55.5, 72.38 -50.69" stroke="#000000" stroke-width="1.5" fill="none"></path></g></g><mask></mask><g stroke-linecap="round" transform="translate(191.64836332669438 293.060436729872) rotate(0 83.5 56)"><path d="M1.08 -0.51 L165.12 1.26 L167.52 111.54 L-1.96 110.42" stroke="none" stroke-width="0" fill="#ffffff"></path><path d="M-0.57 -1.33 C66.03 -0.01, 132.64 0.41, 167.49 -0.4 M-0.42 -0.54 C48.46 -1.1, 96.67 -1.28, 167.95 -0.37 M167.72 0.6 C169.38 35.52, 167.48 72.19, 168 111.12 M166.73 0.5 C167.3 22.97, 167.8 44.8, 166.05 112.47 M168.85 111.29 C104.17 112.87, 39.09 113.13, 0.5 113.92 M167.07 111.74 C128.03 110.14, 88.46 109.75, 0.96 111.15 M0.68 113.79 C0.98 76.49, 1.42 37.94, 1.95 0.02 M0.52 112.53 C-0.98 67.63, -0.82 24.69, -0.09 0.19" stroke="#000000" stroke-width="1" fill="none"></path></g><g stroke-linecap="round"><g transform="translate(192.64836332669438 356.060436729872) rotate(0 82.64982640650123 0.3788645058800739)"><path d="M-1.33 0.34 C47.47 1.74, 96.72 0.97, 166.6 -0.16 M-0.54 -0.33 C57.71 -0.21, 115.91 1.65, 166.63 0.2" stroke="#000000" stroke-width="1" fill="none"></path></g></g><mask></mask><g stroke-linecap="round"><g transform="translate(192.64836332669438 380.0604367298715) rotate(0 82.93511867336929 0.8181699477136135)"><path d="M0.34 -1.36 C37.66 0.61, 73.31 1.58, 165.84 2.99 M-0.33 -0.67 C53.09 0.69, 108.96 1.83, 166.2 2.9" stroke="#000000" stroke-width="1" fill="none"></path></g></g><mask></mask><g transform="translate(218.26801709739448 306.060436729872) rotate(0 58.1171875 19.200000000000045)"><text x="58.1171875" y="0" font-family="Helvetica, Segoe UI Emoji" font-size="16px" fill="#000000" text-anchor="middle" style="white-space: pre;" direction="ltr" dominant-baseline="text-before-edge">&lt;&lt; interface &gt;&gt;</text><text x="58.1171875" y="19.2" font-family="Helvetica, Segoe UI Emoji" font-size="16px" fill="#000000" text-anchor="middle" style="white-space: pre;" direction="ltr" dominant-baseline="text-before-edge">PreparingCoffee</text></g><g stroke-linecap="round" transform="translate(24.18166263126659 294.5961257575723) rotate(0 11.928240916217874 9.25024446517898)"><path d="M9.08 0.75 C11.41 0.16, 15.31 -0.19, 17.52 0.56 C19.73 1.31, 21.47 3.5, 22.33 5.24 C23.2 6.97, 23.47 8.86, 22.69 10.97 C21.91 13.09, 19.72 16.64, 17.64 17.92 C15.56 19.2, 12.44 18.91, 10.2 18.64 C7.95 18.38, 5.8 17.75, 4.16 16.32 C2.53 14.9, 0.57 12.23, 0.38 10.1 C0.19 7.98, 1.33 5.2, 3.04 3.55 C4.74 1.91, 8.95 0.87, 10.63 0.24 C12.32 -0.4, 13.24 -0.39, 13.14 -0.24 M14.17 0.63 C16.8 0.6, 20.59 1.03, 21.97 2.59 C23.35 4.15, 22.38 7.81, 22.43 10 C22.47 12.2, 23.71 14.15, 22.25 15.78 C20.8 17.4, 16.49 19.39, 13.68 19.75 C10.86 20.12, 7.4 19.22, 5.38 17.95 C3.36 16.67, 2.17 14.04, 1.57 12.11 C0.98 10.19, 0.83 8.39, 1.81 6.41 C2.79 4.44, 5.38 1.53, 7.46 0.26 C9.54 -1, 13.17 -1.1, 14.28 -1.16 C15.39 -1.21, 14.05 -0.32, 14.12 -0.05" stroke="#000000" stroke-width="1" fill="none"></path></g><g stroke-linecap="round"><g transform="translate(36.219320412914385 313.85995762555376) rotate(0 0.7251197881905682 27.81381080989138)"><path d="M0.75 -0.56 C1.01 8.7, 1.66 45.42, 1.76 54.78 M-0.31 1.76 C-0.2 11.28, 0.82 47.55, 0.97 56.19" stroke="#000000" stroke-width="1" fill="none"></path></g></g><mask></mask><g stroke-linecap="round"><g transform="translate(10.562418570369118 324.8010197288031) rotate(0 26.329358534402672 -0.1832872834384034)"><path d="M-0.56 0.29 C8.44 0.01, 44.12 -0.79, 53.22 -0.93 M1.34 -0.6 C10.24 -0.75, 43.44 0.3, 52.15 0.56" stroke="#000000" stroke-width="1" fill="none"></path></g></g><mask></mask><g stroke-linecap="round"><g transform="translate(15.35321588703846 388.9352146656588) rotate(0 10.231913047267426 -10.760880199740086)"><path d="M0.29 -0.24 C3.75 -3.39, 17.88 -16.08, 21.48 -19.47 M-1.01 -1.41 C2.21 -4.87, 16.77 -18.26, 20.48 -21.28" stroke="#000000" stroke-width="1" fill="none"></path></g></g><mask></mask><g stroke-linecap="round"><g transform="translate(38.22714178209026 368.5977467133539) rotate(0 9.240498422205292 8.815066397999658)"><path d="M-0.24 -0.09 C3.24 2.99, 17.07 15.83, 20.31 18.82 M-1.83 -1.19 C1.6 1.49, 16.34 13.52, 19.67 16.86" stroke="#000000" stroke-width="1" fill="none"></path></g></g><mask></mask><g transform="translate(10.629611110331098 402.3247477021714) rotate(0 24.01171875 9.600000000000023)"><text x="24.01171875" y="0" font-family="Helvetica, Segoe UI Emoji" font-size="16px" fill="#000000" text-anchor="middle" style="white-space: pre;" direction="ltr" dominant-baseline="text-before-edge">barista</text></g><g stroke-linecap="round"><g transform="translate(72.77136087988765 351.1479497889586) rotate(0 55.86996898044299 0.19456109289922097)"><path d="M0 0 C31.28 0.11, 62.57 0.22, 111.74 0.39" stroke="#000000" stroke-width="1.5" fill="none" stroke-dasharray="8 9"></path></g><g transform="translate(72.77136087988765 351.1479497889586) rotate(0 55.86996898044299 0.19456109289922097)"><path d="M83.51 10.55 C91.42 7.71, 99.32 4.86, 111.74 0.39" stroke="#000000" stroke-width="1.5" fill="none"></path></g><g transform="translate(72.77136087988765 351.1479497889586) rotate(0 55.86996898044299 0.19456109289922097)"><path d="M83.59 -9.97 C91.47 -7.07, 99.35 -4.17, 111.74 0.39" stroke="#000000" stroke-width="1.5" fill="none"></path></g></g><mask></mask></svg>